<svg width="160" height="50" viewBox="0 0 160 50" fill="none" xmlns="http://www.w3.org/2000/svg" class="partners__item-icon"><path fill-rule="evenodd" clip-rule="evenodd" d="M30.0232 31.0848C30.057 25.5762 25.2193 20.6859 19.6719 20.6195C13.8854 20.5521 8.91453 25.4166 8.89309 31.1691C8.87278 36.6383 13.8594 41.4174 19.5997 41.4286C25.1538 41.4398 29.9882 36.6428 30.0232 31.0848ZM80.8441 13.3183C82.7124 14.3366 84.1903 15.6887 85.2779 17.378C86.625 15.5583 88.2654 14.1736 90.2003 13.2205C92.1329 12.2685 94.3408 11.7919 96.8172 11.7919C101.251 11.7919 104.814 13.2317 107.509 16.1113C110.204 18.9909 111.551 22.9203 111.551 27.8995V48.9434H102.881V29.8484C102.881 26.6001 102.293 24.1432 101.12 22.4763C99.9468 20.8095 98.1642 19.9755 95.7736 19.9755C93.3829 20.0193 91.6116 20.8634 90.4609 22.5089C89.309 24.1555 88.7336 26.6001 88.7336 29.8484V48.9434H80.0623V29.8484C80.0623 26.6001 79.4756 24.1432 78.3023 22.4763C77.1278 20.8095 75.3452 19.9755 72.9546 19.9755C70.5639 19.9755 68.7825 20.8095 67.6092 22.4763C66.4359 24.1432 65.8706 26.6001 65.9135 29.8484V48.9434H65.6619H57.021V12.8721H65.6619V15.827C66.6186 14.6131 67.8427 13.6566 69.3376 12.9608C71.0096 12.1819 72.8023 11.7919 74.7157 11.7919C76.9326 11.7919 78.9758 12.3011 80.8441 13.3183ZM52.2781 12.8721V48.9434H43.6372V12.8721H52.2781ZM39.0499 12.7788V48.9479H30.1552C30.0909 48.323 30.0277 47.7262 29.9589 47.0563C18.933 52.1692 9.42222 50.798 2.6485 40.1158C-1.59015 33.4316 -0.327695 24.5613 5.01885 18.665C11.1472 11.9054 19.3177 10.7747 30.0277 15.3425V12.7788H39.0499ZM131.368 12.7169C135.841 12.7169 139.385 13.7521 142.004 15.8236C144.622 17.8939 146.077 20.687 146.369 24.2027H137.537C137.447 23.3294 137.285 22.5966 137.049 22.0031C136.812 21.4097 136.234 20.85 135.312 20.3239C134.391 19.7979 133.144 19.5349 131.57 19.5349C129.907 19.5349 128.599 19.808 127.643 20.3577C126.689 20.9061 126.211 21.639 126.211 22.5573C126.211 22.8708 126.255 23.1563 126.346 23.4137C126.436 23.6711 126.593 23.9004 126.817 24.1016C127.043 24.3028 127.273 24.4882 127.509 24.6557C127.745 24.8232 128.071 24.9749 128.486 25.1087C128.902 25.2435 129.256 25.3548 129.549 25.4447C129.84 25.5346 130.239 25.6358 130.744 25.7471C131.25 25.8595 131.655 25.9426 131.958 25.9988C132.262 26.055 132.694 26.1281 133.256 26.218L134.47 26.4192C136.493 26.7317 138.194 27.1071 139.577 27.5443C140.959 27.9804 142.33 28.5907 143.689 29.3741C145.049 30.1575 146.065 31.2095 146.74 32.5313C147.414 33.852 147.751 35.4525 147.751 37.3329C147.751 41.1836 146.324 44.089 143.469 46.0481C140.616 48.0072 136.819 48.9861 132.076 48.9861C127.109 48.9861 123.233 47.9285 120.447 45.8132C117.66 43.6968 116.177 40.7362 115.997 36.9305H125.165C125.301 38.4524 125.947 39.7067 127.105 40.6913C128.261 41.677 129.964 42.1693 132.211 42.1693C133.964 42.1693 135.358 41.8108 136.391 41.0948C137.424 40.3777 137.942 39.5156 137.942 38.5086C137.942 37.8589 137.756 37.3216 137.386 36.8968C137.015 36.4708 136.425 36.1291 135.616 35.8729C134.807 35.6143 134.082 35.43 133.442 35.3187C132.801 35.2063 131.93 35.0827 130.829 34.949C129.549 34.8141 128.493 34.6747 127.661 34.5286C126.83 34.3836 125.655 34.0588 124.138 33.5552C122.621 33.0517 121.391 32.4583 120.447 31.7749C119.503 31.0926 118.66 30.0844 117.919 28.7525C117.177 27.4206 116.807 25.8808 116.807 24.1353C116.807 20.687 118.098 17.922 120.683 15.8404C123.267 13.7577 126.83 12.7169 131.368 12.7169ZM52.2566 0.507324V9.39114H43.5762V0.507324H52.2566ZM151.094 39.9124H159.774V48.7962H151.094V39.9124Z" fill="black"></path></svg>
