<svg width="137" height="51" viewBox="0 0 137 51" fill="none" xmlns="http://www.w3.org/2000/svg" class="partners__item-icon"><path d="M64.8729 24.6789C64.8729 26.1487 64.3585 27.3981 63.4031 28.427C62.4477 29.4559 60.9779 29.9703 59.508 29.9703C58.0382 29.9703 56.7888 29.4559 55.8334 28.427C54.9515 27.3981 54.4371 26.1487 54.4371 24.6789C54.4371 23.2091 54.9515 21.9597 55.8334 20.9308C56.7888 19.9019 58.0382 19.3875 59.508 19.3875C60.9779 19.3875 62.5212 19.9019 63.4766 20.9308C64.432 21.9597 64.8729 23.2091 64.8729 24.6789ZM64.7994 17.6237C63.2561 16.3008 61.3453 15.6394 59.1406 15.6394C56.7153 15.6394 54.3636 16.5213 52.6733 18.2116C51.0565 19.9019 50.248 22.1067 50.248 24.6789C50.248 27.2511 51.0565 29.4559 52.6733 31.2197C54.2901 32.9835 56.6418 33.7919 59.1406 33.7919C61.4188 33.7919 63.1091 33.1305 64.7994 31.8076V33.4244H68.768V16.0069H64.7994V17.6237Z" fill="black"></path> <path fill-rule="evenodd" clip-rule="evenodd" d="M72.4427 33.6449C74.5005 33.6449 76.1173 32.763 77.2197 31.0727C77.6606 30.4112 78.0281 29.3824 78.3221 28.7209C78.616 27.986 78.91 26.5897 79.057 25.9282C79.1305 25.6343 79.2775 25.1198 79.351 24.3849L79.5714 22.9151C79.5714 22.6211 79.7184 22.1067 79.7919 21.2982L80.0124 19.8284H83.9074V33.4244H88.023V16.0068H76.4113L76.2643 17.2562C75.8968 20.5633 75.6029 23.1355 75.2354 24.9728C74.9414 26.7366 74.427 28.133 73.7656 29.0884C73.1041 29.9703 72.2957 30.4112 71.1934 30.4112L71.4138 33.4979C71.8548 33.5714 72.2222 33.6449 72.4427 33.6449Z" fill="black"></path> <path d="M125.063 19.2405C129.031 19.2405 131.383 21.3718 131.383 24.6789C131.383 28.0595 128.958 30.1908 125.063 30.1908V19.2405ZM114.774 24.6789C114.774 21.2983 117.125 19.2405 121.094 19.2405V30.1908C117.199 30.1173 114.774 28.133 114.774 24.6789ZM135.425 24.6789C135.425 21.9597 134.47 19.7549 132.559 18.1381C130.648 16.5213 128.149 15.6394 125.063 15.5659V10.9359H121.094V15.5659C117.934 15.6394 115.435 16.5213 113.598 18.1381C111.687 19.7549 110.805 21.9597 110.805 24.6789C110.805 27.3981 111.687 29.5294 113.598 31.1462C115.509 32.763 118.007 33.5714 121.094 33.7184V38.3484H125.063V33.7184C128.223 33.6449 130.721 32.763 132.559 31.1462C134.47 29.6028 135.425 27.4716 135.425 24.6789Z" fill="black"></path> <path d="M94.1228 33.3509L103.897 22.5476V33.3509H107.866V16.0068H105.294L95.5191 26.9571V16.0068H91.4771V33.3509H94.1228Z" fill="black"></path> <path fill-rule="evenodd" clip-rule="evenodd" d="M22.3897 50.389C19.0145 50.0725 15.8503 49.1233 12.8971 47.5412C7.30696 44.4824 2.98255 39.3142 0.978549 32.7749C-0.919973 26.2355 0.0292877 19.4852 3.08802 14.0006C7.09601 6.61746 14.7956 1.55474 23.0225 0.5H23.2335L25.3429 5.77367C25.2375 5.77367 25.132 5.77367 25.132 5.77367C18.1707 6.19557 11.2095 10.309 7.83433 16.532C5.40844 20.8564 4.7756 26.1301 6.25222 31.1928C7.72885 36.361 11.2095 40.369 15.5339 42.6894C17.8543 43.9551 20.3857 44.6934 23.0225 45.0098C28.8236 45.5372 34.2027 43.6387 38.4216 40.2635C38.6326 40.0526 38.8435 39.9471 39.0545 39.7361L41.164 45.0098C35.9958 48.9123 29.3509 51.0218 22.3897 50.389ZM28.0852 12.8404H21.4404L12.6861 34.4625H18.3817L24.8156 17.6922L31.2494 34.4625H36.945L28.0852 12.8404Z" fill="#39B980"></path></svg>
