<svg width="77" height="85" viewBox="0 0 77 85" fill="none" xmlns="http://www.w3.org/2000/svg" class="partners__item-icon"><path fill-rule="evenodd" clip-rule="evenodd" d="M65.6492 25.4557C69.1455 25.4557 71.9791 28.2892 71.9791 31.7855C71.9791 35.2805 69.1455 38.1141 65.6492 38.1141C62.1529 38.1141 59.3193 35.2805 59.3193 31.7855C59.3193 28.2892 62.1529 25.4557 65.6492 25.4557Z" fill="#F37D47"></path> <path fill-rule="evenodd" clip-rule="evenodd" d="M51.7488 2.12048C55.2438 2.12048 58.0787 4.95536 58.0787 8.45034C58.0787 11.9466 55.2438 14.7802 51.7488 14.7802C48.2525 14.7802 45.4189 11.9466 45.4189 8.45034C45.4189 4.95536 48.2525 2.12048 51.7488 2.12048Z" fill="#49A1AF"></path> <path fill-rule="evenodd" clip-rule="evenodd" d="M24.9885 1.03711C28.4849 1.03711 31.3184 3.87199 31.3184 7.36697C31.3184 10.8633 28.4849 13.6968 24.9885 13.6968C21.4922 13.6968 18.6587 10.8633 18.6587 7.36697C18.6587 3.87199 21.4922 1.03711 24.9885 1.03711Z" fill="#A6A753"></path> <path fill-rule="evenodd" clip-rule="evenodd" d="M11.7522 23.6857C15.2485 23.6857 18.0821 26.5192 18.0821 30.0155C18.0821 33.5118 15.2485 36.3454 11.7522 36.3454C8.25724 36.3454 5.42236 33.5118 5.42236 30.0155C5.42236 26.5192 8.25724 23.6857 11.7522 23.6857Z" fill="#E7E63D"></path> <path fill-rule="evenodd" clip-rule="evenodd" d="M25.5149 47.0474C29.0112 47.0474 31.8448 49.8809 31.8448 53.3759C31.8448 56.8722 29.0112 59.7058 25.5149 59.7058C22.0199 59.7058 19.1851 56.8722 19.1851 53.3759C19.1851 49.8809 22.0199 47.0474 25.5149 47.0474Z" fill="#31A28E"></path> <path fill-rule="evenodd" clip-rule="evenodd" d="M51.845 47.759C55.3413 47.759 58.1749 50.5926 58.1749 54.0889C58.1749 57.5839 55.3413 60.4187 51.845 60.4187C48.3487 60.4187 45.5151 57.5839 45.5151 54.0889C45.5151 50.5926 48.3487 47.759 51.845 47.759Z" fill="#B1527A"></path> <path fill-rule="evenodd" clip-rule="evenodd" d="M57.1724 41.7122C57.5057 41.9847 58.1036 42.3154 58.5111 42.5231C59.0072 42.7771 59.3683 43.0734 59.9067 43.3062C61.5986 44.4174 66.0553 44.7706 68.2711 44.1198L68.0713 40.0904C67.8081 40.0851 67.3517 40.2055 67.0144 40.2451C64.501 40.5428 62.0696 39.8681 60.1184 38.3521C53.9631 33.5713 56.1974 24.5799 62.7839 22.7874C63.5194 22.5864 64.1769 22.4554 65.0142 22.4355C65.4521 22.4263 65.8318 22.4382 66.2657 22.4686C66.6718 22.4977 67.0025 22.626 67.3358 22.6379C67.3716 22.2332 67.2909 19.2581 67.1983 19.1033C66.9072 18.4471 63.0419 18.6826 62.2481 18.807C60.7573 19.0438 59.2559 19.5782 58.0984 20.2277C51.2552 24.0732 49.6321 32.6983 54.3362 38.9937C54.7992 39.6128 56.5294 41.5349 57.1724 41.7122Z" fill="#F37D47"></path> <path fill-rule="evenodd" clip-rule="evenodd" d="M19.7157 41.232C20.1972 40.7492 20.8441 40.7346 22.8085 38.5268C23.7133 37.5095 24.3642 36.229 24.9317 34.7818C26.1553 31.6678 25.6434 27.6648 24.3152 24.9715C22.3773 21.04 18.6018 18.1654 14.2232 17.4498C12.1992 17.1177 10.7692 17.3294 8.81404 17.6336C8.71747 18.3758 8.97939 20.6153 9.06406 21.4289C10.2864 21.4752 10.6819 20.7781 13.6544 21.372C19.2699 22.4964 22.7053 28.8514 20.2369 33.9722C19.1244 36.2819 17.0647 38.1657 14.5354 38.7146C11.5285 39.3681 10.6409 38.7199 9.84851 38.7781L10.002 42.7414C12.014 43.4385 15.6069 43.0668 17.6851 42.2109L19.7157 41.232Z" fill="#E7E63D"></path> <path fill-rule="evenodd" clip-rule="evenodd" d="M38.4434 9.48222L38.4421 7.22146C38.2066 4.45802 36.8838 1.60065 35.43 0C35.1932 0.0304256 32.275 1.48557 32.0712 1.67473C32.1347 1.90226 32.7962 2.6973 33.0872 3.2066C33.41 3.77146 33.6706 4.29795 33.8809 4.9779C34.3082 6.35896 34.5053 8.05354 34.1389 9.5682C32.7168 15.4549 26.4941 18.0093 21.2622 15.3993C19.1073 14.3239 17.2116 12.3105 16.4814 9.75737C16.1851 9.81029 13.1743 11.3964 12.8462 11.6001C13.0063 12.5724 14.2153 14.5421 14.7987 15.3253C17.4272 18.8493 21.6577 20.9897 26.6198 20.7834C32.7393 20.5294 38.081 15.4893 38.4434 9.48222Z" fill="#94A22E"></path> <path fill-rule="evenodd" clip-rule="evenodd" d="M59.9068 43.3062C59.3684 43.0734 59.0073 42.7771 58.5112 42.5231C58.1038 42.3154 57.5058 41.9847 57.1725 41.7122C55.7134 41.269 54.6207 40.7941 52.8216 40.6499C44.8064 40.0031 38.3522 46.3488 39.0123 54.0928C39.1962 56.2464 39.9674 58.5111 41.121 60.2057C41.3062 60.4756 42.2269 61.6595 42.33 61.7653C42.5629 61.723 45.235 60.3248 45.571 60.0985C45.5181 59.8922 44.7945 59.121 44.4228 58.5945C42.3591 55.6696 42.3591 51.3584 44.6781 48.3556C44.9149 48.0487 44.9255 47.9495 45.2694 47.624C45.6068 47.3052 45.6875 47.2087 45.9996 46.9586C50.1997 43.5946 55.9184 44.5166 59.1038 48.468C59.8129 49.3464 60.6555 50.8624 60.8672 52.1403C61.4797 51.9842 63.8304 50.6018 64.7352 50.2115C64.5884 49.0884 63.3145 46.9891 62.7867 46.2536C62.2284 45.477 60.7005 43.8446 59.9068 43.3062Z" fill="#B1527A"></path> <path fill-rule="evenodd" clip-rule="evenodd" d="M19.7157 41.2321C19.127 41.6118 18.8334 41.6369 17.7672 42.3684C17.0859 42.838 16.5184 43.3248 16.0501 43.8064C15.4416 44.4321 13.7258 46.542 13.5234 47.6585L15.2974 48.6679C15.5355 48.8094 16.861 49.6177 17.1401 49.6666C18.8188 45.0842 24.978 42.4901 30.12 45.5195C32.3265 46.8198 33.652 48.6348 34.3915 51.0794C35.1124 53.4619 34.6164 55.9674 33.3702 58.039C33.2115 58.3035 32.9535 58.5985 32.8741 58.7771C33.2102 59.0761 34.2354 59.5735 34.6296 59.7983C34.9682 59.9928 36.1376 60.7455 36.4578 60.7614C37.1628 59.9478 37.9103 58.3379 38.2873 57.1606C38.7489 55.7213 38.9725 54.0043 38.8098 52.3785C38.0465 44.7959 31.2828 39.4145 23.9952 40.109C22.1947 40.281 21.2264 40.7069 19.7157 41.2321Z" fill="#31A28E"></path> <path fill-rule="evenodd" clip-rule="evenodd" d="M38.6627 9.96632C38.7738 10.6383 38.8056 10.9704 39.0133 11.6702C39.6615 13.8595 40.6152 15.4257 42.028 17.0238C46.9173 22.5546 56.0622 23.2293 61.4925 17.6045C61.8629 17.2222 62.4238 16.5832 62.7122 16.0316C62.9477 15.5805 63.5906 14.6267 63.703 14.2259C63.4887 14.0447 60.6221 12.4361 60.3165 12.4149C59.3138 13.8992 60.0321 13.3528 58.323 15.1678C57.6629 15.8689 56.3016 16.615 55.2963 16.9801C48.8963 19.307 41.7251 13.7537 43.0361 6.6486C43.4051 4.64713 44.3219 3.75552 44.4713 3.2158C44.1605 2.96181 41.0002 1.13627 40.6946 1.0741C40.1787 2.2607 39.3982 2.77661 38.8135 5.42761C38.7474 5.72922 38.7037 6.00041 38.6574 6.29805C38.6296 6.47796 38.6204 6.56923 38.6018 6.74914C38.3677 8.05215 38.4405 8.61569 38.6627 9.96632Z" fill="#49A1AF"></path> <path fill-rule="evenodd" clip-rule="evenodd" d="M38.5146 19.6245C44.8511 19.6245 49.9877 24.7612 49.9877 31.0976C49.9877 37.4341 44.8511 42.5707 38.5146 42.5707C32.1781 42.5707 27.0415 37.4341 27.0415 31.0976C27.0415 24.7612 32.1781 19.6245 38.5146 19.6245Z" fill="#C83037"></path> <path d="M17.9366 67.5436H17.5279C17.2395 67.5436 16.8929 67.6057 16.8122 67.7327C16.7752 67.7923 16.758 68.164 16.758 68.3664V72.6326C16.758 74.7809 16.9207 77.2599 14.6083 78.1502C14.6083 78.1502 14.5805 78.1793 14.0845 78.215C14.1612 77.0866 13.8622 77.3803 14.8544 77.3684C15.9338 77.3684 15.5978 74.7161 15.5978 73.6115V68.3664C15.5978 68.164 15.5806 67.7923 15.5436 67.7327C15.4642 67.6057 15.197 67.5436 14.9086 67.5436H14.3411V67.1943H17.9366V67.5436Z" fill="#787A7C"></path> <path d="M36.6904 74.7849C35.9721 76.4041 30.8936 76.1699 29.6422 74.5309C28.9967 73.6843 28.5151 72.6366 28.5151 71.3799C28.5151 70.225 29.0112 69.2474 29.6912 68.4431C30.4253 67.5727 31.4029 67.2896 32.5922 67.1388C33.333 67.0449 35.2273 67.2804 36.5105 67.4894L36.2181 69.3321H35.8676C35.8848 69.0755 35.9178 68.463 35.7935 68.2156C34.3172 67.5158 32.3474 67.2367 30.9717 68.3664C28.998 69.7766 29.674 73.2385 30.8923 74.273C31.7548 75.6871 36.4549 75.4596 36.6084 74.4635L36.6904 74.7849Z" fill="#787A7C"></path> <path d="M52.9351 69.0001H52.4946C52.5038 67.7725 52.5739 67.7407 51.3278 67.7407H49.8369C49.5433 67.7407 49.3594 67.8056 49.2813 67.9339C49.2443 67.9974 49.2205 68.1323 49.2205 68.3387V71.11H49.907C51.9681 71.11 51.8067 71.2145 51.9588 70.0742H52.3464V72.888H51.9588C52.017 71.3984 51.718 71.6312 49.907 71.6312H49.2205V74.6103C49.2205 74.818 49.243 75.1924 49.2813 75.2585C49.3581 75.3868 49.7814 75.4516 50.0724 75.4516H50.3939V75.8141H46.7256V75.4516H47.4505C47.7402 75.4516 47.9228 75.3882 48.0008 75.2585C48.0392 75.1924 48.0603 74.8167 48.0603 74.6103V68.3387C48.0603 68.1323 48.0379 67.8386 48.0008 67.7764C47.9453 67.6852 47.7653 67.5251 46.7256 67.5039V67.1415H52.9351V69.0001Z" fill="#787A7C"></path> <path d="M62.9452 75.7995H59.6844V75.4503H59.7691C60.6699 75.4503 60.8326 75.4119 60.5495 74.6023L59.9331 72.8377H56.3931L55.8812 74.0388C55.3415 75.3061 55.4261 75.4159 56.4976 75.4503L56.5863 75.4529L56.5744 75.7995H53.6733V75.4503C54.7912 75.4979 54.7845 74.9344 55.0769 74.2624L58.1737 67.1388H58.5586L61.6038 74.2253C61.756 74.5785 61.8869 74.9569 62.084 75.1368C62.3724 75.3987 62.5391 75.4424 62.9452 75.4503V75.7995ZM59.6712 72.409L58.1486 68.84H58.089L56.6312 72.409H59.6712Z" fill="#787A7C"></path> <path d="M46.2841 75.7995H43.0233V75.4503H43.1079C44.0088 75.4503 44.1715 75.4119 43.8884 74.6023L43.2733 72.8377H39.732L39.2214 74.0388C38.6803 75.3061 38.765 75.4159 39.8365 75.4503L39.9251 75.4529L39.9132 75.7995H37.0122V75.4503C38.13 75.4979 38.1234 74.9344 38.4158 74.2624L41.5126 67.1388H41.8975L44.9427 74.2253C45.0935 74.5785 45.2258 74.9569 45.4229 75.1368C45.7113 75.3987 45.878 75.4424 46.2841 75.4503V75.7995ZM43.0113 72.409L41.4874 68.84H41.4279L39.9701 72.409H43.0113Z" fill="#787A7C"></path> <path d="M27.7016 75.7995H24.4407V75.4503H24.5254C25.4263 75.4503 25.5877 75.4119 25.3059 74.6023L24.6894 72.8377H21.1495L20.6375 74.0388C20.0978 75.3061 20.1825 75.4159 21.254 75.4503L21.3426 75.4529L21.3307 75.7995H18.4297V75.4503C19.5475 75.4979 19.5409 74.9344 19.8332 74.2624L22.93 67.1388H23.315L26.3602 74.2253C26.511 74.5785 26.6433 74.9569 26.8404 75.1368C27.1288 75.3987 27.2955 75.4424 27.7016 75.4503V75.7995ZM24.4275 72.409L22.9049 68.84H22.8454L21.3863 72.409H24.4275Z" fill="#787A7C"></path> <path d="M1.11367 82.2908C1.11367 82.6162 1.16262 83.9113 1.0515 84.2327C1.00255 84.3796 0.903341 84.4828 0.80545 84.5132C0.756504 84.3756 0.609667 84.2777 0.457539 84.2777C0.314671 84.2777 0.20752 84.3571 0.20752 84.4907C0.20752 84.6878 0.431082 84.75 0.510453 84.75C0.850427 84.75 1.15865 84.4603 1.34121 84.1428C1.47481 83.9153 1.50656 83.6917 1.50656 83.398C1.50656 83.2948 1.52508 82.857 1.52508 82.2908V82.0857C1.52508 81.5447 1.53302 80.9732 1.53831 80.9018C1.54228 80.8079 1.58197 80.7721 1.70367 80.7721H1.92591C1.95369 80.7721 1.96162 80.7642 1.96162 80.7364V80.6253C1.96162 80.6081 1.95369 80.5989 1.92591 80.5989C1.85976 80.5989 1.70367 80.6121 1.32401 80.6121C0.899372 80.6121 0.734016 80.5989 0.68507 80.5989C0.658613 80.5989 0.653321 80.6081 0.653321 80.6293V80.751C0.653321 80.7682 0.667873 80.7721 0.68507 80.7721H0.882175C1.05547 80.7721 1.09648 80.8264 1.10045 80.9243C1.11367 81.1161 1.11367 81.9072 1.11367 81.9786V82.2908ZM3.53318 83.2419V82.2948C3.53318 82.1744 3.52921 82.0712 3.43528 81.9786C3.37311 81.9204 3.28845 81.8582 3.07811 81.8582C2.87704 81.8582 2.72094 81.9019 2.5331 82.0143C2.35054 82.1215 2.22487 82.2908 2.22487 82.4337C2.22487 82.5355 2.26059 82.5765 2.33202 82.5765C2.5159 82.5765 2.56881 82.4786 2.56881 82.3225C2.56881 82.2418 2.52913 82.1744 2.5913 82.1162C2.65348 82.058 2.79238 82.0223 2.88233 82.0223C3.01065 82.0223 3.1006 82.0633 3.14955 82.1215C3.19849 82.1783 3.20378 82.2948 3.21172 82.3715V82.6572C3.14029 82.7194 2.90879 82.8265 2.70771 82.9152C2.35451 83.0713 2.26059 83.2499 2.26059 83.4562C2.26059 83.7367 2.42198 83.8266 2.52913 83.8266C2.62702 83.8266 2.70771 83.8266 2.79238 83.7988C2.99345 83.7327 3.14029 83.6388 3.23421 83.5277H3.24347C3.28316 83.7102 3.39957 83.8266 3.56096 83.8266C3.78849 83.8266 3.87315 83.6745 3.90887 83.607C3.93532 83.5634 3.92606 83.5409 3.91283 83.5277L3.86786 83.4919C3.85066 83.4787 3.8414 83.4866 3.8242 83.5091C3.80171 83.5409 3.73954 83.5766 3.66811 83.5766C3.58741 83.5766 3.53318 83.4959 3.53318 83.2419ZM3.20775 83.3398C3.20775 83.4602 2.97096 83.6163 2.84132 83.6163C2.70771 83.6163 2.60982 83.5356 2.60982 83.3702C2.60982 82.9998 3.04636 82.9112 3.20775 82.7908V83.3398ZM4.33747 83.951C4.33747 84.3888 4.33747 84.6296 4.32424 84.7275C4.31498 84.795 4.30572 84.8399 4.23032 84.8399H4.0557C4.01073 84.8399 4.00279 84.8571 4.00279 84.8796V84.9603C4.00279 84.9868 4.01073 85 4.04247 85C4.07819 85 4.23429 84.9868 4.49357 84.9868C4.7793 84.9868 4.93011 85 4.9526 85C4.98435 85 4.99361 84.9868 4.99361 84.9603V84.8836C4.99361 84.8571 4.98831 84.8399 4.9526 84.8399H4.75682C4.68935 84.8399 4.65892 84.8174 4.65892 84.6918V83.7499C4.7965 83.8081 4.98435 83.8266 5.10473 83.8266C5.66297 83.8266 6.06909 83.357 6.06909 82.7723C6.06909 82.4284 5.99765 82.2458 5.82833 82.0765C5.69869 81.9561 5.54656 81.8582 5.31903 81.8582C5.02006 81.8582 4.78856 81.9998 4.66686 82.1572H4.65363L4.63644 81.9429C4.63644 81.8754 4.62718 81.8529 4.60469 81.8529C4.57426 81.8529 4.53854 81.8714 4.50283 81.8886L4.07422 82.1029C4.05173 82.1122 4.04247 82.1215 4.04247 82.1347V82.1704C4.04247 82.1836 4.04247 82.1969 4.07422 82.2101L4.17608 82.2683C4.30572 82.3397 4.33747 82.4019 4.33747 82.5091V83.951ZM4.65892 82.349C4.76608 82.1704 4.94863 82.0633 5.13647 82.0633C5.43544 82.0633 5.71588 82.3133 5.71588 82.9377C5.71588 83.4919 5.45264 83.6838 5.19865 83.6838C5.01609 83.6838 4.8772 83.652 4.75285 83.5634C4.66686 83.5052 4.65892 83.4245 4.65892 83.3266V82.349ZM7.73456 83.2419V82.2948C7.73456 82.1744 7.72927 82.0712 7.63667 81.9786C7.57317 81.9204 7.48851 81.8582 7.2795 81.8582C7.07842 81.8582 6.92233 81.9019 6.73448 82.0143C6.55061 82.1215 6.42626 82.2908 6.42626 82.4337C6.42626 82.5355 6.46197 82.5765 6.53341 82.5765C6.71596 82.5765 6.7702 82.4786 6.7702 82.3225C6.7702 82.2418 6.72919 82.1744 6.79269 82.1162C6.85486 82.058 6.99376 82.0223 7.08239 82.0223C7.21203 82.0223 7.30066 82.0633 7.35093 82.1215C7.39988 82.1783 7.40385 82.2948 7.41311 82.3715V82.6572C7.34167 82.7194 7.10885 82.8265 6.90778 82.9152C6.5559 83.0713 6.46197 83.2499 6.46197 83.4562C6.46197 83.7367 6.62336 83.8266 6.72919 83.8266C6.8284 83.8266 6.90778 83.8266 6.99376 83.7988C7.19351 83.7327 7.34167 83.6388 7.4356 83.5277H7.44353C7.48454 83.7102 7.60095 83.8266 7.76102 83.8266C7.98855 83.8266 8.07321 83.6745 8.10893 83.607C8.13671 83.5634 8.12745 83.5409 8.11422 83.5277L8.06924 83.4919C8.05072 83.4787 8.04279 83.4866 8.02427 83.5091C8.00178 83.5409 7.9396 83.5766 7.86817 83.5766C7.78747 83.5766 7.73456 83.4959 7.73456 83.2419ZM7.40781 83.3398C7.40781 83.4602 7.17235 83.6163 7.04271 83.6163C6.90778 83.6163 6.80989 83.5356 6.80989 83.3702C6.80989 82.9998 7.24775 82.9112 7.40781 82.7908V83.3398ZM10.1408 82.3794C10.1408 82.2683 10.0284 82.0447 9.89478 81.9561C9.78763 81.8847 9.65005 81.8582 9.51512 81.8582C9.29288 81.8582 9.0336 82.0222 8.90396 82.1836H8.8947L8.86428 81.9111C8.85899 81.8754 8.84973 81.8582 8.82856 81.8582C8.81004 81.8582 8.78358 81.8714 8.74787 81.8886L8.36424 82.1029C8.34175 82.1122 8.32323 82.1254 8.32323 82.1479V82.1704C8.32323 82.1836 8.32852 82.1969 8.35895 82.2101L8.39466 82.2286C8.50711 82.2815 8.57854 82.3569 8.57854 82.4919V83.5356C8.57854 83.6123 8.54679 83.6255 8.48859 83.6255H8.35895C8.32323 83.6255 8.31397 83.6388 8.31397 83.6652V83.7459C8.31397 83.7724 8.32323 83.7856 8.34572 83.7856C8.37218 83.7856 8.51504 83.7724 8.74258 83.7724C8.97937 83.7724 9.09975 83.7856 9.13149 83.7856C9.15398 83.7856 9.16324 83.7724 9.16324 83.7459V83.6705C9.16324 83.6388 9.15398 83.6255 9.11827 83.6255H9.00715C8.91322 83.6255 8.89999 83.5991 8.89999 83.4787V82.554C8.89999 82.4694 8.91322 82.349 9.00185 82.2498C9.13546 82.1069 9.29288 82.0765 9.36432 82.0765C9.47544 82.0765 9.58259 82.0765 9.68974 82.1572C9.81938 82.2498 9.81938 82.3794 9.81938 82.558V83.148C9.81938 83.2631 9.81409 83.4073 9.81012 83.5224C9.80615 83.6031 9.77043 83.6255 9.72149 83.6255H9.59185C9.54687 83.6255 9.53364 83.6348 9.53364 83.6652V83.7367C9.53364 83.7724 9.5429 83.7856 9.56936 83.7856C9.59978 83.7856 9.74265 83.7724 9.97151 83.7724C10.2255 83.7724 10.3644 83.7856 10.3948 83.7856C10.4213 83.7856 10.4305 83.7684 10.4305 83.7367V83.6652C10.4305 83.6388 10.4213 83.6255 10.3816 83.6255H10.2387C10.1805 83.6255 10.1408 83.6031 10.1408 83.5316V82.3794ZM13.4705 83.8398C14.1001 83.8398 14.534 83.4787 14.8012 83.0898C14.8145 83.0673 14.8065 83.058 14.792 83.0488L14.7338 83.0051C14.7206 82.9919 14.7126 82.9959 14.6994 83.0184C14.493 83.3081 14.1001 83.5859 13.5961 83.5859C13.2972 83.5859 13.0432 83.5488 12.7389 83.2102C12.391 82.8265 12.3103 82.3225 12.3103 82.0633C12.3063 81.4111 12.6278 80.7007 13.4268 80.7007C13.7787 80.7007 14.0155 80.8528 14.2033 81.0447C14.3912 81.2365 14.4891 81.4508 14.5512 81.5989C14.5645 81.6347 14.5737 81.6386 14.5962 81.6347L14.6637 81.6161C14.6809 81.6122 14.6848 81.5936 14.6809 81.5725C14.6584 81.4468 14.5697 80.7907 14.5697 80.706C14.5697 80.6438 14.5605 80.6346 14.5208 80.6346C14.4798 80.6346 14.4705 80.6346 14.4626 80.661L14.4269 80.7907C14.4176 80.8224 14.3951 80.8264 14.3369 80.7907C14.1769 80.6968 13.8422 80.5446 13.4361 80.5446C12.9493 80.5446 12.5471 80.755 12.3196 80.9957C11.9981 81.3357 11.8645 81.7643 11.8645 82.1783C11.8645 82.607 12.0206 83.1255 12.3421 83.4284C12.6093 83.6745 12.944 83.8398 13.4705 83.8398ZM16.5964 82.5858C16.6678 82.5858 16.7207 82.5765 16.7207 82.5144C16.7207 82.3397 16.5778 81.8582 16.0646 81.8582C15.841 81.8582 15.6188 81.8979 15.427 82.0937C15.1902 82.3305 15.1452 82.6294 15.1452 82.8041C15.1452 83.1163 15.1849 83.2816 15.341 83.5091C15.5063 83.7499 15.7881 83.8266 16.0421 83.8266C16.4403 83.8266 16.6718 83.5184 16.7525 83.3398C16.7749 83.2909 16.7657 83.2776 16.7525 83.2723L16.6943 83.2419C16.681 83.2366 16.6625 83.2459 16.6546 83.2631C16.5778 83.4112 16.386 83.5673 16.1135 83.5673C15.7563 83.5673 15.4799 83.2366 15.4799 82.8001C15.4799 82.6969 15.4838 82.6255 15.4931 82.5858H16.5964ZM15.5116 82.4509C15.5963 82.1215 15.7841 81.9918 15.9799 81.9918C16.2696 81.9918 16.3239 82.2855 16.3239 82.3887C16.3239 82.4284 16.2881 82.4509 16.2035 82.4509H15.5116ZM18.8823 82.3794C18.8823 82.2683 18.7698 82.0447 18.6362 81.9561C18.5291 81.8847 18.3902 81.8582 18.2565 81.8582C18.033 81.8582 17.775 82.0222 17.6454 82.1836H17.6361L17.6044 81.9111C17.6004 81.8754 17.5911 81.8582 17.5687 81.8582C17.5515 81.8582 17.525 81.8714 17.4893 81.8886L17.1043 82.1029C17.0832 82.1122 17.0647 82.1254 17.0647 82.1479V82.1704C17.0647 82.1836 17.0686 82.1969 17.1004 82.2101L17.1361 82.2286C17.2472 82.2815 17.3186 82.3569 17.3186 82.4919V83.5356C17.3186 83.6123 17.2882 83.6255 17.23 83.6255H17.1004C17.0647 83.6255 17.0554 83.6388 17.0554 83.6652V83.7459C17.0554 83.7724 17.0647 83.7856 17.0871 83.7856C17.1136 83.7856 17.2565 83.7724 17.484 83.7724C17.7208 83.7724 17.8412 83.7856 17.8729 83.7856C17.8954 83.7856 17.9033 83.7724 17.9033 83.7459V83.6705C17.9033 83.6388 17.8954 83.6255 17.8597 83.6255H17.7472C17.6546 83.6255 17.6401 83.5991 17.6401 83.4787V82.554C17.6401 82.4694 17.6546 82.349 17.7433 82.2498C17.8769 82.1069 18.033 82.0765 18.1044 82.0765C18.2169 82.0765 18.324 82.0765 18.4312 82.1572C18.5608 82.2498 18.5608 82.3794 18.5608 82.558V83.148C18.5608 83.2631 18.5555 83.4073 18.5515 83.5224C18.5462 83.6031 18.5105 83.6255 18.4616 83.6255H18.3319C18.2883 83.6255 18.2751 83.6348 18.2751 83.6652V83.7367C18.2751 83.7724 18.283 83.7856 18.3108 83.7856C18.3412 83.7856 18.4841 83.7724 18.7116 83.7724C18.9669 83.7724 19.1045 83.7856 19.1362 83.7856C19.1627 83.7856 19.172 83.7684 19.172 83.7367V83.6652C19.172 83.6388 19.1627 83.6255 19.123 83.6255H18.9801C18.9219 83.6255 18.8823 83.6031 18.8823 83.5316V82.3794ZM20.0106 82.7683C20.0106 82.5633 20.0159 82.3437 20.0252 82.1387H20.6006C20.6271 82.1387 20.6364 82.1254 20.6403 82.1029L20.6853 81.9468C20.6946 81.9296 20.6813 81.9072 20.6536 81.9072H20.0331L20.0556 81.4693C20.0556 81.4336 20.0464 81.4018 20.0106 81.4018C19.9842 81.4018 19.9617 81.4111 19.9485 81.4468C19.8903 81.5989 19.5463 81.9429 19.4392 82.0051C19.3863 82.0368 19.3598 82.05 19.3598 82.0857C19.3598 82.1215 19.3863 82.1387 19.4259 82.1387H19.6985C19.6945 82.3265 19.6892 82.6294 19.6892 82.7101V82.808C19.6892 82.8702 19.676 83.2631 19.676 83.447C19.676 83.6163 19.8903 83.8266 20.1099 83.8266C20.3771 83.8266 20.561 83.6917 20.6046 83.648C20.6178 83.6348 20.6271 83.6163 20.6139 83.5991L20.5914 83.5581C20.5782 83.5409 20.561 83.5356 20.5385 83.5488C20.475 83.5898 20.3467 83.607 20.2435 83.607C20.1628 83.607 20.0106 83.5488 20.0106 83.2141V82.7683ZM21.1139 83.0051C21.1139 83.2366 21.1139 83.3927 21.1099 83.5409C21.1099 83.5991 21.0782 83.6255 21.0107 83.6255H20.8374C20.7964 83.6255 20.7885 83.6348 20.7885 83.6652V83.742C20.7885 83.7777 20.7964 83.7856 20.8149 83.7856C20.8414 83.7856 21.0292 83.7724 21.3057 83.7724C21.5465 83.7724 21.7528 83.7856 21.7793 83.7856C21.7965 83.7856 21.8018 83.7724 21.8018 83.7459V83.6652C21.8018 83.6388 21.7965 83.6255 21.77 83.6255H21.561C21.4671 83.6255 21.4354 83.5806 21.4354 83.4417V82.5144C21.4354 82.4998 21.4539 82.4204 21.4803 82.3715C21.5557 82.2286 21.6722 82.1836 21.7436 82.1836C21.8018 82.1836 21.8547 82.1969 21.8904 82.2194C21.9261 82.2366 21.9711 82.2551 22.0201 82.2551C22.1008 82.2551 22.2079 82.1651 22.2079 82.0368C22.2079 81.9336 22.1312 81.8397 21.9804 81.8397C21.7886 81.8397 21.5782 82.0222 21.4446 82.2286H21.4261L21.4036 81.9111C21.4036 81.8847 21.3996 81.8582 21.3732 81.8582C21.3547 81.8582 21.3375 81.8622 21.311 81.8754L20.8679 82.1029C20.8414 82.1162 20.8321 82.1254 20.8321 82.144V82.1704C20.8321 82.1876 20.8414 82.1929 20.8679 82.2008L20.9538 82.2458C21.0782 82.3133 21.1139 82.3569 21.1139 82.5858V83.0051ZM23.7252 83.2419V82.2948C23.7252 82.1744 23.7213 82.0712 23.6273 81.9786C23.5652 81.9204 23.4805 81.8582 23.2702 81.8582C23.0691 81.8582 22.913 81.9019 22.7251 82.0143C22.5426 82.1215 22.4169 82.2908 22.4169 82.4337C22.4169 82.5355 22.4526 82.5765 22.5241 82.5765C22.7079 82.5765 22.7609 82.4786 22.7609 82.3225C22.7609 82.2418 22.7212 82.1744 22.7833 82.1162C22.8455 82.058 22.9844 82.0223 23.0744 82.0223C23.2027 82.0223 23.2927 82.0633 23.3416 82.1215C23.3905 82.1783 23.3958 82.2948 23.4038 82.3715V82.6572C23.3323 82.7194 23.1008 82.8265 22.8998 82.9152C22.5466 83.0713 22.4526 83.2499 22.4526 83.4562C22.4526 83.7367 22.614 83.8266 22.7212 83.8266C22.8191 83.8266 22.8998 83.8266 22.9844 83.7988C23.1855 83.7327 23.3323 83.6388 23.4263 83.5277H23.4355C23.4752 83.7102 23.5916 83.8266 23.753 83.8266C23.9805 83.8266 24.0652 83.6745 24.1009 83.607C24.1274 83.5634 24.1181 83.5409 24.1049 83.5277L24.0599 83.4919C24.0427 83.4787 24.0334 83.4866 24.0163 83.5091C23.9938 83.5409 23.9316 83.5766 23.8602 83.5766C23.7795 83.5766 23.7252 83.4959 23.7252 83.2419ZM23.3998 83.3398C23.3998 83.4602 23.163 83.6163 23.0334 83.6163C22.8998 83.6163 22.8019 83.5356 22.8019 83.3702C22.8019 82.9998 23.2384 82.9112 23.3998 82.7908V83.3398ZM24.8814 82.0447C24.8814 81.8 24.8946 80.8714 24.8999 80.6253C24.9039 80.5671 24.8946 80.5446 24.8642 80.5446C24.8377 80.5446 24.81 80.5539 24.7703 80.5803C24.6049 80.6875 24.4038 80.7682 24.2478 80.8396C24.2213 80.8489 24.2081 80.8581 24.2081 80.8714V80.9071C24.2081 80.915 24.212 80.9203 24.2345 80.9296L24.3245 80.96C24.4673 81.005 24.5375 81.0764 24.5467 81.2285C24.556 81.3436 24.5599 81.7511 24.5599 82.0672V82.349C24.5599 82.607 24.5599 83.3755 24.556 83.5131C24.552 83.5938 24.507 83.6255 24.4581 83.6255H24.2438C24.1948 83.6255 24.1856 83.6348 24.1856 83.6652V83.742C24.1856 83.7684 24.1948 83.7856 24.2173 83.7856C24.257 83.7856 24.4356 83.7724 24.7213 83.7724C24.9978 83.7724 25.1949 83.7856 25.2253 83.7856C25.2439 83.7856 25.2531 83.7684 25.2531 83.742V83.6652C25.2531 83.6388 25.2439 83.6255 25.2029 83.6255H25.0018C24.9092 83.6255 24.8907 83.5634 24.8867 83.4866C24.8814 83.3491 24.8814 82.6744 24.8814 82.4429V82.0447ZM28.4849 82.5315C28.547 82.7101 28.7296 83.2816 28.7653 83.4417C28.797 83.5673 28.7574 83.6123 28.6317 83.6123H28.5206C28.4928 83.6123 28.4796 83.6163 28.4796 83.6427V83.7459C28.4796 83.7724 28.4928 83.7856 28.5153 83.7856C28.6185 83.7856 28.7746 83.7724 29.145 83.7724C29.5061 83.7724 29.6 83.7856 29.6807 83.7856C29.7125 83.7856 29.7257 83.7777 29.7257 83.7552V83.6427C29.7257 83.6255 29.7164 83.6123 29.69 83.6123H29.5418C29.4307 83.6123 29.3143 83.5581 29.2389 83.4112C29.1767 83.2816 28.8857 82.4509 28.7838 82.1029C28.6992 81.8172 28.3499 80.8171 28.2653 80.5367C28.252 80.4864 28.2428 80.46 28.2163 80.46C28.1938 80.46 28.1806 80.4785 28.1581 80.501C28.1092 80.5631 27.9134 80.6967 27.7877 80.7232C27.7573 80.7325 27.748 80.751 27.748 80.7642C27.748 80.7814 27.7652 80.8039 27.7784 80.8224C27.8102 80.8714 27.7877 80.9296 27.7745 80.9732C27.7348 81.0936 27.3723 82.054 27.3419 82.144C27.2123 82.5091 26.8868 83.3345 26.8551 83.4073C26.7929 83.5488 26.7294 83.6123 26.5958 83.6123H26.4397C26.4225 83.6123 26.404 83.6203 26.404 83.6427V83.7499C26.404 83.7777 26.4133 83.7856 26.4358 83.7856C26.4979 83.7856 26.5958 83.7724 26.9226 83.7724C27.1858 83.7724 27.3684 83.7856 27.4305 83.7856C27.453 83.7856 27.4663 83.7777 27.4663 83.7459V83.6427C27.4663 83.6203 27.453 83.6123 27.4213 83.6123H27.2123C27.1144 83.6123 27.0601 83.5766 27.0601 83.5131C27.0601 83.4919 27.0694 83.447 27.0734 83.4152C27.0959 83.3213 27.3419 82.6427 27.3869 82.5315H28.4849ZM27.4438 82.3715C27.4755 82.259 27.9002 81.1161 27.9226 81.0579C27.9359 81.0222 27.9531 80.9917 27.9716 80.9917C27.9848 80.9917 27.9928 81.0222 28.0073 81.0539C28.0298 81.1214 28.3909 82.2366 28.4306 82.3715H27.4438ZM30.4665 83.8266C30.8461 83.8266 31.1411 83.5991 31.1451 83.2366C31.1411 82.8927 30.9348 82.7591 30.6094 82.6652C30.3911 82.603 30.1808 82.554 30.1808 82.2948C30.1808 82.1029 30.3554 81.9998 30.5247 81.9998C30.6993 81.9998 30.784 82.0897 30.8369 82.1744L30.989 82.3794C31.0022 82.4019 31.0115 82.4072 31.0287 82.4019L31.0829 82.3847C31.1054 82.3755 31.1134 82.3622 31.1134 82.3437L31.0472 82.0315C31.0419 82.0051 31.034 81.9826 30.9665 81.9508C30.8858 81.9111 30.7707 81.8582 30.5564 81.8582C30.2204 81.8582 29.9307 82.0937 29.9307 82.4019C29.9307 82.7551 30.194 82.8927 30.4572 82.9694C30.7919 83.0633 30.8911 83.1784 30.8911 83.3795C30.8911 83.5898 30.694 83.6838 30.5379 83.6838C30.3011 83.6838 30.239 83.5713 30.149 83.4073L30.0379 83.1877C30.0286 83.1652 30.0154 83.1559 29.9982 83.1612L29.94 83.1745C29.9215 83.1784 29.9082 83.1877 29.9135 83.2102L29.9889 83.6348C29.9929 83.656 29.9929 83.6838 30.0154 83.697C30.0696 83.7367 30.2482 83.8266 30.4665 83.8266ZM31.7708 83.1295C31.7708 83.2631 31.7708 83.402 31.7655 83.5356C31.7616 83.607 31.743 83.6255 31.6941 83.6255H31.4758C31.4441 83.6255 31.4308 83.6348 31.4308 83.6613V83.7499C31.4308 83.7777 31.4441 83.7856 31.4666 83.7856C31.5155 83.7856 31.6901 83.7724 31.9494 83.7724C32.1359 83.7724 32.3423 83.7856 32.378 83.7856C32.4084 83.7856 32.4177 83.7724 32.4177 83.742V83.6652C32.4177 83.6388 32.4084 83.6255 32.3727 83.6255H32.1677C32.1187 83.6255 32.1055 83.5938 32.0962 83.5091C32.0923 83.4602 32.0923 83.3001 32.0923 83.1255V82.6387C32.0923 82.2683 32.0923 81.9865 32.1002 81.9111C32.1055 81.8794 32.1002 81.8582 32.0777 81.8582C32.0513 81.8582 32.0288 81.8662 31.9931 81.8847C31.8237 81.9786 31.6544 82.05 31.5115 82.1029C31.4891 82.1122 31.4798 82.1215 31.4798 82.1347V82.1744C31.4798 82.1929 31.4891 82.2008 31.5208 82.2061C31.743 82.2418 31.7708 82.3225 31.7708 82.4733V83.1295ZM31.8145 81.3529C32.0023 81.3529 32.083 81.21 32.083 81.0896C32.083 80.9865 32.0063 80.8528 31.8423 80.8528C31.6584 80.8528 31.5605 80.9865 31.5605 81.1029C31.5605 81.251 31.7126 81.3529 31.8145 81.3529ZM34.0064 83.2419V82.2948C34.0064 82.1744 34.0025 82.0712 33.9086 81.9786C33.8464 81.9204 33.7617 81.8582 33.5514 81.8582C33.3503 81.8582 33.1942 81.9019 33.0064 82.0143C32.8238 82.1215 32.6995 82.2908 32.6995 82.4337C32.6995 82.5355 32.7352 82.5765 32.8066 82.5765C32.9892 82.5765 33.0421 82.4786 33.0421 82.3225C33.0421 82.2418 33.0024 82.1744 33.0646 82.1162C33.1281 82.058 33.2656 82.0223 33.3556 82.0223C33.4852 82.0223 33.5739 82.0633 33.6228 82.1215C33.6718 82.1783 33.6771 82.2948 33.685 82.3715V82.6572C33.6136 82.7194 33.3821 82.8265 33.181 82.9152C32.8278 83.0713 32.7352 83.2499 32.7352 83.4562C32.7352 83.7367 32.8952 83.8266 33.0024 83.8266C33.1003 83.8266 33.181 83.8266 33.2656 83.7988C33.4667 83.7327 33.6136 83.6388 33.7075 83.5277H33.7167C33.7564 83.7102 33.8728 83.8266 34.0342 83.8266C34.2618 83.8266 34.3464 83.6745 34.3821 83.607C34.4086 83.5634 34.3993 83.5409 34.3861 83.5277L34.3425 83.4919C34.3239 83.4787 34.3147 83.4866 34.2975 83.5091C34.275 83.5409 34.2128 83.5766 34.1414 83.5766C34.0607 83.5766 34.0064 83.4959 34.0064 83.2419ZM33.681 83.3398C33.681 83.4602 33.4442 83.6163 33.3146 83.6163C33.181 83.6163 33.0831 83.5356 33.0831 83.3702C33.0831 82.9998 33.521 82.9112 33.681 82.7908V83.3398ZM36.172 82.0937C36.172 82.8623 36.1627 83.4245 36.1548 83.5131C36.1495 83.5938 36.1138 83.6123 35.9973 83.6123H35.7976C35.7791 83.6123 35.7658 83.6163 35.7658 83.6348V83.7552C35.7658 83.7777 35.7751 83.7856 35.7923 83.7856C35.8598 83.7856 36.0291 83.7724 36.377 83.7724C36.762 83.7724 36.9405 83.7856 36.9842 83.7856C37.012 83.7856 37.0199 83.7777 37.0199 83.7499V83.6388C37.0199 83.6203 37.0067 83.6123 36.9802 83.6123H36.762C36.6098 83.6123 36.5873 83.5898 36.5873 83.4695C36.5873 83.402 36.582 82.6519 36.582 82.5183V82.353C36.6548 82.353 36.9802 82.353 37.1906 82.3794C37.2884 82.3926 37.3414 82.4469 37.3731 82.554C37.3863 82.603 37.4181 82.7366 37.4221 82.7723C37.426 82.7948 37.4313 82.808 37.4538 82.8041L37.5385 82.7855C37.561 82.7816 37.5689 82.7723 37.5689 82.7498C37.561 82.6612 37.5464 82.4469 37.5464 82.2855C37.5464 82.2233 37.5464 81.8529 37.5557 81.7775C37.5557 81.759 37.5464 81.7458 37.5292 81.7458L37.4393 81.7418C37.4221 81.7418 37.4128 81.755 37.4088 81.7722C37.3956 81.8529 37.3771 81.9468 37.3638 81.9918C37.3242 82.1294 37.266 82.1704 37.1681 82.1876C37.1138 82.1969 36.6455 82.2101 36.582 82.2101V81.9865C36.582 81.7153 36.5873 80.8171 36.5873 80.7589C36.7209 80.7589 37.4313 80.7722 37.5424 80.7999C37.6721 80.8304 37.7792 80.9071 37.8546 81.0089C37.9843 81.1836 38.1007 81.3489 38.1404 81.4204C38.1536 81.4468 38.1629 81.4561 38.1761 81.4508L38.2568 81.4204C38.266 81.4151 38.27 81.4071 38.266 81.3886C38.2343 81.2722 38.1007 80.6703 38.0875 80.5936C38.016 80.6161 36.4484 80.6121 36.373 80.6121C36.1587 80.6121 36.0066 80.6081 35.9047 80.6028C35.8016 80.6028 35.7486 80.5989 35.7209 80.5989C35.7037 80.5989 35.6904 80.6081 35.6904 80.6253V80.7457C35.6904 80.7642 35.7037 80.7721 35.7209 80.7721H35.9801C36.1005 80.7721 36.1627 80.8171 36.1627 80.9018C36.1627 80.956 36.172 81.5857 36.172 81.7815V82.0937ZM38.4883 83.0051C38.4883 83.2366 38.4883 83.3927 38.4843 83.5409C38.4843 83.5991 38.4539 83.6255 38.3864 83.6255H38.2118C38.1721 83.6255 38.1629 83.6348 38.1629 83.6652V83.742C38.1629 83.7777 38.1721 83.7856 38.1893 83.7856C38.2171 83.7856 38.4036 83.7724 38.6814 83.7724C38.9222 83.7724 39.1272 83.7856 39.1537 83.7856C39.1722 83.7856 39.1762 83.7724 39.1762 83.7459V83.6652C39.1762 83.6388 39.1722 83.6255 39.1457 83.6255H38.9354C38.8415 83.6255 38.8097 83.5806 38.8097 83.4417V82.5144C38.8097 82.4998 38.8283 82.4204 38.8547 82.3715C38.9314 82.2286 39.0465 82.1836 39.118 82.1836C39.1762 82.1836 39.2304 82.1969 39.2661 82.2194C39.3018 82.2366 39.3455 82.2551 39.3958 82.2551C39.4751 82.2551 39.5823 82.1651 39.5823 82.0368C39.5823 81.9336 39.5069 81.8397 39.3547 81.8397C39.1629 81.8397 38.9526 82.0222 38.819 82.2286H38.8018L38.7793 81.9111C38.7793 81.8847 38.774 81.8582 38.7476 81.8582C38.7304 81.8582 38.7118 81.8622 38.6854 81.8754L38.2435 82.1029C38.2171 82.1162 38.2078 82.1254 38.2078 82.144V82.1704C38.2078 82.1876 38.2171 82.1929 38.2435 82.2008L38.3282 82.2458C38.4539 82.3133 38.4883 82.3569 38.4883 82.5858V83.0051ZM40.0783 83.1295C40.0783 83.2631 40.0783 83.402 40.0744 83.5356C40.0691 83.607 40.0519 83.6255 40.0029 83.6255H39.7834C39.7529 83.6255 39.7384 83.6348 39.7384 83.6613V83.7499C39.7384 83.7777 39.7529 83.7856 39.7741 83.7856C39.8244 83.7856 39.9977 83.7724 40.2569 83.7724C40.4448 83.7724 40.6498 83.7856 40.6855 83.7856C40.7173 83.7856 40.7252 83.7724 40.7252 83.742V83.6652C40.7252 83.6388 40.7173 83.6255 40.6816 83.6255H40.4752C40.4263 83.6255 40.413 83.5938 40.4038 83.5091C40.3998 83.4602 40.3998 83.3001 40.3998 83.1255V82.6387C40.3998 82.2683 40.3998 81.9865 40.4091 81.9111C40.413 81.8794 40.4091 81.8582 40.3866 81.8582C40.3601 81.8582 40.3376 81.8662 40.3019 81.8847C40.1313 81.9786 39.9619 82.05 39.8191 82.1029C39.7966 82.1122 39.7886 82.1215 39.7886 82.1347V82.1744C39.7886 82.1929 39.7966 82.2008 39.8283 82.2061C40.0519 82.2418 40.0783 82.3225 40.0783 82.4733V83.1295ZM40.1233 81.3529C40.3098 81.3529 40.3905 81.21 40.3905 81.0896C40.3905 80.9865 40.3151 80.8528 40.1498 80.8528C39.9672 80.8528 39.868 80.9865 39.868 81.1029C39.868 81.251 40.0201 81.3529 40.1233 81.3529ZM42.4317 82.5858C42.5031 82.5858 42.5561 82.5765 42.5561 82.5144C42.5561 82.3397 42.4132 81.8582 41.8999 81.8582C41.6764 81.8582 41.4528 81.8979 41.261 82.0937C41.0242 82.3305 40.9805 82.6294 40.9805 82.8041C40.9805 83.1163 41.0202 83.2816 41.1763 83.5091C41.3417 83.7499 41.6234 83.8266 41.8774 83.8266C42.2743 83.8266 42.5071 83.5184 42.5878 83.3398C42.6103 83.2909 42.601 83.2776 42.5878 83.2723L42.5296 83.2419C42.5164 83.2366 42.4978 83.2459 42.4886 83.2631C42.4132 83.4112 42.2214 83.5673 41.9489 83.5673C41.5917 83.5673 41.3152 83.2366 41.3152 82.8001C41.3152 82.6969 41.3192 82.6255 41.3284 82.5858H42.4317ZM41.3456 82.4509C41.4316 82.1215 41.6181 81.9918 41.8153 81.9918C42.105 81.9918 42.1592 82.2855 42.1592 82.3887C42.1592 82.4284 42.1235 82.4509 42.0388 82.4509H41.3456ZM44.7163 82.3794C44.7163 82.2683 44.6052 82.0447 44.4715 81.9561C44.3644 81.8847 44.2255 81.8582 44.0919 81.8582C43.8683 81.8582 43.6104 82.0222 43.4807 82.1836H43.4715L43.4397 81.9111C43.4358 81.8754 43.4265 81.8582 43.404 81.8582C43.3868 81.8582 43.3604 81.8714 43.3246 81.8886L42.9397 82.1029C42.9172 82.1122 42.9 82.1254 42.9 82.1479V82.1704C42.9 82.1836 42.904 82.1969 42.9357 82.2101L42.9714 82.2286C43.0826 82.2815 43.154 82.3569 43.154 82.4919V83.5356C43.154 83.6123 43.1236 83.6255 43.0653 83.6255H42.9357C42.9 83.6255 42.8907 83.6388 42.8907 83.6652V83.7459C42.8907 83.7724 42.9 83.7856 42.9225 83.7856C42.9489 83.7856 43.0918 83.7724 43.3193 83.7724C43.5561 83.7724 43.6765 83.7856 43.7083 83.7856C43.7307 83.7856 43.7387 83.7724 43.7387 83.7459V83.6705C43.7387 83.6388 43.7307 83.6255 43.695 83.6255H43.5826C43.4887 83.6255 43.4754 83.5991 43.4754 83.4787V82.554C43.4754 82.4694 43.4887 82.349 43.5786 82.2498C43.7122 82.1069 43.8683 82.0765 43.9398 82.0765C44.0522 82.0765 44.1594 82.0765 44.2665 82.1572C44.3948 82.2498 44.3948 82.3794 44.3948 82.558V83.148C44.3948 83.2631 44.3909 83.4073 44.3869 83.5224C44.3816 83.6031 44.3459 83.6255 44.2969 83.6255H44.1673C44.1236 83.6255 44.1091 83.6348 44.1091 83.6652V83.7367C44.1091 83.7724 44.1183 83.7856 44.1448 83.7856C44.1766 83.7856 44.3194 83.7724 44.547 83.7724C44.8023 83.7724 44.9398 83.7856 44.9716 83.7856C44.998 83.7856 45.0073 83.7684 45.0073 83.7367V83.6652C45.0073 83.6388 44.998 83.6255 44.9584 83.6255H44.8155C44.7573 83.6255 44.7163 83.6031 44.7163 83.5316V82.3794Z" fill="#787A7C"></path> <path d="M46.7125 81.9244C46.5789 81.8847 46.4175 81.8582 46.2349 81.8582C45.9849 81.8582 45.7441 81.9508 45.5695 82.1387C45.3592 82.349 45.2573 82.6215 45.2573 82.898C45.2573 83.1969 45.3102 83.398 45.5378 83.6203C45.7481 83.8346 45.9174 83.8266 46.0656 83.8266C46.2931 83.8266 46.5789 83.7274 46.7217 83.5859L46.7799 83.7816C46.7879 83.8134 46.8104 83.8266 46.8368 83.8174L47.3421 83.648C47.3686 83.6388 47.3779 83.6255 47.3726 83.5991L47.3646 83.5634C47.3554 83.5409 47.3369 83.5356 47.2747 83.5316C47.2125 83.5277 47.1186 83.4999 47.0789 83.4562C47.0432 83.4112 47.0339 83.2141 47.0339 83.0488V82.0633C47.0339 81.4958 47.0379 80.8489 47.0511 80.6253C47.0564 80.5764 47.0511 80.5446 47.0286 80.5446C46.9982 80.5446 46.9665 80.5539 46.9268 80.5578C46.8421 80.5764 46.6093 80.6161 46.436 80.6518C46.4082 80.6571 46.4003 80.665 46.4003 80.6835V80.7589C46.4003 80.7774 46.4042 80.7867 46.4307 80.7907C46.6807 80.8304 46.7125 80.8846 46.7125 81.0539V81.9244ZM46.7125 83.2366C46.7125 83.2856 46.7085 83.3213 46.686 83.3888C46.641 83.5052 46.4492 83.6348 46.1992 83.6348C45.9399 83.6348 45.592 83.2684 45.592 82.7644C45.592 82.5937 45.6238 82.3569 45.797 82.1704C45.9135 82.05 46.0656 82.009 46.2032 82.009C46.4664 82.009 46.6093 82.1294 46.6715 82.2498C46.7125 82.3225 46.7125 82.4072 46.7125 82.4694V83.2366ZM48.1583 83.8266C48.538 83.8266 48.833 83.5991 48.837 83.2366C48.833 82.8927 48.628 82.7591 48.3012 82.6652C48.0829 82.603 47.8726 82.554 47.8726 82.2948C47.8726 82.1029 48.0472 81.9998 48.2165 81.9998C48.3912 81.9998 48.4758 82.0897 48.5287 82.1744L48.6809 82.3794C48.6941 82.4019 48.7034 82.4072 48.7206 82.4019L48.7748 82.3847C48.7973 82.3755 48.8065 82.3622 48.8065 82.3437L48.7391 82.0315C48.7351 82.0051 48.7258 81.9826 48.6584 81.9508C48.5777 81.9111 48.4626 81.8582 48.2483 81.8582C47.9136 81.8582 47.6226 82.0937 47.6226 82.4019C47.6226 82.7551 47.8858 82.8927 48.1491 82.9694C48.4851 83.0633 48.583 83.1784 48.583 83.3795C48.583 83.5898 48.3859 83.6838 48.2298 83.6838C47.993 83.6838 47.9308 83.5713 47.8422 83.4073L47.7297 83.1877C47.7218 83.1652 47.7073 83.1559 47.6901 83.1612L47.6318 83.1745C47.6146 83.1784 47.6001 83.1877 47.6054 83.2102L47.6808 83.6348C47.6861 83.656 47.6861 83.6838 47.7073 83.697C47.7615 83.7367 47.9401 83.8266 48.1583 83.8266ZM49.4442 82.6876C49.4442 82.9774 49.4442 83.4695 49.4309 83.5541C49.4217 83.607 49.3555 83.6255 49.2841 83.6255H49.1902C49.1412 83.6255 49.1227 83.6295 49.1227 83.6613V83.742C49.1227 83.7724 49.1359 83.7856 49.1545 83.7856C49.1941 83.7856 49.3635 83.7724 49.587 83.7724C49.7921 83.7724 49.9759 83.7856 50.0117 83.7856C50.0381 83.7856 50.0474 83.7684 50.0474 83.7367V83.6613C50.0474 83.6348 50.0289 83.6255 49.9984 83.6255H49.8635C49.7788 83.6255 49.7656 83.5859 49.7656 83.4417V82.4694C49.7656 82.3887 49.8146 82.3 49.8556 82.2498C49.9799 82.1069 50.1413 82.0633 50.2709 82.0633C50.3821 82.0633 50.476 82.1029 50.5646 82.1876C50.6943 82.308 50.7128 82.4866 50.7128 82.7366V83.0991C50.7128 83.2419 50.7167 83.4787 50.7128 83.5409C50.7075 83.6163 50.6189 83.6255 50.5421 83.6255H50.4403C50.4138 83.6255 50.4085 83.6388 50.4085 83.6613V83.7367C50.4085 83.7724 50.4178 83.7856 50.4495 83.7856C50.4892 83.7856 50.6493 83.7724 50.8689 83.7724C51.1229 83.7724 51.2657 83.7856 51.2975 83.7856C51.3239 83.7856 51.3332 83.7684 51.3332 83.7327V83.6652C51.3332 83.6348 51.32 83.6255 51.2842 83.6255H51.2075C51.1136 83.6255 51.0422 83.6123 51.0422 83.5581C51.0422 83.4734 51.0342 83.1969 51.0342 82.9469V82.6929C51.0342 82.4509 51.0422 82.2233 50.8424 82.0368C50.7167 81.9151 50.5871 81.8582 50.3993 81.8582C50.2035 81.8582 49.9442 81.9601 49.7881 82.1479H49.7656V81.8622C49.7656 81.6386 49.7709 80.7325 49.7788 80.6571C49.7881 80.5803 49.7709 80.5446 49.7431 80.5446C49.7074 80.5446 49.677 80.5631 49.6413 80.5803L49.1769 80.8264C49.1359 80.8489 49.1227 80.8528 49.1227 80.8714V80.9111C49.1227 80.9243 49.128 80.9296 49.1545 80.9375L49.2299 80.9653C49.3912 81.0182 49.4442 81.0671 49.4442 81.3397V82.6876ZM51.869 83.1295C51.869 83.2631 51.8689 83.402 51.8637 83.5356C51.8597 83.607 51.8412 83.6255 51.7922 83.6255H51.574C51.5422 83.6255 51.529 83.6348 51.529 83.6613V83.7499C51.529 83.7777 51.5422 83.7856 51.5647 83.7856C51.6136 83.7856 51.7883 83.7724 52.0475 83.7724C52.2341 83.7724 52.4404 83.7856 52.4761 83.7856C52.5066 83.7856 52.5158 83.7724 52.5158 83.742V83.6652C52.5158 83.6388 52.5066 83.6255 52.4708 83.6255H52.2658C52.2169 83.6255 52.2036 83.5938 52.1944 83.5091C52.1904 83.4602 52.1904 83.3001 52.1904 83.1255V82.6387C52.1904 82.2683 52.1904 81.9865 52.1983 81.9111C52.2036 81.8794 52.1983 81.8582 52.1772 81.8582C52.1494 81.8582 52.1269 81.8662 52.0912 81.8847C51.9219 81.9786 51.7525 82.05 51.6097 82.1029C51.5872 82.1122 51.5779 82.1215 51.5779 82.1347V82.1744C51.5779 82.1929 51.5872 82.2008 51.6189 82.2061C51.8412 82.2418 51.869 82.3225 51.869 82.4733V83.1295ZM51.9126 81.3529C52.1004 81.3529 52.1811 81.21 52.1811 81.0896C52.1811 80.9865 52.1057 80.8528 51.9404 80.8528C51.7565 80.8528 51.6586 80.9865 51.6586 81.1029C51.6586 81.251 51.8107 81.3529 51.9126 81.3529ZM53.0026 83.951C53.0026 84.3888 53.0026 84.6296 52.9894 84.7275C52.9801 84.795 52.9709 84.8399 52.8955 84.8399H52.7209C52.6772 84.8399 52.668 84.8571 52.668 84.8796V84.9603C52.668 84.9868 52.6772 85 52.7076 85C52.7434 85 52.8995 84.9868 53.1587 84.9868C53.4445 84.9868 53.5966 85 53.6191 85C53.6495 85 53.6588 84.9868 53.6588 84.9603V84.8836C53.6588 84.8571 53.6548 84.8399 53.6191 84.8399H53.422C53.3558 84.8399 53.3241 84.8174 53.3241 84.6918V83.7499C53.463 83.8081 53.6495 83.8266 53.7699 83.8266C54.3281 83.8266 54.7343 83.357 54.7343 82.7723C54.7343 82.4284 54.6628 82.2458 54.4935 82.0765C54.3639 81.9561 54.213 81.8582 53.9842 81.8582C53.6852 81.8582 53.4537 81.9998 53.3333 82.1572H53.3201L53.3016 81.9429C53.3016 81.8754 53.2923 81.8529 53.2699 81.8529C53.2394 81.8529 53.2037 81.8714 53.168 81.8886L52.7394 82.1029C52.7169 82.1122 52.7076 82.1215 52.7076 82.1347V82.1704C52.7076 82.1836 52.7076 82.1969 52.7394 82.2101L52.8412 82.2683C52.9709 82.3397 53.0026 82.4019 53.0026 82.5091V83.951ZM53.3241 82.349C53.4312 82.1704 53.6138 82.0633 53.8016 82.0633C54.1006 82.0633 54.3824 82.3133 54.3824 82.9377C54.3824 83.4919 54.1191 83.6838 53.8638 83.6838C53.6813 83.6838 53.5424 83.652 53.418 83.5634C53.3333 83.5052 53.3241 83.4245 53.3241 83.3266V82.349ZM58.1102 82.5315C58.1723 82.7101 58.3549 83.2816 58.3906 83.4417C58.4224 83.5673 58.3814 83.6123 58.257 83.6123H58.1459C58.1181 83.6123 58.1049 83.6163 58.1049 83.6427V83.7459C58.1049 83.7724 58.1181 83.7856 58.1406 83.7856C58.2438 83.7856 58.3999 83.7724 58.7703 83.7724C59.1314 83.7724 59.2253 83.7856 59.306 83.7856C59.3378 83.7856 59.351 83.7777 59.351 83.7552V83.6427C59.351 83.6255 59.3418 83.6123 59.3153 83.6123H59.1671C59.056 83.6123 58.9396 83.5581 58.8642 83.4112C58.802 83.2816 58.511 82.4509 58.4091 82.1029C58.3245 81.8172 57.9752 80.8171 57.8906 80.5367C57.8774 80.4864 57.8681 80.46 57.8416 80.46C57.8191 80.46 57.8059 80.4785 57.7834 80.501C57.7345 80.5631 57.5387 80.6967 57.413 80.7232C57.3826 80.7325 57.3733 80.751 57.3733 80.7642C57.3733 80.7814 57.3905 80.8039 57.4038 80.8224C57.4355 80.8714 57.413 80.9296 57.3998 80.9732C57.3601 81.0936 56.9977 82.054 56.9672 82.144C56.8376 82.5091 56.5122 83.3345 56.4804 83.4073C56.4182 83.5488 56.3547 83.6123 56.2211 83.6123H56.065C56.0478 83.6123 56.0293 83.6203 56.0293 83.6427V83.7499C56.0293 83.7777 56.0386 83.7856 56.0611 83.7856C56.1232 83.7856 56.2211 83.7724 56.5479 83.7724C56.8111 83.7724 56.9937 83.7856 57.0559 83.7856C57.0783 83.7856 57.0916 83.7777 57.0916 83.7459V83.6427C57.0916 83.6203 57.0783 83.6123 57.0466 83.6123H56.8376C56.7397 83.6123 56.6855 83.5766 56.6855 83.5131C56.6855 83.4919 56.6947 83.447 56.6987 83.4152C56.7212 83.3213 56.9672 82.6427 57.0122 82.5315H58.1102ZM57.0691 82.3715C57.1008 82.259 57.5255 81.1161 57.548 81.0579C57.5612 81.0222 57.5784 80.9917 57.5969 80.9917C57.6101 80.9917 57.6181 81.0222 57.6326 81.0539C57.6538 81.1214 58.0163 82.2366 58.0559 82.3715H57.0691ZM60.0918 83.8266C60.4715 83.8266 60.7665 83.5991 60.7704 83.2366C60.7665 82.8927 60.5601 82.7591 60.2347 82.6652C60.0164 82.603 59.8061 82.554 59.8061 82.2948C59.8061 82.1029 59.9807 81.9998 60.15 81.9998C60.3233 81.9998 60.4093 82.0897 60.4622 82.1744L60.6143 82.3794C60.6276 82.4019 60.6368 82.4072 60.654 82.4019L60.7083 82.3847C60.7308 82.3755 60.7387 82.3622 60.7387 82.3437L60.6725 82.0315C60.6673 82.0051 60.6593 81.9826 60.5918 81.9508C60.5112 81.9111 60.3947 81.8582 60.1804 81.8582C59.8458 81.8582 59.5561 82.0937 59.5561 82.4019C59.5561 82.7551 59.8193 82.8927 60.0826 82.9694C60.4172 83.0633 60.5164 83.1784 60.5164 83.3795C60.5164 83.5898 60.3193 83.6838 60.1632 83.6838C59.9265 83.6838 59.8643 83.5713 59.7743 83.4073L59.6632 83.1877C59.6539 83.1652 59.6407 83.1559 59.6235 83.1612L59.5653 83.1745C59.5468 83.1784 59.5336 83.1877 59.5375 83.2102L59.6143 83.6348C59.6182 83.656 59.6182 83.6838 59.6407 83.697C59.695 83.7367 59.8735 83.8266 60.0918 83.8266ZM61.6806 83.8266C62.0602 83.8266 62.3552 83.5991 62.3592 83.2366C62.3552 82.8927 62.1502 82.7591 61.8234 82.6652C61.6052 82.603 61.3948 82.554 61.3948 82.2948C61.3948 82.1029 61.5694 81.9998 61.7388 81.9998C61.9134 81.9998 61.998 82.0897 62.0523 82.1744L62.2031 82.3794C62.2163 82.4019 62.2256 82.4072 62.2441 82.4019L62.297 82.3847C62.3195 82.3755 62.3288 82.3622 62.3288 82.3437L62.2613 82.0315C62.2573 82.0051 62.2481 81.9826 62.1806 81.9508C62.1012 81.9111 61.9848 81.8582 61.7705 81.8582C61.4358 81.8582 61.1448 82.0937 61.1448 82.4019C61.1448 82.7551 61.4094 82.8927 61.6726 82.9694C62.0073 83.0633 62.1052 83.1784 62.1052 83.3795C62.1052 83.5898 61.9094 83.6838 61.752 83.6838C61.5165 83.6838 61.453 83.5713 61.3644 83.4073L61.252 83.1877C61.244 83.1652 61.2308 83.1559 61.2123 83.1612L61.1541 83.1745C61.1369 83.1784 61.1236 83.1877 61.1276 83.2102L61.203 83.6348C61.2083 83.656 61.2083 83.6838 61.2308 83.697C61.2837 83.7367 61.4623 83.8266 61.6806 83.8266ZM63.6093 83.8266C64.1596 83.8266 64.5961 83.3306 64.5961 82.8437C64.5961 82.554 64.4943 82.3225 64.2932 82.1162C64.1596 81.9826 63.9135 81.8582 63.6675 81.8582C63.5207 81.8582 63.3024 81.8926 63.0696 82.0712C62.8063 82.2776 62.6859 82.5633 62.6859 82.7908C62.6859 83.107 62.7256 83.2723 62.9307 83.5184C63.1185 83.742 63.395 83.8266 63.6093 83.8266ZM63.6635 83.6917C63.4532 83.6917 63.3235 83.607 63.2217 83.4602C63.0788 83.2551 63.0524 83.0858 63.0524 82.8358C63.0524 82.4958 63.1145 82.3133 63.2878 82.1347C63.395 82.0183 63.5114 81.9918 63.6318 81.9918C63.8593 81.9918 64.2218 82.304 64.2218 82.8001C64.2218 83.2776 64.0022 83.6917 63.6635 83.6917ZM65.7708 81.9998C65.878 81.9998 65.9719 82.0143 66.0698 82.1969C66.1373 82.3172 66.2127 82.3755 66.3158 82.3755C66.4084 82.3755 66.4759 82.3225 66.4799 82.2194C66.4799 82.1254 66.337 81.8582 65.8727 81.8582C65.284 81.8582 64.9176 82.3847 64.9176 82.9072C64.9176 83.107 64.9533 83.2948 65.1187 83.5131C65.3237 83.7724 65.5737 83.8266 65.8105 83.8266C66.1148 83.8266 66.4005 83.656 66.5301 83.5091C66.5513 83.4827 66.5473 83.4695 66.5301 83.4509L66.4852 83.4073C66.4719 83.3927 66.4587 83.398 66.4494 83.4073C66.2973 83.5488 66.1809 83.5991 65.9587 83.5991C65.8065 83.5991 65.6187 83.5634 65.4719 83.3702C65.3515 83.2062 65.2443 82.9337 65.2443 82.6929C65.2443 82.2326 65.5168 81.9998 65.7708 81.9998ZM67.0434 83.1295C67.0434 83.2631 67.0434 83.402 67.0381 83.5356C67.0342 83.607 67.0156 83.6255 66.9667 83.6255H66.7484C66.7167 83.6255 66.7034 83.6348 66.7034 83.6613V83.7499C66.7034 83.7777 66.7167 83.7856 66.7392 83.7856C66.7881 83.7856 66.9627 83.7724 67.222 83.7724C67.4085 83.7724 67.6149 83.7856 67.6506 83.7856C67.681 83.7856 67.6903 83.7724 67.6903 83.742V83.6652C67.6903 83.6388 67.681 83.6255 67.6453 83.6255H67.4403C67.3913 83.6255 67.3781 83.5938 67.3688 83.5091C67.3649 83.4602 67.3649 83.3001 67.3649 83.1255V82.6387C67.3649 82.2683 67.3649 81.9865 67.3728 81.9111C67.3781 81.8794 67.3728 81.8582 67.3516 81.8582C67.3239 81.8582 67.3014 81.8662 67.2657 81.8847C67.0963 81.9786 66.927 82.05 66.7841 82.1029C66.7616 82.1122 66.7524 82.1215 66.7524 82.1347V82.1744C66.7524 82.1929 66.7616 82.2008 66.7934 82.2061C67.0156 82.2418 67.0434 82.3225 67.0434 82.4733V83.1295ZM67.0871 81.3529C67.2749 81.3529 67.3556 81.21 67.3556 81.0896C67.3556 80.9865 67.2789 80.8528 67.1148 80.8528C66.931 80.8528 66.8331 80.9865 66.8331 81.1029C66.8331 81.251 66.9852 81.3529 67.0871 81.3529ZM69.279 83.2419V82.2948C69.279 82.1744 69.2751 82.0712 69.1811 81.9786C69.119 81.9204 69.0343 81.8582 68.824 81.8582C68.6229 81.8582 68.4668 81.9019 68.279 82.0143C68.0964 82.1215 67.9721 82.2908 67.9721 82.4337C67.9721 82.5355 68.0078 82.5765 68.0792 82.5765C68.2618 82.5765 68.3147 82.4786 68.3147 82.3225C68.3147 82.2418 68.275 82.1744 68.3372 82.1162C68.4007 82.058 68.5382 82.0223 68.6282 82.0223C68.7565 82.0223 68.8465 82.0633 68.8954 82.1215C68.9444 82.1783 68.9496 82.2948 68.9576 82.3715V82.6572C68.8861 82.7194 68.6546 82.8265 68.4536 82.9152C68.1004 83.0713 68.0078 83.2499 68.0078 83.4562C68.0078 83.7367 68.1678 83.8266 68.275 83.8266C68.3729 83.8266 68.4536 83.8266 68.5382 83.7988C68.7393 83.7327 68.8861 83.6388 68.9801 83.5277H68.9893C69.029 83.7102 69.1454 83.8266 69.3068 83.8266C69.5343 83.8266 69.619 83.6745 69.6547 83.607C69.6812 83.5634 69.6719 83.5409 69.6587 83.5277L69.6137 83.4919C69.5965 83.4787 69.5873 83.4866 69.5701 83.5091C69.5476 83.5409 69.4854 83.5766 69.414 83.5766C69.3333 83.5766 69.279 83.4959 69.279 83.2419ZM68.9536 83.3398C68.9536 83.4602 68.7168 83.6163 68.5872 83.6163C68.4536 83.6163 68.3557 83.5356 68.3557 83.3702C68.3557 82.9998 68.7922 82.9112 68.9536 82.7908V83.3398ZM70.4405 82.7683C70.4405 82.5633 70.4445 82.3437 70.4537 82.1387H71.0292C71.0556 82.1387 71.0649 82.1254 71.0702 82.1029L71.1138 81.9468C71.1231 81.9296 71.1099 81.9072 71.0834 81.9072H70.463L70.4842 81.4693C70.4842 81.4336 70.4762 81.4018 70.4405 81.4018C70.4127 81.4018 70.3916 81.4111 70.377 81.4468C70.3201 81.5989 69.9762 81.9429 69.869 82.0051C69.8148 82.0368 69.7883 82.05 69.7883 82.0857C69.7883 82.1215 69.8148 82.1387 69.8558 82.1387H70.127C70.123 82.3265 70.119 82.6294 70.119 82.7101V82.808C70.119 82.8702 70.1058 83.2631 70.1058 83.447C70.1058 83.6163 70.3201 83.8266 70.5384 83.8266C70.8056 83.8266 70.9895 83.6917 71.0345 83.648C71.0477 83.6348 71.0556 83.6163 71.0424 83.5991L71.0199 83.5581C71.0067 83.5409 70.9895 83.5356 70.967 83.5488C70.9048 83.5898 70.7752 83.607 70.672 83.607C70.5913 83.607 70.4405 83.5488 70.4405 83.2141V82.7683ZM71.5649 83.1295C71.5649 83.2631 71.5649 83.402 71.561 83.5356C71.5557 83.607 71.5385 83.6255 71.4895 83.6255H71.2699C71.2395 83.6255 71.2263 83.6348 71.2263 83.6613V83.7499C71.2263 83.7777 71.2395 83.7856 71.262 83.7856C71.3109 83.7856 71.4842 83.7724 71.7435 83.7724C71.9314 83.7724 72.1364 83.7856 72.1721 83.7856C72.2039 83.7856 72.2131 83.7724 72.2131 83.742V83.6652C72.2131 83.6388 72.2039 83.6255 72.1681 83.6255H71.9631C71.9128 83.6255 71.8996 83.5938 71.8917 83.5091C71.8864 83.4602 71.8864 83.3001 71.8864 83.1255V82.6387C71.8864 82.2683 71.8864 81.9865 71.8956 81.9111C71.8996 81.8794 71.8956 81.8582 71.8732 81.8582C71.8467 81.8582 71.8242 81.8662 71.7885 81.8847C71.6192 81.9786 71.4485 82.05 71.3056 82.1029C71.2845 82.1122 71.2752 82.1215 71.2752 82.1347V82.1744C71.2752 82.1929 71.2845 82.2008 71.3149 82.2061C71.5385 82.2418 71.5649 82.3225 71.5649 82.4733V83.1295ZM71.6099 81.3529C71.7978 81.3529 71.8771 81.21 71.8771 81.0896C71.8771 80.9865 71.8017 80.8528 71.6364 80.8528C71.4538 80.8528 71.3559 80.9865 71.3559 81.1029C71.3559 81.251 71.5067 81.3529 71.6099 81.3529ZM73.3825 83.8266C73.9315 83.8266 74.3694 83.3306 74.3694 82.8437C74.3694 82.554 74.2662 82.3225 74.0651 82.1162C73.9315 81.9826 73.6855 81.8582 73.4407 81.8582C73.2926 81.8582 73.0743 81.8926 72.8415 82.0712C72.5782 82.2776 72.4579 82.5633 72.4579 82.7908C72.4579 83.107 72.4989 83.2723 72.7039 83.5184C72.8918 83.742 73.1682 83.8266 73.3825 83.8266ZM73.4354 83.6917C73.2264 83.6917 73.0968 83.607 72.9936 83.4602C72.8507 83.2551 72.8243 83.0858 72.8243 82.8358C72.8243 82.4958 72.8865 82.3133 73.0611 82.1347C73.1682 82.0183 73.2833 81.9918 73.405 81.9918C73.6325 81.9918 73.9937 82.304 73.9937 82.8001C73.9937 83.2776 73.7754 83.6917 73.4354 83.6917ZM76.5031 82.3794C76.5031 82.2683 76.3907 82.0447 76.2571 81.9561C76.1499 81.8847 76.0124 81.8582 75.8774 81.8582C75.6552 81.8582 75.3959 82.0222 75.2663 82.1836H75.257L75.2266 81.9111C75.2213 81.8754 75.212 81.8582 75.1909 81.8582C75.1723 81.8582 75.1459 81.8714 75.1102 81.8886L74.7265 82.1029C74.7041 82.1122 74.6855 82.1254 74.6855 82.1479V82.1704C74.6855 82.1836 74.6908 82.1969 74.7213 82.2101L74.757 82.2286C74.8694 82.2815 74.9409 82.3569 74.9409 82.4919V83.5356C74.9409 83.6123 74.9091 83.6255 74.8509 83.6255H74.7213C74.6855 83.6255 74.6763 83.6388 74.6763 83.6652V83.7459C74.6763 83.7724 74.6855 83.7856 74.708 83.7856C74.7345 83.7856 74.8774 83.7724 75.1049 83.7724C75.3417 83.7724 75.4621 83.7856 75.4938 83.7856C75.5163 83.7856 75.5256 83.7724 75.5256 83.7459V83.6705C75.5256 83.6388 75.5163 83.6255 75.4806 83.6255H75.3695C75.2755 83.6255 75.2623 83.5991 75.2623 83.4787V82.554C75.2623 82.4694 75.2755 82.349 75.3642 82.2498C75.4978 82.1069 75.6552 82.0765 75.7266 82.0765C75.8377 82.0765 75.9449 82.0765 76.052 82.1572C76.1817 82.2498 76.1817 82.3794 76.1817 82.558V83.148C76.1817 83.2631 76.1764 83.4073 76.1724 83.5224C76.1685 83.6031 76.1327 83.6255 76.0838 83.6255H75.9542C75.9092 83.6255 75.896 83.6348 75.896 83.6652V83.7367C75.896 83.7724 75.9052 83.7856 75.9317 83.7856C75.9621 83.7856 76.105 83.7724 76.3338 83.7724C76.5878 83.7724 76.7254 83.7856 76.7571 83.7856C76.7836 83.7856 76.7928 83.7684 76.7928 83.7367V83.6652C76.7928 83.6388 76.7836 83.6255 76.7439 83.6255H76.601C76.5428 83.6255 76.5031 83.6031 76.5031 83.5316V82.3794Z" fill="#787A7C"></path></svg>
