<svg width="81" height="85" viewBox="0 0 81 85" fill="none" xmlns="http://www.w3.org/2000/svg" class="partners__item-icon"><path d="M2.20787 15.914C2.20787 15.914 2.03621 15.8772 1.96264 15.9079C1.87681 15.9385 1.87681 16.006 1.87681 16.006C1.87681 16.006 1.85229 16.0366 1.79711 16.0428C1.74193 16.055 1.71128 16.147 1.69902 16.1838C1.68063 16.2083 1.63771 16.2757 1.63771 16.2757L1.52736 16.4167C1.52736 16.4167 1.4967 16.4474 1.50897 16.478C1.5151 16.5087 1.49057 16.5761 1.47218 16.6007C1.45992 16.619 1.30665 16.852 1.28213 16.9011C1.25761 16.9562 1.13499 17.2873 1.1166 17.3241C1.09821 17.3609 1.06142 17.5325 1.0369 17.6122C1.01851 17.6981 0.699708 18.9365 0.699708 19.0346C0.699708 19.1326 0.662924 19.1878 0.650662 19.5066C0.63227 19.8254 0.613878 19.9542 0.601616 20.0461C0.595486 20.1381 0.472871 22.3329 0.485132 22.4678C0.503525 22.6088 0.485132 22.6823 0.497394 22.7682C0.503525 22.854 0.509655 22.9828 0.509655 23.1176C0.509655 23.2586 0.534178 25.5086 0.528048 25.5883C0.521917 25.6741 0.38091 25.7784 0.558701 25.8826C0.558701 25.8826 0.589355 25.8887 0.589355 25.9562C0.589355 26.0175 0.534178 26.0726 0.564832 26.0972C0.595486 26.1278 0.595486 26.1523 0.577093 26.183C0.55257 26.2198 0.540309 26.2566 0.589355 26.2811C0.63227 26.3179 0.601616 26.373 0.589355 26.4098C0.577093 26.4527 0.564832 26.4957 0.595486 26.5202C0.626139 26.5447 0.63227 26.7409 0.595486 26.8267C0.558701 26.9126 0.521917 27.0842 0.564832 27.1394C0.613878 27.1884 0.577093 27.213 0.55257 27.2314C0.528047 27.262 0.429956 27.3049 0.528048 27.4643C0.595486 27.5808 0.534178 27.7954 0.534178 27.7954C0.534178 27.7954 0.485132 27.8199 0.528048 27.8628C0.577093 27.8996 0.509655 27.9793 0.509655 28.0222C0.509655 28.059 0.528047 28.059 0.509655 28.0897C0.497394 28.1203 0.368648 28.1816 0.503525 28.3104C0.503525 28.3104 0.485132 28.4514 0.485132 28.4759C0.485132 28.5127 0.331864 28.6169 0.472871 28.623C0.472871 28.623 0.485132 28.715 0.448348 28.7763C0.417694 28.8376 0.374779 28.8621 0.417694 28.8805C0.417694 28.8805 0.485132 28.9234 0.436086 28.9909C0.38704 29.0583 0.374779 29.1196 0.417694 29.1441C0.448348 29.1687 0.405433 29.2177 0.405433 29.2177C0.405433 29.2177 0.337995 29.2974 0.436086 29.3403C0.436086 29.3403 0.448348 29.4139 0.436086 29.5181C0.417694 29.6162 0.344125 31.0324 0.337995 31.1305C0.331864 31.2286 0.221511 32.6019 0.227641 32.749C0.233772 32.8962 0.221511 32.9084 0.221511 32.9084C0.221511 32.9084 0.270556 32.9697 0.21538 33.0126L0.196988 33.1353L0.13568 34.1407C0.13568 34.1407 0.196988 34.2388 0.166334 34.2878C0.13568 34.343 0.0866344 34.4104 0.160203 34.4166L0.166334 34.7538L0.160203 34.8089C0.160203 34.8089 0.0437192 34.8825 0.178595 34.9132L0.166334 34.9683C0.166334 34.9683 0.0314577 35.048 0.178595 35.0971C0.178595 35.0971 0.178595 35.2136 0.13568 35.2258C0.0927651 35.2442 0.178595 37.4022 0.178595 37.4022C0.178595 37.4022 0.350256 39.9526 0.564832 40.4247C0.564832 40.4247 0.564832 40.5167 0.620009 40.5228C0.620009 40.5228 0.644531 40.6454 0.650662 40.7067C0.656793 40.768 0.871369 41.6815 0.981722 41.9942V42.1229C0.981722 42.1229 0.957199 42.2026 1.05529 42.3252C1.05529 42.3252 1.11047 42.4785 1.11047 42.6011C1.11047 42.7237 1.13499 42.9015 1.1963 42.9751C1.25147 43.0425 1.28213 43.0916 1.30052 43.1958C1.31278 43.2939 1.25761 43.3123 1.36183 43.3429C1.36183 43.3429 1.39248 43.5759 1.39248 43.6985C1.39248 43.815 1.40474 43.9805 1.4967 44.0786C1.58867 44.1767 1.52736 44.3361 1.63771 44.4894C1.76033 44.6426 1.76646 44.7285 1.82776 44.8572C1.88907 44.986 2.10365 45.4764 2.17109 45.5561C2.23852 45.642 2.23852 45.6971 2.23852 45.6971C2.23852 45.6971 2.24465 45.7646 2.28144 45.8014C2.31209 45.8381 2.47149 46.0466 2.50828 46.0895C2.54506 46.1385 2.52054 46.1999 2.59411 46.2489C2.66154 46.3041 2.58184 46.3899 2.67381 46.4022C2.67381 46.4022 2.67381 46.4635 2.72285 46.4696C2.76577 46.4819 2.79029 46.5003 2.79029 46.5003C2.79029 46.5003 2.85773 46.6167 2.87612 46.6351C2.88838 46.6658 2.84547 46.7761 2.96195 46.7823C2.96195 46.7823 3.04778 46.9907 3.0723 47.0214C3.09683 47.052 3.152 47.1195 3.1704 47.144C3.20105 47.1685 3.18879 47.2666 3.22557 47.2666C3.26849 47.2666 3.26849 47.334 3.26849 47.334C3.26849 47.334 3.59342 47.9226 3.74055 48.0329C3.88156 48.1494 3.80186 48.1004 3.80186 48.1004C3.80186 48.1004 3.80799 48.2291 3.90608 48.2475C3.90608 48.2475 3.91835 48.2904 3.92448 48.315C3.93061 48.3334 4.07774 48.4928 4.07774 48.4928C4.07774 48.4928 4.13905 48.4928 4.13905 48.5908C4.13905 48.5908 4.46398 48.9955 4.55594 49.1242C4.66016 49.2591 5.684 50.4669 5.97214 50.6446C5.97214 50.6446 6.03345 50.6998 6.03345 50.7427C6.03345 50.7918 6.15606 50.8347 6.15606 50.8347C6.15606 50.8347 6.2235 50.755 6.2419 50.8653C6.25416 50.9696 6.3216 51.0002 6.3216 51.0002L6.3829 51.0309C6.3829 51.0309 6.63426 51.2332 6.67718 51.2455C6.72009 51.2577 6.78753 51.2884 6.79366 51.3374C6.79979 51.3865 6.83658 51.3865 6.89175 51.4049C6.94693 51.4294 6.98985 51.5091 6.98985 51.5091C6.98985 51.5091 7.07568 51.5888 7.13698 51.5949C7.19829 51.6072 7.38834 51.7543 7.42513 51.785C7.46804 51.8156 7.48644 51.8095 7.4987 51.8401C7.50483 51.8708 7.50483 51.9137 7.52935 51.9137C7.55387 51.9137 7.72553 51.9811 7.75619 51.9995C7.78684 52.0118 8.01368 52.1467 8.05659 52.1957C8.09338 52.2509 8.18534 52.2448 8.22212 52.2693C8.25891 52.2877 8.28343 52.3061 8.31409 52.349C8.34474 52.3796 8.55931 52.5023 8.63288 52.539C8.71258 52.582 8.81067 52.6126 8.96394 52.6617C9.11721 52.7168 9.22756 52.7904 9.24596 52.8088C9.27048 52.8211 9.3134 52.8762 9.40536 52.8824C9.40536 52.8824 9.44214 52.913 9.48506 52.9498C9.52184 52.9743 9.63832 52.9988 9.63832 52.9988C9.63832 52.9988 9.87129 53.0479 9.9326 53.1153C10 53.1705 10.043 53.2379 10.1227 53.2196C10.1962 53.2073 10.2637 53.1889 10.2943 53.2379C10.325 53.2809 10.4721 53.2809 10.4905 53.2809C10.515 53.2809 10.5212 53.3299 10.5702 53.3483C10.6192 53.3606 10.656 53.3422 10.656 53.3422C10.656 53.3422 10.7664 53.3912 10.8951 53.4157C11.0239 53.4403 11.079 53.4403 11.0913 53.4832C11.1036 53.52 11.1833 53.4954 11.2323 53.5138C11.2691 53.52 11.7166 53.661 11.8822 53.6916C12.0354 53.7284 12.4952 53.8388 12.6056 53.8694C12.716 53.8939 12.906 53.8939 12.9489 53.9062C12.9918 53.9123 13.0899 53.9859 13.1635 54.0043C13.2432 54.0288 13.2432 53.9491 13.2739 53.9614C13.3168 53.9736 13.329 53.9859 13.3842 54.0043C13.4394 54.0288 14.2916 54.0717 14.5797 54.0901C14.8678 54.1024 15.015 54.1269 15.0702 54.1514C15.1253 54.1698 15.1069 54.1821 15.1928 54.1821C15.2725 54.1821 15.5729 54.1943 15.5729 54.1943C15.5729 54.1943 15.5974 54.3108 15.7507 54.2127H15.7997C15.8549 54.2127 16.094 54.2189 16.1246 54.225C16.1553 54.2311 16.1921 54.274 16.2963 54.2311H16.4189C16.4496 54.2311 17.1669 54.1943 17.2895 54.1882C17.4121 54.1821 18.5831 54.084 18.7609 54.0656C18.7609 54.0656 19.3862 54.0104 19.5824 53.9491C19.7786 53.8939 21.6914 53.4035 22.519 52.9866C22.519 52.9866 22.5987 52.9314 22.6416 52.9559C22.6845 52.9866 22.8378 52.864 23.1137 52.7475C23.1137 52.7475 23.175 52.7168 23.2547 52.7291C23.3283 52.7475 23.4202 52.6126 23.4325 52.5206C23.4509 52.4287 23.5612 52.5206 23.6041 52.5023C23.6532 52.49 23.8678 52.2754 23.8678 52.2754C23.8678 52.2754 24.0026 52.2141 24.0823 52.1651C24.1559 52.1222 24.5667 51.785 24.6464 51.693C24.6464 51.693 24.8426 51.6194 24.8426 51.5275L26.6205 50.0193C26.6205 50.0193 26.6327 49.8967 26.7247 49.909C26.8167 49.9273 27.0496 49.6024 27.0925 49.6024C27.1355 49.6024 27.5217 49.3449 27.5523 49.1487C27.5523 49.1487 27.816 48.8299 27.8895 48.7686C27.9692 48.7073 29.692 46.5861 30.1395 45.7952C30.1395 45.7952 30.305 45.5684 30.3357 45.4396C30.3663 45.3232 30.7342 44.9124 30.7465 44.8634C30.7648 44.8204 30.7955 44.7407 30.8445 44.7101C30.8875 44.6794 31.6354 42.926 31.7703 42.5582C31.9113 42.1965 32.5244 40.486 32.5673 40.1979C32.6163 39.9097 32.647 39.9833 32.6592 39.971C32.6776 39.9526 32.9842 39.1434 33.0332 38.9901C33.0761 38.843 33.3949 37.3164 33.3949 37.3164C33.3949 37.3164 33.4256 37.2858 33.4746 37.2061C33.5175 37.1325 33.4746 36.9179 33.5053 36.8566C33.5359 36.7953 33.5789 36.6727 33.5789 36.6727C33.5789 36.6727 33.5666 36.5378 33.5789 36.4765C33.5972 36.4152 33.8731 34.8457 33.9038 34.7722C33.9344 34.6925 33.9651 34.4656 33.9896 34.3246C34.0203 34.1897 34.3023 31.952 34.3268 31.8662C34.3636 31.7988 34.3759 31.762 34.3881 31.67C34.4065 31.5842 34.4985 29.6898 34.5414 29.3832C34.5843 29.0828 34.713 28.1203 34.7437 27.967C34.7743 27.8138 34.7805 27.8444 34.8173 27.7525C34.8234 27.7402 34.8173 27.7157 34.8173 27.6728C34.8173 27.6605 34.854 27.6482 34.854 27.6299C34.854 27.6115 34.8234 27.5808 34.8295 27.5624C34.8357 27.4582 34.8479 27.3417 34.8663 27.2988C34.8908 27.2191 34.9705 26.9739 34.9705 26.9739C34.9705 26.9739 34.9889 26.8145 35.0012 26.7041C35.0196 26.5999 35.1728 25.9562 35.2158 25.7661C35.2648 25.5883 35.2955 25.3921 35.3261 25.3308C35.3261 25.3308 35.3752 25.2879 35.3936 25.2205C35.4058 25.153 35.3445 25.1162 35.369 25.0672C35.3997 25.0243 35.3997 24.9936 35.4303 24.9323C35.461 24.871 35.4303 24.8588 35.4487 24.7791C35.5468 24.4112 35.5713 24.4112 35.5713 24.3376C35.5713 24.2641 35.5713 24.0802 35.602 23.9759C35.6327 23.8594 35.6756 23.6694 35.7491 23.6081C35.8288 23.5468 35.7675 23.4977 35.7982 23.4058C35.8288 23.3138 35.8472 22.9398 35.8718 22.8785C35.9085 22.8172 35.9821 22.6946 35.9821 22.5659C35.9821 22.4494 35.9698 22.0693 36.0005 21.9773C36.025 21.8853 36.1047 21.824 36.1047 21.7811C36.1047 21.7321 36.0679 21.6095 36.1047 21.5052C36.1354 21.3949 36.2151 20.8002 36.2457 20.4201C36.2764 20.04 36.2886 19.5066 36.258 19.243C36.2273 18.9855 36.1967 18.82 36.1967 18.82C36.1967 18.82 36.166 18.7525 36.1476 18.6974C36.117 18.5686 36.0925 18.4092 36.0679 18.3602C36.0557 18.3111 35.8901 17.7655 35.8288 17.6735C35.7675 17.5816 35.5836 17.2199 35.553 17.1402C35.5223 17.0666 35.369 16.944 35.3506 16.9011C35.3506 16.9011 35.3506 16.8214 35.3139 16.7907C35.3139 16.7907 35.2648 16.7723 35.2403 16.7539C35.2158 16.7355 35.0993 16.6374 35.0318 16.5945C34.9644 16.5455 34.8908 16.5455 34.805 16.5332C34.805 16.5332 34.5782 16.4596 34.4126 16.7601C34.4126 16.7601 34.3513 16.9378 34.4556 17.5325C34.5659 18.1333 34.5475 18.1211 34.5475 18.1517C34.5475 18.1824 34.5475 18.1824 34.5414 18.1946C34.5291 18.213 34.4678 18.2866 34.5598 18.3786C34.5598 18.3786 34.6088 18.4092 34.5475 18.4583C34.4923 18.5134 34.5046 18.538 34.5107 18.5748C34.5169 18.6115 34.5046 18.6545 34.4188 18.6974C34.3268 18.7342 34.3329 18.728 34.2287 18.6851C34.1306 18.6422 33.9957 18.4583 33.9222 18.3418C33.8363 18.2253 33.8915 18.1946 33.8731 18.1149C33.8547 18.0291 33.7873 17.9494 33.7505 17.9126C33.7137 17.882 33.6831 17.8636 33.6647 17.8023C33.634 17.7348 33.3949 17.2628 33.3336 17.1463C33.2662 17.0298 33.2294 16.9624 33.2294 16.9133C33.2171 16.8581 33.1804 16.852 33.1681 16.8336C33.1558 16.8091 32.8616 16.3493 32.8125 16.3064C32.7757 16.2573 32.6715 16.1286 32.647 16.055C32.6163 15.9814 32.5673 15.9447 32.5428 15.9201C32.5244 15.8895 32.0339 15.4113 31.9849 15.3745C31.9481 15.3439 31.9481 15.3316 31.9297 15.3193C31.9113 15.3071 31.6231 15.0986 31.568 15.0741C31.5189 15.0434 31.3595 15.0189 31.2737 15.0189C31.194 15.0189 31.0162 15.0312 30.8997 15.1599C30.8997 15.1599 30.8445 15.2274 30.8629 15.4542C30.8629 15.4542 30.8384 15.5094 30.8568 15.5584C30.8875 15.6075 30.9426 15.7914 30.9672 15.8404C30.9978 15.8834 31.053 15.9753 31.0714 16.0182C31.0836 16.0611 31.1204 16.2083 31.1204 16.2941C31.1266 16.3738 31.1388 16.3738 31.1511 16.3861C31.1633 16.3922 31.2553 16.4842 31.3166 16.6068C31.3841 16.7355 31.4576 17.0298 31.4944 17.1156C31.5312 17.2015 31.6538 17.3977 31.6906 17.4896C31.7212 17.5816 31.8439 17.8942 31.85 17.9923C31.85 18.0966 31.8929 18.3663 31.8868 18.4337C31.8745 18.5073 31.8929 18.587 31.7335 18.6177C31.5802 18.6483 31.5067 18.5931 31.476 18.5686C31.4454 18.5441 31.053 18.1946 31.0101 18.1333C30.9672 18.0659 30.5748 17.6919 30.5319 17.649C30.489 17.6061 30.2928 17.367 30.2192 17.2873C30.1395 17.2199 29.8085 16.9011 29.7349 16.8336C29.6674 16.7601 29.459 16.5087 29.4345 16.4719C29.41 16.429 29.4345 16.429 29.2873 16.3432C29.1341 16.2512 29.1954 16.2205 29.1463 16.1715C29.0912 16.1163 28.9195 15.9201 28.7846 15.8466C28.6497 15.773 28.4903 15.6443 28.4536 15.6259C28.4168 15.6013 28.429 15.5462 28.4045 15.5339C28.3861 15.5216 28.3432 15.5216 28.3309 15.5033C28.3064 15.4849 28.288 15.4481 28.2635 15.4236C28.2451 15.399 28.1838 15.3745 28.1654 15.3684C28.1409 15.3622 28.0857 15.3684 28.0551 15.3561C28.0244 15.3377 27.9018 15.2335 27.8895 15.2151C27.8773 15.2028 27.8282 15.1906 27.7976 15.1783C27.7608 15.1661 27.6872 15.0864 27.6136 15.0864C27.5339 15.0741 27.4113 15.0373 27.2581 15.1048C27.1048 15.1722 27.0987 15.1906 27.0987 15.1906C27.0987 15.1906 27.0374 15.2151 27.0251 15.2151C27.0067 15.2212 27.0128 15.2948 26.9944 15.3193C26.9822 15.3439 26.9209 15.3806 26.9638 15.4297C27.0067 15.4849 26.9515 15.5094 26.927 15.5216C26.9086 15.54 26.8412 15.6136 26.8534 15.6627C26.8596 15.7117 26.927 15.7853 26.9822 15.8527C27.0251 15.9201 26.9822 15.9201 27.0128 15.9692C27.0558 16.0121 27.4052 16.5026 27.4297 16.5639C27.4665 16.619 27.6014 16.8152 27.675 16.9011C27.7485 16.9869 27.8957 17.1647 27.9141 17.1769C27.9386 17.1953 27.9508 17.2444 27.9815 17.2812C28.006 17.3057 28.0551 17.3057 28.0796 17.3547C28.1041 17.3915 28.1041 17.4528 28.1225 17.4835C28.147 17.5264 28.1654 17.508 28.2083 17.5264C28.2574 17.5387 28.3126 17.5816 28.3432 17.6306C28.3861 17.6797 28.6007 17.9678 28.6559 18.0475C28.7049 18.1272 28.7724 18.2621 28.7969 18.2989C28.8214 18.3418 28.9011 18.3173 28.9011 18.4215C28.9011 18.4215 28.9563 18.5073 28.9869 18.5318C29.0176 18.5502 29.0544 18.6299 29.0789 18.6545C29.1095 18.679 29.226 18.8506 29.2751 18.8997C29.318 18.9549 29.3425 19.0039 29.367 19.0775C29.3916 19.151 29.459 19.3104 29.4774 19.3656C29.4958 19.4208 29.5142 19.6354 29.4958 19.7089C29.4835 19.7764 29.3977 19.8622 29.3303 19.8683C29.2506 19.8745 29.1341 19.7886 29.1034 19.7825C29.1034 19.7825 29.0237 19.8009 28.9992 19.7886C28.9685 19.7764 28.9685 19.6967 28.9379 19.6722C28.9134 19.6476 28.8275 19.6599 28.7846 19.6476C28.7478 19.6354 28.662 19.5373 28.6375 19.5128C28.613 19.4882 28.3861 19.3166 28.3677 19.2798C28.3432 19.243 28.3371 19.2123 28.3003 19.1756C28.2635 19.1449 28.2635 19.0897 28.2267 19.0713C28.1961 19.0468 28.1409 19.0407 28.1102 19.0223C28.0918 18.9978 28.0551 18.961 28.0305 18.9119C28.006 18.869 27.865 18.7219 27.8405 18.7035C27.816 18.6851 27.6872 18.5502 27.6627 18.5257C27.632 18.5012 27.3623 18.2621 27.3255 18.2253C27.2949 18.1946 27.3132 18.1824 27.2826 18.1579C27.2519 18.1333 27.2213 18.1395 27.1968 18.1211C27.1722 18.1149 27.0864 18.023 27.0619 17.9985C27.0496 17.9739 27.0374 17.931 27.0067 17.9126C26.9761 17.8942 26.9577 17.8881 26.9086 17.8881C26.8596 17.8881 26.8044 17.8268 26.786 17.8084C26.7676 17.79 26.6511 17.6919 26.6327 17.6735C26.6143 17.6613 26.6143 17.6245 26.5898 17.5877C26.5653 17.5509 26.4856 17.5387 26.4856 17.5387C26.4856 17.5387 26.1729 17.3793 26.1423 17.3547C26.1423 17.3547 26.0748 17.2996 26.0503 17.2812C26.0258 17.2628 25.9951 17.2628 25.9706 17.2505C25.94 17.2444 25.7867 17.1279 25.7499 17.0972C25.707 17.0727 25.6273 17.0666 25.5905 17.0605C25.5537 17.0421 25.425 17.0421 25.3882 17.0175C25.3575 16.9992 25.2288 16.9992 25.143 17.0666C25.0449 17.134 24.9958 17.1892 24.9774 17.226C24.959 17.2689 24.9284 17.3547 24.9161 17.367C24.9039 17.3793 24.8548 17.459 24.8855 17.5019C24.9161 17.5448 24.91 17.5938 24.9161 17.6306C24.9161 17.6735 24.9468 17.882 24.959 17.9372C24.959 17.9923 24.9958 18.023 24.9958 18.0414C24.9958 18.0536 25.0081 18.1211 25.0449 18.1579C25.0694 18.1946 25.2778 18.4889 25.333 18.5502C25.3882 18.6177 25.5169 18.8139 25.5844 18.8813C25.6457 18.9549 25.6947 18.9916 25.6886 19.01C25.6825 19.0284 25.7193 19.0959 25.7499 19.1081C25.7744 19.1204 25.7989 19.1572 25.8173 19.1817C25.8296 19.2062 25.8541 19.194 25.8848 19.2246C25.9154 19.2491 25.9522 19.3534 25.9829 19.3901C26.0135 19.4208 26.0503 19.4698 26.0626 19.5005C26.0748 19.5311 26.2158 19.6476 26.2465 19.6844C26.2833 19.7212 26.2771 19.8009 26.2955 19.8316C26.3078 19.8622 26.3323 19.9051 26.3875 19.9174C26.4427 19.9419 26.4611 19.9603 26.4856 19.9848C26.5162 20.0155 26.5162 20.0829 26.5408 20.1074C26.5592 20.132 26.6634 20.2914 26.7431 20.3588C26.8228 20.4262 26.9944 20.6776 27.0496 20.7389C27.1048 20.8063 27.0619 20.8309 27.0987 20.8554C27.1355 20.8738 27.1355 20.8738 27.1722 20.9106C27.2029 20.9412 27.3071 21.1067 27.3439 21.2232C27.3868 21.3397 27.3745 21.5175 27.3623 21.5543C27.3562 21.5911 27.2397 21.7076 27.2152 21.7321C27.1906 21.7627 27.1355 21.7811 27.0864 21.7811C27.0374 21.7873 26.927 21.7995 26.8964 21.7873C26.8657 21.775 26.8473 21.7627 26.8167 21.7443C26.786 21.7321 26.6082 21.7198 26.5653 21.7014C26.5224 21.6892 26.1239 21.5175 26.081 21.493C26.038 21.4746 25.94 21.4685 25.8725 21.4439C25.799 21.4194 25.4985 21.2478 25.4372 21.2294C25.3759 21.211 25.1184 21.1067 24.9897 21.0884C24.8609 21.07 24.7199 21.0761 24.6648 21.0884C24.5973 21.1067 24.5054 21.1681 24.4808 21.1926C24.4563 21.2171 24.395 21.3029 24.3889 21.3213C24.3705 21.3336 24.3398 21.3458 24.3153 21.352C24.2908 21.352 24.2601 21.4194 24.254 21.4746C24.254 21.5236 24.2233 21.5972 24.2233 21.6401C24.2172 21.683 24.2356 21.8363 24.2601 21.8731C24.2908 21.9099 24.3214 22.0264 24.3214 22.0631C24.3214 22.0999 24.3337 22.1919 24.3582 22.2164C24.3705 22.2409 24.4073 22.29 24.4379 22.3206C24.4686 22.3513 24.6341 22.6149 24.6832 22.6701C24.7261 22.7191 24.7261 22.762 24.7383 22.7804C24.7506 22.805 24.8916 22.9521 24.959 23.0134C25.0326 23.0686 25.333 23.369 25.3882 23.4426C25.4495 23.5161 25.5169 23.5897 25.5476 23.6265C25.5844 23.6694 25.9522 23.9943 26.0626 24.0924C26.1729 24.1844 26.5898 24.54 26.6756 24.6258C26.7676 24.7055 27.0128 25.0182 27.0925 25.104C27.1722 25.1898 27.3807 25.5515 27.4542 25.668C27.5217 25.7784 27.5339 25.8397 27.5646 25.8826C27.5891 25.9255 27.6198 25.9378 27.6443 25.9746C27.6627 26.0175 27.8711 26.4405 27.9018 26.5202C27.9324 26.5999 27.9938 26.7532 27.9938 26.7838C27.9999 26.8206 28.0612 26.8942 28.0735 26.9371C28.0918 26.98 28.2942 27.4521 28.3126 27.5011C28.3371 27.5563 28.3555 27.6299 28.3616 27.6605C28.3677 27.6912 28.3984 27.7463 28.4106 27.7586C28.4168 27.777 28.5517 28.0774 28.5823 28.2061C28.6191 28.3349 28.6191 28.4268 28.6375 28.4698C28.6497 28.5065 28.6865 28.6108 28.6927 28.6721C28.7049 28.7334 28.8582 29.2545 28.8643 29.3832C28.8766 29.5181 28.944 30.0086 28.9563 30.0699C28.9685 30.1251 28.9563 30.2538 28.9685 30.2906C28.9747 30.3335 29.0053 30.4132 29.0115 30.4929C29.0115 30.5726 29.0482 31.0447 29.0544 31.1182C29.0544 31.1979 29.085 31.8294 29.0789 31.8785C29.0789 31.9275 29.0605 31.9398 29.0544 31.952C29.0544 31.9643 28.9992 31.9949 29.0605 32.0501C29.0605 32.0501 29.0789 32.1237 29.0789 32.1543C29.0789 32.185 29.0605 32.7184 29.0605 32.7858C29.0544 32.8594 29.0298 33.2211 29.0237 33.3253C29.0176 33.4234 28.9869 33.6809 28.9808 33.7299C28.9747 33.7851 28.9563 33.779 28.9501 33.8771C28.9501 33.969 28.9379 34.1162 28.9318 34.1652C28.9256 34.2143 28.8888 34.3675 28.8766 34.4166C28.8766 34.4656 28.8766 34.5944 28.8582 34.6373C28.8459 34.6741 28.7846 34.7354 28.7785 34.7599C28.7662 34.7844 28.754 34.8396 28.7356 34.8641C28.7172 34.8886 28.7111 34.9561 28.754 34.9867C28.7969 35.0235 28.7846 35.0726 28.754 35.0787C28.7294 35.0971 28.6865 35.1768 28.7294 35.2197C28.7662 35.2688 28.754 35.2994 28.7417 35.3117C28.7294 35.3239 28.6743 35.3546 28.7172 35.4098C28.7785 35.4649 28.7417 35.5446 28.7294 35.5569C28.7172 35.5753 28.6743 35.5569 28.662 35.5875C28.6497 35.6182 28.6927 35.6489 28.7172 35.6918C28.7417 35.7347 28.7172 35.7592 28.6988 35.7899C28.6743 35.8144 28.5946 35.845 28.6191 35.8573C28.6375 35.8757 28.6497 35.8818 28.6497 35.9186C28.6497 35.9677 28.6375 35.9922 28.6191 36.0044C28.6068 36.0167 28.5762 36.029 28.5762 36.0596C28.5762 36.0964 28.5762 36.1393 28.57 36.1577C28.5639 36.1822 28.5884 36.219 28.5823 36.2374C28.5823 36.2681 28.5762 36.2803 28.5517 36.2865C28.5333 36.2926 28.5149 36.2926 28.4965 36.3294C28.4781 36.3662 28.4781 36.4581 28.472 36.501C28.4597 36.5378 28.4597 36.5501 28.4413 36.5623C28.429 36.5685 28.4168 36.5746 28.4106 36.593C28.3984 36.6298 28.4045 36.6666 28.3984 36.6788C28.3861 36.6911 28.3677 36.7463 28.38 36.8014C28.3861 36.8627 28.3984 36.875 28.429 36.9057C28.4597 36.9302 28.4474 36.9915 28.4352 36.9976C28.4168 37.0099 28.3677 37.0344 28.3616 37.0589C28.3432 37.0773 28.3677 37.1999 28.3493 37.2183C28.3432 37.2428 28.288 37.2858 28.288 37.298C28.288 37.3164 28.288 37.3225 28.3064 37.3409C28.3187 37.3532 28.3064 37.4145 28.3003 37.4268C28.2942 37.439 28.2758 37.4697 28.2635 37.4819C28.2451 37.4881 28.1961 37.5126 28.2329 37.5371C28.2758 37.5616 28.2635 37.5739 28.2574 37.5984C28.2451 37.6168 28.2145 37.7885 28.1961 37.8314C28.1838 37.8743 28.0612 38.2973 28.0121 38.4077C27.9692 38.5242 27.7669 39.0269 27.7301 39.1066C27.6933 39.1924 27.5646 39.5051 27.5462 39.5541C27.5217 39.6032 27.4542 39.7074 27.4359 39.7258C27.4236 39.7503 27.2029 40.1856 27.1722 40.2408C27.1477 40.296 26.9822 40.6454 26.9577 40.6761C26.9393 40.7128 26.9147 40.7925 26.9086 40.8477C26.9025 40.8906 26.8657 40.9581 26.8412 41.001C26.8167 41.05 26.6634 41.2401 26.6511 41.283C26.6327 41.3259 26.5837 41.3934 26.5776 41.424C26.5653 41.4608 26.5776 41.4976 26.5592 41.5221C26.5408 41.5528 26.5346 41.5528 26.5162 41.5895C26.4979 41.6202 26.4672 41.6999 26.4611 41.7428C26.4488 41.7857 26.3139 41.9574 26.2955 41.988C26.271 42.0248 26.271 42.0677 26.2588 42.0923C26.2465 42.1168 26.2036 42.1536 26.1913 42.1781C26.1791 42.2026 26.1729 42.2333 26.1607 42.2639C26.1423 42.2946 26.0748 42.3865 26.0564 42.4172C26.038 42.454 26.0319 42.4908 26.0135 42.5398C25.989 42.5827 25.6641 43.0854 25.615 43.1651C25.566 43.2448 25.4434 43.4104 25.4127 43.4533C25.4127 43.4533 25.2043 43.7108 25.1736 43.766C25.143 43.8211 24.9774 44.0051 24.9652 44.0725C24.959 44.1461 24.9223 44.1644 24.8977 44.2012C24.8732 44.2319 24.487 44.5629 24.4379 44.6243C24.4379 44.6243 24.3214 44.753 24.303 44.7591C24.2785 44.7714 24.2111 44.8143 24.1927 44.8327C24.1682 44.8572 23.034 45.7891 22.9604 45.8381C22.8991 45.8933 22.3473 46.3225 22.2983 46.3531C22.2554 46.3899 22.2002 46.439 22.1389 46.4819C22.0776 46.5248 21.8814 46.6351 21.8017 46.6842C21.7343 46.7271 21.2745 46.9478 21.1886 46.9907C21.0967 47.0275 20.4407 47.2359 20.3426 47.2666C20.2568 47.3034 20.1035 47.3463 20.0422 47.3524C19.987 47.3586 19.9441 47.3647 19.895 47.3647C19.8399 47.3647 19.7479 47.4137 19.6805 47.4383C19.6069 47.4567 18.9693 47.5977 18.8344 47.6099C18.6934 47.6222 18.2214 47.6958 18.1355 47.7019C18.0497 47.708 15.9101 47.7448 15.7997 47.7387C15.6894 47.7387 15.3706 47.7264 15.3215 47.7141C15.2725 47.7019 15.2357 47.6712 15.205 47.6651C15.1805 47.659 14.4448 47.6467 14.4019 47.6344C14.3529 47.6283 13.8256 47.5609 13.7398 47.5425C13.654 47.5118 13.4516 47.4812 13.3903 47.475C13.329 47.4567 13.0838 47.3954 13.0041 47.3892C12.9244 47.3892 12.6608 47.3586 12.624 47.3402C12.5811 47.3218 12.5749 47.2973 12.532 47.285C12.4891 47.2789 12.3788 47.2482 12.3175 47.2298C12.2561 47.2114 11.919 47.0704 11.8515 47.0336C11.7841 47.003 11.545 46.8558 11.4837 46.8436C11.4285 46.8252 11.3365 46.7823 11.2936 46.7578C11.2446 46.7271 10.9442 46.5861 10.8951 46.5677C10.8399 46.5493 10.7725 46.5064 10.7296 46.4819C10.6867 46.4512 10.5212 46.3838 10.466 46.3654C10.4169 46.3409 10.2759 46.2612 10.2637 46.2366C10.2514 46.2305 10.233 46.1753 10.2085 46.1692C10.1901 46.1631 10.0981 46.1324 10.0981 46.1324C10.0981 46.1324 10.0552 46.065 9.99391 46.0405C9.9326 46.0221 9.88355 45.973 9.85903 45.9485C9.83451 45.9301 9.25822 45.4948 9.14174 45.3967C9.03138 45.2986 8.46122 44.7898 8.38152 44.6856C8.31409 44.5813 7.92172 44.097 7.87267 44.0234C7.82976 43.9499 7.80523 43.8886 7.80523 43.8702C7.80523 43.8518 7.78071 43.7966 7.74393 43.7598C7.70714 43.723 7.46191 43.2939 7.43739 43.2632C7.419 43.2326 7.419 43.1406 7.4006 43.1284C7.38221 43.1222 7.32704 43.0425 7.29638 43.018C7.26573 42.9873 7.24121 42.9138 7.23507 42.877C7.22894 42.8341 7.1799 42.8218 7.1799 42.7605C7.1799 42.7053 7.16151 42.6379 7.10633 42.6072C7.10633 42.6072 7.05115 42.5459 7.05115 42.5091C7.05115 42.4846 7.0205 42.4601 6.99598 42.4356C6.97758 42.4111 6.91628 42.3375 6.91628 42.2946C6.91628 42.2517 6.87949 42.1781 6.85497 42.1107C6.82432 42.0432 6.76914 41.9635 6.73235 41.9267C6.7017 41.8838 6.65879 41.8348 6.65879 41.7919C6.65879 41.7489 6.65879 41.6447 6.64039 41.6079C6.63426 41.5773 6.59135 41.4976 6.57909 41.4608C6.56682 41.4118 6.32773 40.86 6.28481 40.7006C6.23576 40.5412 5.95988 39.6032 5.93536 39.4928C5.91084 39.3702 5.79435 38.7387 5.79435 38.702C5.79435 38.659 5.7637 38.5242 5.76983 38.4935C5.77596 38.4629 5.77596 38.2606 5.75757 38.2115C5.73917 38.1686 5.72078 38.0705 5.72078 38.0398C5.72078 38.0153 5.69013 37.8682 5.67174 37.8253C5.65947 37.7762 5.62269 37.7088 5.61656 37.672C5.61043 37.6413 5.59204 37.4022 5.59204 37.4022C5.59204 37.4022 5.63495 37.3839 5.62882 37.3655C5.62269 37.3532 5.59204 37.3225 5.59204 37.3225C5.59204 37.3225 5.57364 37.2367 5.57364 37.1938C5.57364 37.157 5.53073 36.7953 5.5246 36.734C5.51847 36.6666 5.51847 35.9983 5.51847 35.9677C5.51847 35.9309 5.50621 35.9247 5.53073 35.9125C5.55525 35.9063 5.54912 35.8021 5.53073 35.7531C5.51234 35.704 5.48781 35.6059 5.48781 35.5508C5.49394 35.5017 5.48781 35.281 5.48781 35.2442C5.48781 35.2136 5.46942 34.3553 5.46942 34.2449C5.48168 34.1346 5.51234 33.6993 5.51234 33.6809C5.51234 33.6625 5.51847 33.6441 5.54299 33.6257C5.56138 33.6135 5.51847 33.6318 5.51847 33.5889C5.51847 33.546 5.54299 33.1966 5.55525 33.1046C5.56138 33.0249 5.65947 32.5283 5.67174 32.4241C5.69013 32.3199 5.70852 32.1605 5.73917 32.1176C5.7637 32.0746 5.79435 32.1175 5.79435 31.9459C5.79435 31.9459 5.85566 31.8907 5.8434 31.8294C5.83114 31.7681 5.87405 31.7191 5.87405 31.7191C5.87405 31.7191 5.89857 31.7007 5.91697 31.6394C5.94149 31.5842 5.91697 31.4186 5.93536 31.3819C5.95375 31.3389 6.2235 30.3764 6.28481 30.2109C6.33999 30.0515 6.52391 29.6591 6.56682 29.5304C6.60361 29.4078 6.59748 29.3526 6.622 29.3097C6.65879 29.2729 6.67105 29.2606 6.70783 29.2361C6.74462 29.2177 6.7017 29.1625 6.71396 29.138C6.73235 29.1135 6.76914 29.0215 6.81205 28.9909C6.84884 28.9541 6.81818 28.9418 6.81205 28.9173C6.81205 28.8867 6.87336 28.7518 6.87336 28.7518C6.87336 28.7518 6.91015 28.7579 6.92241 28.6721C6.94693 28.5924 7.10633 28.1448 7.13698 28.0958C7.16151 28.0529 7.35769 27.6299 7.43739 27.5256C7.51709 27.4214 7.60292 27.2375 7.6397 27.1823C7.68262 27.121 7.8175 26.8696 7.87267 26.7961C7.92172 26.7225 8.09951 26.4589 8.19147 26.3792C8.28343 26.2995 8.41831 26.1278 8.47348 26.0788C8.52866 26.0359 8.63288 25.9439 8.6758 25.9132C8.71258 25.8887 8.85359 25.7416 8.93942 25.7048C9.02525 25.6741 9.18465 25.4718 9.18465 25.4718C9.18465 25.4718 9.31953 25.3124 9.36857 25.3002C9.41149 25.2879 9.51571 25.3308 9.49119 25.2205C9.49119 25.2205 9.47892 25.1837 9.51571 25.1776C9.55863 25.1653 9.65059 25.0549 9.68737 25.0549C9.73029 25.0549 9.77933 25.0488 9.79772 25.0243C9.82225 24.9936 9.70576 24.9507 9.81612 24.9201C9.92647 24.8894 10.0613 24.7791 10.0613 24.7791C10.0613 24.7791 10.0368 24.6871 10.0736 24.6748C10.1104 24.6748 10.184 24.6564 10.2391 24.6564C10.2943 24.6564 10.3372 24.6748 10.3495 24.6381C10.3618 24.5951 10.2943 24.5154 10.374 24.5216C10.4537 24.5338 10.4966 24.5154 10.5457 24.4112C10.5886 24.307 10.6131 24.3744 10.6438 24.3438C10.6805 24.307 10.6989 24.2273 10.7541 24.2028C10.8032 24.1782 10.8522 24.1415 10.9074 24.1415C10.9687 24.1415 11.0055 24.1415 11.03 24.0372C11.03 24.0372 11.0668 24.0372 11.0974 24.025C11.122 24.0188 11.1281 24.0188 11.1526 23.9514C11.171 23.8901 11.2078 23.8594 11.263 23.8288C11.3181 23.8043 11.8025 23.4303 11.8944 23.3751C11.9803 23.3138 12.2378 23.0992 12.2745 23.0931C12.3052 23.087 12.3297 23.0747 12.3665 23.0625C12.3972 23.0441 12.4462 22.9705 12.4769 22.9705C12.5136 22.9705 12.5566 22.946 12.5566 22.946C12.5566 22.946 12.5811 22.8969 12.6179 22.8847C12.6485 22.8847 12.6853 22.8969 12.6976 22.8724C12.7098 22.8479 12.7037 22.7804 12.7466 22.762C12.7895 22.7314 12.8754 22.6517 12.906 22.6456C12.9428 22.6456 12.9612 22.6456 12.9673 22.621C12.9734 22.5965 12.9612 22.5291 12.9734 22.5046C12.9857 22.48 13.0961 22.3697 13.1328 22.3513C13.1635 22.3268 13.188 22.3022 13.1942 22.2777C13.2003 22.2532 13.1942 22.2041 13.2187 22.1674C13.2432 22.1306 13.2984 22.0325 13.3106 21.9099C13.3168 21.7873 13.2984 21.6401 13.2555 21.5604C13.2125 21.4807 13.1083 21.3765 12.9857 21.352C12.8631 21.3275 12.765 21.3091 12.7527 21.3029C12.7343 21.2968 12.7221 21.2784 12.6792 21.2845C12.6301 21.2845 12.6179 21.2968 12.5749 21.3091C12.532 21.3213 12.3972 21.3581 12.3052 21.3765C12.2132 21.3888 12.1274 21.4255 12.0906 21.4317C12.06 21.4317 12.0354 21.4255 11.9925 21.4562C11.9557 21.493 11.9128 21.5359 11.8944 21.542C11.8699 21.5543 11.7841 21.5482 11.7289 21.5604C11.6799 21.5727 11.6615 21.5727 11.6308 21.6033C11.6002 21.6279 11.5634 21.6401 11.5389 21.6463C11.5082 21.6524 11.3365 21.6585 11.2752 21.6708C11.2262 21.683 11.1649 21.726 11.1158 21.7321C11.1158 21.7321 10.981 21.7566 10.938 21.7689C10.8951 21.775 10.8032 21.824 10.748 21.8302C10.6867 21.8302 10.6254 21.8547 10.4844 21.7873C10.3434 21.726 10.2759 21.6953 10.2637 21.6646C10.2453 21.6279 10.2269 21.4378 10.2269 21.3888C10.2391 21.3336 10.2391 21.3458 10.2269 21.3275C10.2085 21.3029 10.2024 21.2784 10.2269 21.2478C10.2453 21.211 10.3127 21.1251 10.3495 21.0577C10.3801 20.9841 10.4537 20.8983 10.4905 20.8493C10.5273 20.8002 10.5273 20.7389 10.6131 20.6776C10.7051 20.6163 10.6622 20.555 10.6622 20.555C10.6622 20.555 10.6805 20.5059 10.7112 20.4753C10.7296 20.4446 10.9687 20.0829 11.0423 19.9848C11.1158 19.8867 11.2936 19.6476 11.3304 19.6047C11.3672 19.5557 11.3304 19.5189 11.3672 19.4882C11.404 19.4453 11.453 19.384 11.4714 19.3595C11.4837 19.335 11.4775 19.2859 11.5021 19.2553C11.5266 19.2185 11.5266 19.2185 11.6002 19.151C11.6799 19.0897 11.7718 18.9426 11.8147 18.8568C11.8638 18.7771 11.9496 18.6299 11.9925 18.5502C12.0354 18.4644 12.0416 18.4337 12.0477 18.3602C12.06 18.2866 12.06 18.2866 12.0784 18.256C12.0968 18.2253 12.0845 18.1701 12.0784 18.1272C12.0722 18.0966 12.0722 18.0046 12.0171 17.9617C11.9619 17.9126 11.8944 17.8452 11.7841 17.8145C11.6737 17.7778 11.5327 17.7655 11.4101 17.7716C11.2875 17.7839 11.2568 17.8268 11.2139 17.8575C11.1649 17.8881 11.0116 18.0046 10.9687 18.0352C10.9258 18.0659 10.6438 18.3295 10.5947 18.3602C10.5518 18.397 10.5089 18.4154 10.4905 18.446C10.4782 18.4767 10.4721 18.5012 10.4598 18.5196C10.4476 18.538 10.1349 18.7771 10.0613 18.8445C9.98778 18.9119 9.79159 19.0591 9.74868 19.0897C9.69963 19.1204 9.68737 19.1204 9.63832 19.151C9.58315 19.1878 9.51571 19.3104 9.49119 19.335C9.46666 19.3534 9.41762 19.3595 9.38696 19.3595C9.36244 19.3534 9.33792 19.3227 9.34405 19.384C9.34405 19.4453 9.2337 19.5128 9.2153 19.5311C9.19691 19.5495 8.81067 19.8193 8.77389 19.8377C8.74324 19.8561 8.71258 19.8806 8.65741 19.8867C8.60223 19.8867 8.46735 19.8867 8.4367 19.8745C8.40605 19.8561 8.357 19.7396 8.35087 19.8193C8.35087 19.8193 8.36313 19.8377 8.32022 19.8438C8.28343 19.8438 8.23439 19.8316 8.20986 19.807C8.18534 19.7825 8.14242 19.7335 8.1179 19.6599C8.09951 19.5802 8.10564 19.4882 8.13629 19.4024C8.16695 19.3227 8.17308 19.2737 8.1976 19.2123C8.22825 19.1633 8.31409 19.0223 8.36926 18.9426C8.42444 18.8568 8.48575 18.728 8.50414 18.7035C8.52866 18.679 8.52866 18.6299 8.54092 18.6054C8.55318 18.5748 8.5961 18.5502 8.64514 18.4889C8.68806 18.4276 8.81067 18.2314 8.84133 18.1701C8.87811 18.1149 8.8965 18.0046 8.94555 17.9801C8.9946 17.9555 8.9946 17.931 9.01299 17.8942C9.03138 17.8513 9.16013 17.649 9.20304 17.5938C9.23983 17.5325 9.26435 17.459 9.30113 17.3915C9.33179 17.3241 9.38696 17.1892 9.44214 17.1156C9.50345 17.0298 9.63832 16.8152 9.67511 16.7846C9.72415 16.7478 9.73642 16.6865 9.74868 16.6681C9.76094 16.6436 9.75481 16.5516 9.77933 16.5393C9.80385 16.5332 9.81612 16.478 9.82225 16.4413C9.82838 16.4045 9.80385 16.2757 9.82838 16.2512C9.8529 16.2205 9.89581 16.1899 9.90195 16.147C9.90808 16.1041 9.90808 15.9876 9.88968 15.9385C9.86516 15.8834 9.78546 15.7424 9.73642 15.6933C9.68124 15.6504 9.59541 15.5216 9.42375 15.4971C9.25209 15.4726 9.17239 15.4481 9.17239 15.4481C9.17239 15.4481 9.09269 15.4297 9.03751 15.4603C8.98234 15.4971 8.94555 15.5094 8.90877 15.5216C8.87198 15.5278 8.81067 15.5462 8.78002 15.5768C8.74324 15.6075 8.49188 15.8711 8.46122 15.914C8.43057 15.9447 8.38152 16.006 8.33248 16.0857C8.28343 16.1715 7.86041 16.6497 7.82976 16.6742C7.7991 16.7049 7.76845 16.7355 7.7378 16.8091C7.71327 16.8949 7.73166 16.8704 7.70101 16.9011C7.67036 16.9378 7.61518 16.9256 7.57227 16.9992C7.52935 17.0666 7.44352 17.226 7.40674 17.2566C7.40674 17.2566 7.13698 17.5203 7.10633 17.5632C7.06955 17.6061 7.06341 17.649 7.05115 17.6797C7.0205 17.7103 6.83045 17.8942 6.79979 17.9494C6.76914 17.9985 6.77527 18.0414 6.75075 18.072C6.72622 18.1027 6.42582 18.4644 6.36451 18.5318C6.30933 18.6054 6.1622 18.7464 6.09476 18.7648C6.03345 18.7893 5.93536 18.8016 5.85566 18.6974C5.77596 18.6054 5.72691 18.4951 5.73304 18.4092C5.73304 18.3295 5.7637 18.1149 5.79435 17.9923C5.825 17.8697 5.99053 17.3609 6.02732 17.2812C6.0641 17.1953 6.32773 16.619 6.37064 16.5332C6.41356 16.4413 6.4626 16.3677 6.48712 16.3064C6.51165 16.2512 6.53004 16.1776 6.54843 16.1102C6.57296 16.0489 6.64039 15.9201 6.65879 15.9017C6.67105 15.8834 6.71396 15.9079 6.72622 15.8098C6.75075 15.7178 6.83658 15.5891 6.83658 15.5891C6.83658 15.5891 6.91015 15.4665 6.93467 15.4297C6.95306 15.3868 6.98985 15.3009 6.96532 15.2458C6.94693 15.1906 6.94693 15.1661 6.96532 15.1293C6.97758 15.0986 6.96532 15.0251 6.87949 14.9454C6.79979 14.8657 6.76301 14.7982 6.51165 14.7982C6.25416 14.8043 6.23576 14.8595 6.19285 14.8595C6.15606 14.8595 6.11928 14.9024 6.10089 14.9392C6.08863 14.976 5.99053 15.0496 5.93536 15.0925C5.88018 15.1354 5.54912 15.4481 5.50621 15.4971C5.46329 15.54 5.27324 15.7362 5.24258 15.7669C5.22419 15.7914 5.2058 15.8282 5.18741 15.8588C5.16289 15.8834 4.82569 16.2512 4.78891 16.3064C4.75213 16.3677 4.73986 16.429 4.71534 16.4658C4.69082 16.4964 4.46398 16.8275 4.4272 16.8827C4.39041 16.9378 4.27393 17.0911 4.26167 17.134C4.24327 17.1708 4.24327 17.1708 4.23714 17.2076C4.23101 17.2505 4.20649 17.275 4.17584 17.3179C4.15131 17.3609 3.949 17.6981 3.92448 17.741C3.89995 17.7778 3.88769 17.8084 3.86317 17.8207C3.84478 17.8329 3.82025 17.8697 3.80799 17.9126C3.79573 17.9433 3.58729 18.2682 3.5505 18.3111C3.51372 18.3602 3.34819 18.5196 3.27462 18.5318C3.20105 18.5441 3.01713 18.4951 2.95582 18.4644C2.89451 18.4399 2.75351 18.2927 2.72285 18.2376C2.67994 18.1824 2.62476 18.0782 2.59411 18.0475C2.56958 18.0169 2.56345 17.9862 2.57571 17.931C2.58184 17.882 2.58798 17.8268 2.56345 17.7716C2.54506 17.7164 2.54506 17.6 2.54506 17.5448C2.54506 17.4896 2.56345 17.1524 2.58798 17.0359C2.6125 16.9133 2.60637 16.7171 2.60637 16.6804C2.6125 16.6436 2.63702 16.6436 2.63702 16.6007C2.64315 16.57 2.63089 16.478 2.62476 16.4474C2.61863 16.4229 2.60024 16.3983 2.61863 16.3738C2.63089 16.3493 2.64928 16.3432 2.63702 16.2941C2.62476 16.2451 2.59411 16.2022 2.57571 16.1592C2.55119 16.1163 2.44084 16.0121 2.39179 15.9937C2.34275 15.9692 2.34275 15.9569 2.20787 15.914Z" fill="#00A040"></path> <path d="M11.1896 28.5618C11.1896 28.5618 10.6623 28.8192 10.6255 28.8376C10.5826 28.8499 10.5336 28.8622 10.4907 28.8806C10.4907 28.8806 10.1596 29.1013 10.0799 29.1564C10.0002 29.1994 9.77338 29.371 9.71207 29.4262C9.65076 29.4752 9.60785 29.5243 9.59559 29.5549C9.58945 29.5917 9.56493 29.604 9.51589 29.6346C9.47297 29.6653 9.46071 29.6653 9.3994 29.7266C9.33809 29.7818 9.099 30.076 9.05608 30.1557C9.01317 30.2293 8.96412 30.3274 8.95799 30.3581C8.95186 30.3887 8.96412 30.45 8.9396 30.4807C8.91507 30.5113 8.85377 30.5972 8.8415 30.6953C8.82924 30.7995 8.8415 30.8485 8.85377 30.9405C8.87216 31.0386 8.95186 31.247 8.99477 31.2838C9.03156 31.3206 9.05608 31.339 9.099 31.3512C9.14191 31.3574 9.15417 31.388 9.18483 31.4187C9.20935 31.4432 9.27066 31.48 9.34423 31.48C9.42392 31.48 9.48523 31.4739 9.53428 31.4555C9.58945 31.4371 9.68142 31.4125 9.72433 31.4003C9.76111 31.388 9.90212 31.3083 9.96956 31.2715C10.0309 31.2409 10.0677 31.2102 10.129 31.1489C10.1903 31.0938 10.3068 30.9344 10.3681 30.8669C10.4294 30.8056 10.5826 30.6217 10.6562 30.5604C10.7298 30.5113 10.8769 30.3581 10.9382 30.3213C10.9995 30.2845 11.1712 30.1619 11.2264 30.1557C11.2693 30.1435 11.3306 30.0944 11.398 30.0638C11.4716 30.027 11.7413 29.9412 11.8027 29.9412C11.864 29.9412 11.8762 29.9228 11.962 29.9044C12.054 29.886 12.2625 29.8553 12.3728 29.8553C12.4832 29.8553 12.6426 29.8186 12.7652 29.8247C12.8817 29.8308 12.9859 29.8615 13.0533 29.886C13.1208 29.9105 13.1514 29.9473 13.2005 29.9596C13.2434 29.978 13.3476 29.9963 13.415 30.027C13.4886 30.0577 13.599 30.1006 13.697 30.1619C13.8013 30.2293 13.9975 30.3213 14.0588 30.3703C14.1262 30.4132 14.163 30.4439 14.2427 30.4623C14.3163 30.4868 14.5308 30.4991 14.6167 30.4868C14.7025 30.4745 14.8251 30.4439 14.9722 30.2538C14.9722 30.2538 15.0274 30.2477 14.9906 29.9105C14.9539 29.5672 14.9722 29.6408 14.9293 29.5365C14.8987 29.4262 14.8496 29.4139 14.8067 29.371C14.7638 29.3281 14.5676 29.181 14.5492 29.1319C14.5186 29.089 14.5002 29.0522 14.4511 29.0216C14.4021 28.9909 14.3163 28.8989 14.2856 28.8989C14.2488 28.8989 14.2366 28.8989 14.212 28.8928C14.1936 28.8806 14.1936 28.8376 14.1446 28.8192C14.0955 28.7947 14.0281 28.7518 13.9852 28.7334C13.9484 28.7089 13.9484 28.6844 13.8994 28.6844C13.8503 28.6844 13.8197 28.6905 13.7767 28.6721C13.7277 28.6476 13.6235 28.5618 13.5928 28.5618C13.556 28.5618 13.507 28.5618 13.4886 28.5495C13.4702 28.5372 13.4457 28.4943 13.4028 28.4821C13.366 28.4698 13.1085 28.4637 13.0472 28.4514C12.9798 28.4453 12.9062 28.4085 12.8387 28.4024C12.7774 28.3962 12.5138 28.4146 12.4525 28.4207C12.3912 28.4207 12.3299 28.4146 12.287 28.4024C12.2441 28.3962 11.9007 28.4024 11.8333 28.4269C11.772 28.4575 11.7291 28.4943 11.68 28.5004C11.631 28.5127 11.4225 28.5188 11.3551 28.5311C11.2815 28.5434 11.257 28.5434 11.1896 28.5618Z" fill="#00A040"></path> <path d="M12.1702 31.4186C12.1396 31.3941 12.0047 31.4002 11.9618 31.4186C11.9127 31.437 11.8269 31.4677 11.784 31.4738C11.7349 31.4738 11.7227 31.529 11.6859 31.5474C11.6552 31.5719 11.643 31.5903 11.6 31.5964C11.5633 31.5964 11.502 31.6087 11.4774 31.6393C11.4529 31.67 11.3977 31.7313 11.3732 31.7804C11.3548 31.8233 11.2874 31.9765 11.2506 32.0746C11.2077 32.1789 11.2016 32.2218 11.1954 32.2708C11.1893 32.3199 11.1709 32.4486 11.1709 32.516C11.1709 32.5835 11.1709 32.7735 11.2261 32.8471C11.269 32.9207 11.3364 32.9881 11.4161 33.0494C11.4958 33.1107 11.6 33.1966 11.6491 33.2211C11.692 33.2517 11.6981 33.2579 11.7349 33.264C11.7717 33.2701 11.8269 33.2763 11.8637 33.264C11.9005 33.2456 11.9495 33.2701 11.9802 33.2885C12.0047 33.313 12.0599 33.3376 12.115 33.3314C12.1641 33.3253 12.2438 33.2763 12.2928 33.264C12.3419 33.2579 12.397 33.2456 12.4338 33.2517C12.4829 33.264 12.5135 33.2395 12.5319 33.2211C12.5503 33.2088 12.6178 33.1536 12.6607 33.1352C12.7036 33.123 12.7526 33.1046 12.7649 33.0678C12.7894 33.031 12.8323 32.9452 12.8507 32.9207C12.8752 32.8962 12.8875 32.8471 12.9182 32.8164C12.9488 32.7858 12.9917 32.7184 13.004 32.6877C13.0162 32.6632 13.0346 32.6203 13.0346 32.5957C13.0346 32.5712 13.0469 32.4854 13.0469 32.418C13.0469 32.3444 13.0653 32.2831 13.0346 32.2402C13.004 32.1972 12.9856 32.1114 12.9611 32.0746C12.9366 32.0317 12.8936 31.9765 12.8875 31.9459C12.8752 31.9091 12.8569 31.8539 12.8569 31.8233C12.8569 31.7804 12.8446 31.7129 12.7955 31.6761C12.7465 31.6393 12.6423 31.5964 12.581 31.578C12.5197 31.5535 12.4584 31.529 12.4032 31.5045C12.348 31.4799 12.299 31.4554 12.2744 31.4554C12.256 31.4554 12.2315 31.4554 12.2131 31.4432C12.2009 31.437 12.1947 31.4248 12.1702 31.4186Z" fill="#00A040"></path> <path d="M24.3765 28.2613C24.3765 28.2613 24.1804 28.2551 24.1007 28.2429C24.0087 28.2245 23.5428 28.2551 23.4876 28.2551C23.4201 28.2551 23.3711 28.2551 23.3404 28.2306C23.3037 28.2183 23.2485 28.2183 23.1872 28.2551C23.1259 28.2858 22.9542 28.2613 22.8684 28.2796C22.7825 28.2919 22.6661 28.3042 22.6415 28.2919C22.617 28.2858 22.5741 28.2735 22.5005 28.3042C22.4208 28.3348 22.0162 28.4084 21.9365 28.4329C21.8629 28.4574 21.8507 28.4452 21.771 28.4636C21.6851 28.4881 21.6238 28.4942 21.5871 28.5126C21.5503 28.5249 21.0721 28.6843 21.0169 28.7211C20.9678 28.7578 20.9127 28.7395 20.8636 28.7885C20.8207 28.8314 20.7594 28.8621 20.7226 28.8805C20.7226 28.8805 20.5755 28.9418 20.5142 28.9602C20.4529 28.9785 20.4651 28.954 20.3977 29.0031C20.3241 29.046 20.2199 29.1012 20.2015 29.1318C20.177 29.1625 20.1463 29.1931 20.1218 29.2176C20.1034 29.236 19.8521 29.3648 19.7724 29.4261C19.6865 29.4935 19.5394 29.5978 19.4842 29.6284C19.4352 29.6652 19.1838 29.892 19.1041 29.9595C19.0244 30.033 18.8589 30.1802 18.8098 30.2292C18.7669 30.2844 18.6872 30.3825 18.6627 30.4009C18.6382 30.4254 18.583 30.4131 18.5953 30.4377C18.6014 30.4561 18.6259 30.5051 18.583 30.5051C18.5339 30.5051 18.5156 30.5235 18.4972 30.5419C18.4788 30.5664 18.4236 30.6277 18.4052 30.6584C18.3868 30.689 18.2887 30.8178 18.2642 30.8607C18.2397 30.9097 18.2213 30.9465 18.1968 30.9465C18.1722 30.9588 18.1477 30.9465 18.1477 30.9956C18.1477 31.0507 18.1232 31.0753 18.1048 31.0937C18.0864 31.1182 18.0006 31.2408 17.976 31.2592C17.9577 31.2837 17.8963 31.3328 17.8841 31.3695C17.878 31.4002 17.8596 31.437 17.8289 31.5044C17.7921 31.5719 17.5592 31.9397 17.5285 32.0071C17.4979 32.0684 17.4427 32.1298 17.4427 32.1543C17.4365 32.1727 17.4488 32.2401 17.4059 32.2585C17.3568 32.2769 17.3201 32.3137 17.3078 32.3443C17.2955 32.3811 17.2955 32.424 17.2771 32.4547C17.2649 32.5037 17.2281 32.5099 17.2158 32.5282C17.1974 32.5528 17.1729 32.5896 17.1607 32.6386C17.1484 32.6938 17.0871 32.8103 17.0564 32.847C17.038 32.8777 16.989 32.9206 16.9767 32.9451C16.9767 32.9697 16.9951 33.0126 16.9767 33.0432C16.9583 33.08 16.8848 33.1045 16.8848 33.1413C16.8786 33.1781 16.897 33.2272 16.8848 33.2578C16.8725 33.2823 16.8235 33.3252 16.7928 33.3743C16.756 33.4295 16.756 33.5153 16.756 33.5889C16.756 33.6747 16.7376 33.6808 16.707 33.7299C16.6702 33.7789 16.6641 33.8218 16.6273 33.9261C16.5905 34.0241 16.4618 34.4594 16.4372 34.582C16.4127 34.7047 16.4066 34.7782 16.3821 34.8211C16.3514 34.8702 16.3391 34.8763 16.3269 34.9131C16.3146 34.9499 16.2778 35.0418 16.2778 35.0786C16.2778 35.0786 16.2901 35.1399 16.2901 35.1706C16.2901 35.2012 16.2472 35.2564 16.2349 35.2993C16.2165 35.33 16.2104 35.4036 16.2165 35.471C16.2227 35.5384 16.2165 35.612 16.1981 35.6488C16.1797 35.6856 16.143 35.7714 16.143 35.8021C16.143 35.8327 16.1675 35.8634 16.1614 35.9492C16.1552 36.035 16.1184 36.1944 16.1062 36.2557C16.1 36.3232 16.0571 36.7523 16.0571 36.8259C16.0633 36.8933 16.1062 37.255 16.1184 37.3715C16.1368 37.488 16.1184 37.4941 16.1307 37.5309C16.1368 37.5677 16.1736 37.5984 16.1614 37.629C16.1491 37.6597 16.0755 37.7087 16.1859 37.721C16.1859 37.721 16.2227 37.7516 16.2533 37.8007C16.284 37.8375 16.3024 37.8681 16.3514 37.8988C16.3943 37.9294 16.4801 37.9907 16.5292 38.0214C16.5782 38.052 16.615 38.0766 16.6702 38.0766C16.7192 38.0827 16.7499 38.052 16.7989 38.052C16.848 38.052 16.848 38.0643 16.9216 38.052C16.9951 38.0337 17.0994 37.9662 17.1484 37.9172C17.1913 37.8681 17.2465 37.7823 17.2833 37.7149C17.3201 37.6413 17.3814 37.5187 17.412 37.4512C17.4427 37.3838 17.4611 37.3286 17.4979 37.2796C17.5346 37.2305 17.5592 37.157 17.5714 37.0895C17.5837 37.0221 17.6634 36.7155 17.694 36.5868C17.7186 36.458 17.7492 36.2741 17.7553 36.219C17.7676 36.1515 17.7983 36.0289 17.8044 35.9982C17.8105 35.9676 17.8228 35.9308 17.8473 35.8266C17.878 35.7224 17.8841 35.5507 17.9025 35.471C17.9209 35.3913 17.9454 35.3852 17.9638 35.2993C17.976 35.2135 17.9577 35.1032 17.9883 35.0418C18.019 34.9805 18.1293 34.674 18.1538 34.5943C18.1784 34.5085 18.2397 34.3307 18.2581 34.2387C18.2765 34.1468 18.3868 33.7605 18.4175 33.7176C18.4481 33.6808 18.4542 33.6379 18.4788 33.5643C18.5033 33.4908 18.5156 33.4111 18.5462 33.3682C18.5769 33.3252 18.632 33.2333 18.6504 33.1965C18.6688 33.1536 18.6627 33.0616 18.7179 33.0248C18.7792 32.9881 18.7853 32.9451 18.8037 32.8961C18.8282 32.847 18.9018 32.7551 18.9263 32.6876C18.957 32.6202 19.0305 32.4485 19.0612 32.3995C19.098 32.3566 19.1102 32.3321 19.1286 32.2953C19.1409 32.2585 19.147 32.2217 19.1838 32.1849C19.1838 32.1849 19.2329 32.1114 19.2574 32.0746C19.288 32.0501 19.3187 31.9887 19.3432 31.9581C19.38 31.9213 19.3984 31.8539 19.4229 31.8355C19.4413 31.811 19.4536 31.7926 19.4658 31.7926C19.4781 31.7926 19.5394 31.7558 19.5333 31.7006C19.5271 31.6577 19.5823 31.6086 19.5946 31.5841C19.613 31.5657 19.6681 31.4554 19.7233 31.3941C19.7785 31.3266 19.8521 31.2285 19.8888 31.2101C19.9256 31.1917 19.9379 31.1488 19.9747 31.1427C20.0053 31.1304 20.0298 31.1427 20.0482 31.1243C20.0666 31.1059 20.0544 31.0937 20.1034 31.0569C20.1463 31.0201 20.226 30.922 20.2689 30.8852C20.3119 30.8484 20.3854 30.7319 20.4161 30.7258C20.4529 30.7258 20.4406 30.7503 20.5019 30.7381C20.5571 30.7258 20.5755 30.6952 20.6184 30.6829C20.6613 30.6768 20.7226 30.6155 20.7655 30.5909C20.8146 30.5603 21.2008 30.2967 21.2805 30.2476C21.3602 30.1986 21.6054 30.0637 21.679 30.0392C21.7465 30.0085 21.8262 29.984 21.8813 29.9717C21.9426 29.9595 21.9304 29.9349 21.9733 29.9349C22.0223 29.9349 22.0653 29.9349 22.0836 29.9227C22.1082 29.9104 22.1327 29.8614 22.1879 29.843C22.2369 29.8307 22.5005 29.7572 22.617 29.7326C22.7335 29.7081 23.1075 29.61 23.2178 29.61C23.3282 29.61 23.6286 29.5978 23.6776 29.5916C23.7206 29.5855 23.7083 29.5978 23.7389 29.6039C23.7635 29.61 24.0823 29.61 24.1804 29.61C24.2784 29.61 24.5911 29.5916 24.6524 29.5855C24.7076 29.5855 24.726 29.5978 24.7566 29.6161C24.7934 29.6284 24.7996 29.6284 24.8731 29.6284C24.9528 29.6284 25.149 29.6345 25.29 29.6223C25.4372 29.61 25.5782 29.5303 25.6517 29.4751C25.7253 29.4138 25.7621 29.3035 25.7621 29.2728C25.7682 29.2483 25.7805 29.236 25.7866 29.1993C25.7927 29.1747 25.7682 29.1502 25.7621 29.1257C25.756 29.1012 25.7621 28.9479 25.7498 28.9234C25.7376 28.8927 25.6946 28.8498 25.6517 28.7946C25.6149 28.7517 25.5659 28.6843 25.5475 28.6598C25.523 28.6352 25.4188 28.5371 25.3881 28.5126C25.3513 28.482 25.2839 28.4881 25.2594 28.4697C25.241 28.4636 25.1858 28.4145 25.1735 28.3961C25.149 28.3777 25.1245 28.3593 25.0877 28.3593C25.0571 28.3593 24.916 28.3532 24.867 28.341C24.818 28.3287 24.7566 28.2858 24.726 28.2735C24.6953 28.2613 24.6402 28.2429 24.6156 28.2674C24.5911 28.2919 24.6034 28.298 24.5543 28.3042C24.5053 28.3042 24.4992 28.3103 24.4746 28.2919C24.444 28.2735 24.4133 28.2674 24.3765 28.2613Z" fill="#00A040"></path> <path d="M22.0532 31.5657C22.0532 31.5657 21.9919 31.627 21.9673 31.6822C21.9428 31.7313 21.9122 31.7803 21.8938 31.7987C21.8754 31.8232 21.8325 31.8784 21.8141 31.9397C21.7957 31.9949 21.7589 32.093 21.7466 32.1175C21.7344 32.1482 21.6792 32.2217 21.6669 32.2524C21.6485 32.2892 21.624 32.3627 21.624 32.4179C21.6302 32.4669 21.6547 32.6202 21.6792 32.6693C21.7099 32.7183 21.7344 32.8164 21.7773 32.8593C21.8141 32.8961 21.7896 32.9084 21.8202 32.939C21.8447 32.9635 21.8938 33.0003 21.9244 33.0432C21.949 33.08 21.9796 33.1413 21.9919 33.172C22.0164 33.1965 22.0164 33.1965 22.0532 33.2149C22.09 33.221 22.1267 33.221 22.1635 33.2333C22.1881 33.2456 22.2432 33.2762 22.2678 33.2823C22.3045 33.3007 22.3842 33.313 22.421 33.3253C22.4517 33.3253 22.4823 33.3314 22.5069 33.3375C22.5314 33.3498 22.6172 33.3559 22.6846 33.3559C22.7582 33.3559 22.8379 33.3253 22.9053 33.3007C22.9789 33.2762 23.0341 33.221 23.0647 33.221C23.1015 33.2149 23.1567 33.172 23.1935 33.1475C23.2364 33.1229 23.2548 33.0739 23.2916 33.0555C23.3345 33.031 23.3713 33.0248 23.4019 32.9942C23.4265 32.9635 23.451 32.9268 23.4571 32.9084C23.4632 32.89 23.4632 32.7796 23.4755 32.7551C23.4878 32.7428 23.5 32.6877 23.5246 32.6509C23.5429 32.608 23.5613 32.5344 23.5675 32.5283C23.5859 32.5099 23.5736 32.4853 23.5981 32.4731C23.6104 32.4669 23.6594 32.4302 23.6043 32.3995C23.6043 32.3995 23.5859 32.3075 23.5981 32.2953C23.6043 32.2708 23.6288 32.234 23.6043 32.1727C23.5736 32.1114 23.5736 32.0807 23.5552 32.0562C23.5368 32.0317 23.5 31.9949 23.4878 31.9581C23.4694 31.9152 23.451 31.8661 23.4326 31.8477C23.4142 31.8232 23.2487 31.6577 23.218 31.6332C23.1935 31.6086 23.169 31.5719 23.1383 31.5535C23.1077 31.5473 23.0647 31.5473 23.028 31.5289C22.9973 31.5167 22.9973 31.5044 22.9544 31.4983C22.9176 31.4922 22.887 31.4922 22.844 31.486C22.8011 31.4799 22.7582 31.4492 22.703 31.4309C22.654 31.4186 22.6111 31.3879 22.562 31.3879C22.5191 31.3879 22.4823 31.3941 22.4394 31.4063C22.3965 31.4186 22.3352 31.4186 22.3045 31.4431C22.2677 31.4615 22.231 31.486 22.2003 31.5167C22.1635 31.5412 22.1267 31.5228 22.0532 31.5657Z" fill="#00A040"></path> <path d="M13.5987 40.9948C13.5987 40.9948 13.3473 40.9764 13.286 40.9948C13.2247 41.0132 13.2308 41.0439 13.2002 41.05C13.1756 41.0561 13.0653 41.0561 13.0285 41.0807C12.9917 41.1052 12.8568 41.1788 12.8139 41.2094C12.7771 41.2401 12.7404 41.2646 12.7281 41.2891C12.7158 41.3198 12.6484 41.4976 12.6607 41.6324C12.6729 41.7673 12.7158 41.8899 12.7036 41.9328C12.6852 41.9696 12.7036 41.9941 12.7342 42.0248C12.7649 42.0555 12.7771 42.1045 12.8262 42.1106C12.8752 42.1229 12.8875 42.1045 12.9304 42.129C12.9733 42.1535 12.9856 42.1903 13.004 42.2087C13.0224 42.2332 13.2124 42.3743 13.3167 42.4356C13.4209 42.4907 13.5987 42.5827 13.7397 42.6379C13.8745 42.6931 14.0217 42.7482 14.0769 42.7605C14.1382 42.7789 14.132 42.8095 14.175 42.8095C14.2117 42.8095 14.2914 42.7973 14.3344 42.8218C14.3834 42.8463 14.4508 42.9015 14.4938 42.9076C14.5305 42.9138 14.5673 42.8831 14.6041 42.9138C14.647 42.9444 14.6348 42.9873 14.6899 42.9873C14.7512 42.9935 14.9045 42.9628 14.9597 42.9751C15.021 42.9751 15.1559 42.9873 15.2172 42.9996C15.2846 43.0118 15.2907 43.0302 15.3214 43.0425C15.3582 43.0486 16.1061 43.0486 16.2288 43.0486C16.3514 43.0486 16.4249 43.0609 16.4924 43.0425C16.5598 43.0302 16.6027 43.0057 16.6456 43.0057C16.6947 43.0057 16.7499 43.0302 16.8234 43.0302C16.897 43.0302 16.9093 43.0302 16.9399 42.9996C16.9767 42.9751 17.0196 42.9751 17.0564 42.9751C17.1054 42.9751 17.1177 42.9751 17.1606 42.9873C17.1974 42.9996 17.2771 42.9628 17.32 42.9567C17.3568 42.9567 17.8105 42.8954 17.9024 42.877C17.9944 42.8647 18.0925 42.877 18.1232 42.8463C18.1477 42.8157 18.1783 42.7789 18.2335 42.7789C18.2948 42.7789 18.3193 42.7544 18.3439 42.7298C18.3745 42.7053 18.4481 42.7053 18.5155 42.6808C18.583 42.6501 18.7914 42.5643 18.9385 42.5091C19.0857 42.454 19.2512 42.362 19.38 42.2946C19.5087 42.2332 19.521 42.2087 19.57 42.1965C19.6129 42.1781 19.6068 42.1658 19.6804 42.1535C19.7478 42.129 19.8336 42.0922 19.8643 42.0555C19.9011 42.0248 20.0298 41.9267 20.0605 41.8654C20.0972 41.798 20.1953 41.6754 20.226 41.6508C20.2628 41.6263 20.2996 41.6079 20.318 41.565C20.3302 41.516 20.318 41.4608 20.3363 41.4424C20.3547 41.424 20.3731 41.3872 20.3854 41.3075C20.3915 41.2278 20.3854 41.1236 20.3609 41.0623C20.3363 41.001 20.3057 40.9335 20.275 40.8967C20.2383 40.8538 20.1647 40.8232 20.1463 40.8048C20.134 40.7987 20.1034 40.7803 20.0789 40.7925C20.0543 40.8048 20.0298 40.8354 20.0114 40.8232C19.993 40.8048 19.9808 40.7864 19.9808 40.768C19.9808 40.7496 19.944 40.7128 19.8949 40.719C19.852 40.7251 19.7907 40.7251 19.7662 40.719C19.7294 40.7128 19.7294 40.7006 19.6865 40.7006C19.6313 40.7006 19.5945 40.7128 19.5394 40.7251C19.4964 40.7373 19.3003 40.7373 19.2512 40.7435C19.2022 40.7557 19.1592 40.7619 19.0857 40.7925C19.006 40.8232 18.7914 40.9029 18.681 40.9519C18.5707 41.001 18.4297 41.0623 18.3193 41.1175C18.2212 41.1788 17.9883 41.2707 17.9024 41.3198C17.8166 41.3627 17.7676 41.3872 17.7185 41.4056C17.6756 41.4117 17.5775 41.424 17.5101 41.4424C17.4426 41.4485 17.2097 41.5098 17.1361 41.5221C17.0564 41.5405 16.7437 41.5773 16.664 41.5773C16.5721 41.5773 16.0755 41.5711 15.9529 41.5711C15.818 41.5711 15.5912 41.5343 15.4992 41.516C15.4072 41.4976 15.1068 41.4485 14.9903 41.424C14.88 41.4056 14.5673 41.3136 14.4079 41.2646C14.2485 41.2217 14.0707 41.1788 13.9481 41.1297C13.8316 41.0868 13.7029 41.0316 13.5987 40.9948Z" fill="#00A040"></path> <path d="M5.40805 61.8455C5.40805 61.7658 5.46936 61.7045 5.54906 61.7045H7.28406C7.44346 61.7045 7.5722 61.5757 7.5722 61.4163V60.2086C7.5722 60.0492 7.44346 59.9204 7.28406 59.9204H1.49664C1.33724 59.9204 1.2085 60.0492 1.2085 60.2086V61.4163C1.2085 61.5757 1.33724 61.7045 1.49664 61.7045H3.22551C3.30521 61.7045 3.37265 61.7658 3.37265 61.8455V69.8154C3.37265 69.9748 3.50139 70.1036 3.65466 70.1036H5.11991C5.27931 70.1036 5.40805 69.9748 5.40805 69.8154V61.8455Z" fill="#00A040"></path> <path d="M16.7314 60.2086C16.7314 60.0492 16.6027 59.9204 16.4433 59.9204H14.9841C14.8247 59.9204 14.696 60.0492 14.696 60.2086V63.979C14.696 64.0587 14.6347 64.12 14.555 64.12H10.8949C10.8152 64.12 10.7539 64.0587 10.7539 63.979V60.2086C10.7539 60.0492 10.6191 59.9204 10.4658 59.9204H9.00055C8.84115 59.9204 8.7124 60.0492 8.7124 60.2086V69.8154C8.7124 69.9748 8.84115 70.1036 9.00055 70.1036H10.4658C10.6191 70.1036 10.7539 69.9748 10.7539 69.8154V66.045C10.7539 65.9653 10.8152 65.904 10.8949 65.904H14.555C14.6347 65.904 14.696 65.9653 14.696 66.045V69.8154C14.696 69.9748 14.8247 70.1036 14.9841 70.1036H16.4433C16.6027 70.1036 16.7314 69.9748 16.7314 69.8154V60.2086Z" fill="#00A040"></path> <path d="M18.3867 69.8154C18.3867 69.9748 18.5155 70.1036 18.6749 70.1036H20.134H23.8247C23.9841 70.1036 24.1128 69.9748 24.1128 69.8154V68.6077C24.1128 68.4483 23.9841 68.3195 23.8247 68.3195H20.5693C20.4896 68.3195 20.4221 68.2582 20.4221 68.1785V66.045C20.4221 65.9653 20.4896 65.904 20.5693 65.904H23.8247C23.9841 65.904 24.1128 65.7753 24.1128 65.6159V64.4081C24.1128 64.2487 23.9841 64.12 23.8247 64.12H20.5693C20.4896 64.12 20.4221 64.0587 20.4221 63.979V61.8455C20.4221 61.7658 20.4896 61.7045 20.5693 61.7045H23.8247C23.9841 61.7045 24.1128 61.5757 24.1128 61.4163V60.2086C24.1128 60.0492 23.9841 59.9204 23.8247 59.9204H20.134H18.6749C18.5155 59.9204 18.3867 60.0492 18.3867 60.2086V69.8154Z" fill="#00A040"></path> <path d="M40.3106 70.1036C40.1512 70.1036 40.0225 69.9748 40.0225 69.8154V60.2086C40.0225 60.0492 40.1512 59.9204 40.3106 59.9204H41.7697C41.9291 59.9204 42.0579 60.0492 42.0579 60.2086V69.8154C42.0579 69.9748 41.9291 70.1036 41.7697 70.1036H40.3106Z" fill="#00A040"></path> <path d="M65.281 68.3195C63.454 68.3195 61.9765 66.8359 61.9765 65.015C61.9765 63.1819 63.454 61.7044 65.281 61.7044C67.108 61.7044 68.5916 63.1819 68.5916 65.015C68.5916 66.8359 67.108 68.3195 65.281 68.3195ZM65.281 59.7303C62.3689 59.7303 60.0024 62.0968 60.0024 65.015C60.0024 67.9271 62.3689 70.2936 65.281 70.2936C68.1992 70.2936 70.5657 67.9271 70.5657 65.015C70.5657 62.0968 68.1992 59.7303 65.281 59.7303Z" fill="#00A040"></path> <path d="M48.446 64.5553C48.0352 64.7821 47.5815 64.825 47.1095 64.825H46.0182C45.9385 64.825 45.8772 64.7576 45.8772 64.6779V61.8455C45.8772 61.7658 45.9385 61.7045 46.0182 61.7045H47.0298C47.5386 61.7045 48.0046 61.7474 48.4215 61.9681C48.82 62.1643 49.1204 62.5934 49.1204 63.2494C49.1204 63.8993 48.82 64.3652 48.446 64.5553ZM49.9358 60.6254C49.3472 60.1718 48.6606 59.9204 46.9378 59.9204H44.1238C43.9705 59.9204 43.8418 60.0492 43.8418 60.2086V69.8154C43.8418 69.9748 43.9705 70.1036 44.1238 70.1036H45.5891C45.7485 70.1036 45.8772 69.9748 45.8772 69.8154V66.7439C45.8772 66.6704 45.9385 66.6029 46.0182 66.6029H47.1585C48.6422 66.6029 49.3349 66.3577 50.0216 65.7937C50.6653 65.2725 51.0945 64.2242 51.0945 63.2187C51.0945 62.2194 50.6776 61.2263 49.9358 60.6254Z" fill="#00A040"></path> <path d="M56.7165 64.5553C56.3057 64.7821 55.8521 64.825 55.3861 64.825H54.2887C54.2151 64.825 54.1477 64.7576 54.1477 64.6779V61.8455C54.1477 61.7658 54.2151 61.7045 54.2887 61.7045H55.3003C55.8091 61.7045 56.2812 61.7474 56.692 61.9681C57.0905 62.1643 57.3909 62.5934 57.3909 63.2494C57.3909 63.8993 57.0905 64.3652 56.7165 64.5553ZM58.2124 60.6254C57.6177 60.1718 56.9311 59.9204 55.2083 59.9204H52.4004C52.241 59.9204 52.1123 60.0492 52.1123 60.2086V69.8154C52.1123 69.9748 52.241 70.1036 52.4004 70.1036H53.8596C54.019 70.1036 54.1477 69.9748 54.1477 69.8154V66.7439C54.1477 66.6704 54.2151 66.6029 54.2887 66.6029H55.429C56.9188 66.6029 57.6054 66.3577 58.2921 65.7937C58.9419 65.2725 59.365 64.2242 59.365 63.2187C59.365 62.2194 58.9542 61.2263 58.2124 60.6254Z" fill="#00A040"></path> <path d="M36.031 66.7807C36.0494 66.8052 36.0739 66.8236 36.1107 66.8236C36.1597 66.8236 36.2026 66.7807 36.2026 66.7255V60.2086C36.2026 60.0492 36.3314 59.9204 36.4908 59.9204H37.8273C37.9867 59.9204 38.1093 60.0492 38.1093 60.2086V69.8154C38.1093 69.9748 37.9867 70.1036 37.8273 70.1036H36.4908C36.3927 70.1036 36.3007 70.0545 36.2517 69.9748L31.7946 63.2433C31.7824 63.2188 31.7517 63.2004 31.7149 63.2004C31.6659 63.2004 31.623 63.2433 31.623 63.2985V69.8154C31.623 69.9748 31.4942 70.1036 31.3348 70.1036H29.9983C29.8389 70.1036 29.7163 69.9748 29.7163 69.8154V60.2086C29.7163 60.0492 29.8389 59.9204 29.9983 59.9204H31.3348C31.439 59.9204 31.5249 59.9756 31.5739 60.0492L36.031 66.7807Z" fill="#00A040"></path> <path d="M78.0266 66.7807C78.045 66.8052 78.0695 66.8236 78.1063 66.8236C78.1553 66.8236 78.1982 66.7807 78.1982 66.7255V60.2086C78.1982 60.0492 78.327 59.9204 78.4864 59.9204H79.8229C79.9823 59.9204 80.111 60.0492 80.111 60.2086V69.8154C80.111 69.9748 79.9823 70.1036 79.8229 70.1036H78.4864C78.3883 70.1036 78.2963 70.0545 78.2473 69.9748L73.7964 63.2433C73.778 63.2188 73.7473 63.2004 73.7167 63.2004C73.6615 63.2004 73.6186 63.2433 73.6186 63.2985V69.8154C73.6186 69.9748 73.4898 70.1036 73.3304 70.1036H71.9939C71.8407 70.1036 71.7119 69.9748 71.7119 69.8154V60.2086C71.7119 60.0492 71.8407 59.9204 71.9939 59.9204H73.3304C73.4347 59.9204 73.5205 59.9756 73.5695 60.0492L78.0266 66.7807Z" fill="#00A040"></path> <path d="M17.9456 75.4619C17.9456 75.3148 18.0621 75.1921 18.2154 75.1921H19.227C19.3802 75.1921 19.4967 75.3148 19.4967 75.4619V81.1696C19.4967 81.752 19.4967 82.2609 19.84 82.8126C20.122 83.2541 20.6493 83.5606 21.2992 83.5606C21.949 83.5606 22.4701 83.2663 22.7276 82.8372C23.0832 82.3038 23.0832 81.7827 23.0832 81.1696V75.4619C23.0832 75.3148 23.2058 75.1921 23.3529 75.1921H24.3706C24.5178 75.1921 24.6404 75.3148 24.6404 75.4619V81.1696C24.6527 82.4325 24.4442 83.4012 23.5982 84.094C23.028 84.6151 22.2617 84.9339 21.3175 84.9339C20.6309 84.9339 19.6439 84.7438 18.994 84.1124C18.0499 83.2725 17.9334 82.3283 17.9456 81.1696V75.4619Z" fill="#00A040"></path> <path d="M1.2085 75.4619C1.2085 75.3148 1.33111 75.1921 1.47825 75.1921H5.95982C6.10696 75.1921 6.22957 75.3148 6.22957 75.4619V76.2405C6.22957 76.3876 6.10696 76.5102 5.95982 76.5102H2.89445C2.82088 76.5102 2.75957 76.5654 2.75957 76.6451V79.1832C2.75957 79.2568 2.82088 79.3181 2.89445 79.3181H5.95982C6.10696 79.3181 6.22957 79.4346 6.22957 79.5879V80.3665C6.22957 80.5136 6.10696 80.6301 5.95982 80.6301H2.89445C2.82088 80.6301 2.75957 80.6914 2.75957 80.765V84.4863C2.75957 84.6335 2.64309 84.7561 2.48982 84.7561H1.47825C1.33111 84.7561 1.2085 84.6335 1.2085 84.4863V75.4619Z" fill="#00A040"></path> <path d="M53.8101 76.6451C53.8101 76.5654 53.7488 76.5102 53.6752 76.5102H51.928C51.7747 76.5102 51.6582 76.3876 51.6582 76.2405V75.4619C51.6582 75.3148 51.7747 75.1921 51.928 75.1921H57.2433C57.3904 75.1921 57.5131 75.3148 57.5131 75.4619V76.2405C57.5131 76.3876 57.3904 76.5102 57.2433 76.5102H55.496C55.4225 76.5102 55.3612 76.5654 55.3612 76.6451V84.4863C55.3612 84.6335 55.2386 84.7561 55.0914 84.7561H54.0798C53.9266 84.7561 53.8101 84.6335 53.8101 84.4863V76.6451Z" fill="#00A040"></path> <path d="M38.9617 83.4441H37.4474C37.3738 83.4441 37.3125 83.3828 37.3125 83.3092V76.6451C37.3125 76.5654 37.3738 76.5102 37.4474 76.5102H38.974C40.2124 76.5102 40.9235 76.9333 41.4324 77.5218C41.9658 78.1778 42.2723 79.0606 42.2723 79.9864C42.2723 81.9911 41.2301 83.4441 38.9617 83.4441ZM42.7198 76.7432C41.6592 75.3883 40.0714 75.1921 38.79 75.1921H36.1477C35.9944 75.1921 35.8779 75.3148 35.8779 75.4619V84.4863C35.8779 84.6335 35.9944 84.7561 36.1477 84.7561H38.8943C42.2539 84.7561 43.7682 82.7513 43.7682 79.9619C43.7682 78.7051 43.4433 77.6077 42.7198 76.7432Z" fill="#00A040"></path> <path d="M58.4697 75.4619C58.4697 75.3148 58.5923 75.1921 58.7395 75.1921H59.7572C59.9043 75.1921 60.0269 75.3148 60.0269 75.4619V84.4863C60.0269 84.6335 59.9043 84.7561 59.7572 84.7561H58.7395C58.5923 84.7561 58.4697 84.6335 58.4697 84.4863V75.4619Z" fill="#00A040"></path> <path d="M11.9065 83.4992C9.95697 83.4992 8.38137 81.9236 8.38137 79.974C8.38137 78.0245 9.95697 76.4489 11.9065 76.4489C13.8561 76.4489 15.4317 78.0245 15.4317 79.974C15.4317 81.9236 13.8561 83.4992 11.9065 83.4992ZM11.9065 75.0143C9.1661 75.0143 6.94678 77.2336 6.94678 79.974C6.94678 82.7145 9.1661 84.9338 11.9065 84.9338C14.647 84.9338 16.8663 82.7145 16.8663 79.974C16.8663 77.2336 14.647 75.0143 11.9065 75.0143Z" fill="#00A040"></path> <path d="M66.1819 83.4992C64.2324 83.4992 62.6568 81.9236 62.6568 79.974C62.6568 78.0245 64.2324 76.4489 66.1819 76.4489C68.1315 76.4489 69.7071 78.0245 69.7071 79.974C69.7071 81.9236 68.1315 83.4992 66.1819 83.4992ZM66.1819 75.0143C63.4415 75.0143 61.2222 77.2336 61.2222 79.974C61.2222 82.7145 63.4415 84.9338 66.1819 84.9338C68.9224 84.9338 71.1417 82.7145 71.1417 79.974C71.1417 77.2336 68.9224 75.0143 66.1819 75.0143Z" fill="#00A040"></path> <path d="M34.0816 84.4863C34.0816 84.6335 33.9651 84.7561 33.8119 84.7561H32.9168C32.8248 84.7561 32.7451 84.7132 32.6961 84.6396L27.908 77.8038C27.8957 77.7793 27.865 77.767 27.8344 77.767C27.7853 77.767 27.7486 77.8038 27.7486 77.8529V84.4863C27.7486 84.6335 27.6259 84.7561 27.4788 84.7561H26.5837C26.4304 84.7561 26.314 84.6335 26.314 84.4863V75.4619C26.314 75.3148 26.4304 75.1921 26.5837 75.1921H27.4788C27.5708 75.1921 27.6505 75.2351 27.6995 75.3086L32.4876 82.1444C32.4999 82.1689 32.5305 82.1812 32.5612 82.1812C32.6102 82.1812 32.647 82.1444 32.647 82.0954V75.4619C32.647 75.3148 32.7696 75.1921 32.9168 75.1921H33.8119C33.9651 75.1921 34.0816 75.3148 34.0816 75.4619V84.4863Z" fill="#00A040"></path> <path d="M80.1112 84.4863C80.1112 84.6335 79.9886 84.7561 79.8414 84.7561H78.9463C78.8544 84.7561 78.7747 84.7132 78.7256 84.6396L73.9375 77.8038C73.9191 77.7793 73.8946 77.767 73.864 77.767C73.8149 77.767 73.772 77.8038 73.772 77.8529V84.4863C73.772 84.6335 73.6494 84.7561 73.5022 84.7561H72.6072C72.46 84.7561 72.3374 84.6335 72.3374 84.4863V75.4619C72.3374 75.3148 72.46 75.1921 72.6072 75.1921H73.5022C73.5942 75.1921 73.6739 75.2351 73.7229 75.3086L78.5111 82.1444C78.5294 82.1689 78.554 82.1812 78.5846 82.1812C78.6337 82.1812 78.6766 82.1444 78.6766 82.0954V75.4619C78.6766 75.3148 78.7931 75.1921 78.9463 75.1921H79.8414C79.9886 75.1921 80.1112 75.3148 80.1112 75.4619V84.4863Z" fill="#00A040"></path> <path d="M49.9539 81.2309C49.9416 81.2677 49.9048 81.2861 49.868 81.2861H46.8701C46.8333 81.2861 46.7965 81.2677 46.7843 81.2309C46.7781 81.2187 46.7781 81.2125 46.7781 81.2003C46.7781 81.188 46.7781 81.1757 46.7843 81.1696L48.2863 77.1724C48.2986 77.1356 48.3292 77.1111 48.3721 77.1111C48.4089 77.1111 48.4396 77.1356 48.4518 77.1724L49.9539 81.1696C49.9539 81.1757 49.96 81.188 49.96 81.2003C49.96 81.2125 49.9539 81.2187 49.9539 81.2309ZM52.8169 84.3821L49.0956 75.3577C49.0526 75.2596 48.9607 75.1921 48.8442 75.1921H47.8939C47.7775 75.1921 47.6855 75.2596 47.6426 75.3577L43.9212 84.3821C43.909 84.4189 43.9028 84.4496 43.9028 84.4863C43.9028 84.6335 44.0193 84.7561 44.1726 84.7561H45.2516C45.3681 84.7561 45.4662 84.6825 45.503 84.5844L46.2264 82.6594C46.2632 82.5552 46.3613 82.4877 46.4777 82.4877H50.2604C50.3769 82.4877 50.475 82.5552 50.5118 82.6594L51.2352 84.5844C51.272 84.6825 51.3701 84.7561 51.4866 84.7561H52.5717C52.7188 84.7561 52.8414 84.6335 52.8414 84.4863C52.8414 84.4496 52.8292 84.4189 52.8169 84.3821Z" fill="#00A040"></path> <path d="M53.3138 24.6626C53.5897 24.6626 53.8104 24.4419 53.8104 24.1721V22.9644C53.8104 22.6946 53.5897 22.4678 53.3138 22.4678H45.5339C45.2642 22.4678 45.0435 22.6946 45.0435 22.9644V24.1721C45.0435 24.4419 45.2642 24.6626 45.5339 24.6626H53.3138Z" fill="#00A040"></path> <path d="M55.9988 29.8982C55.9988 30.0331 55.8884 30.1435 55.7535 30.1435H43.0936C42.9587 30.1435 42.8483 30.0331 42.8483 29.8982V17.2383C42.8483 17.1034 42.9587 16.993 43.0936 16.993H55.7535C55.8884 16.993 55.9988 17.1034 55.9988 17.2383V29.8982ZM57.697 14.7982H41.1501C40.8804 14.7982 40.6597 15.0189 40.6597 15.2948V31.8417C40.6597 32.1114 40.8804 32.3321 41.1501 32.3321H57.697C57.9729 32.3321 58.1936 32.1114 58.1936 31.8417V15.2948C58.1936 15.0189 57.9729 14.7982 57.697 14.7982Z" fill="#00A040"></path> <path d="M75.7279 49.3756C75.7279 49.6454 75.5072 49.8661 75.2313 49.8661H74.0297C73.7538 49.8661 73.5331 49.6454 73.5331 49.3756V43.5392C73.5331 43.4043 73.4227 43.2939 73.2879 43.2939H67.4514C67.1816 43.2939 66.9609 43.0732 66.9609 42.7973V41.5957C66.9609 41.3198 67.1816 41.0991 67.4514 41.0991H75.2313C75.5072 41.0991 75.7279 41.3198 75.7279 41.5957V49.3756Z" fill="#00A040"></path> <path d="M69.8792 48.4069C69.8792 49.2161 69.2293 49.866 68.4201 49.866C67.6108 49.866 66.9609 49.2161 66.9609 48.4069C66.9609 47.6037 67.6108 46.9478 68.4201 46.9478C69.2293 46.9478 69.8792 47.6037 69.8792 48.4069Z" fill="#00A040"></path> <path d="M77.9163 51.8156C77.9163 51.9505 77.8059 52.0608 77.671 52.0608H65.0111C64.8762 52.0608 64.7658 51.9505 64.7658 51.8156V39.1556C64.7658 39.0207 64.8762 38.9104 65.0111 38.9104H77.671C77.8059 38.9104 77.9163 39.0207 77.9163 39.1556V51.8156ZM79.6145 36.7156H63.0676C62.7979 36.7156 62.5771 36.9363 62.5771 37.2122V53.759C62.5771 54.0288 62.7979 54.2495 63.0676 54.2495H79.6145C79.8904 54.2495 80.1111 54.0288 80.1111 53.759V37.2122C80.1111 36.9363 79.8904 36.7156 79.6145 36.7156Z" fill="#00A040"></path> <path d="M49.4266 47.1807C49.4266 47.4566 49.2059 47.6773 48.93 47.6773H47.7284C47.4525 47.6773 47.2318 47.4566 47.2318 47.1807V39.1556C47.2318 39.0207 47.1215 38.9104 46.9866 38.9104H41.1501C40.8804 38.9104 40.6597 38.6897 40.6597 38.4138V37.2122C40.6597 36.9363 40.8804 36.7156 41.1501 36.7156H48.93C49.2059 36.7156 49.4266 36.9363 49.4266 37.2122V47.1807Z" fill="#00A040"></path> <path d="M58.194 37.2122C58.194 36.9363 57.9733 36.7156 57.6974 36.7156H56.4958C56.2199 36.7156 55.9992 36.9363 55.9992 37.2122V38.6651C55.9992 38.8 55.8888 38.9104 55.754 38.9104H52.1123C51.8364 38.9104 51.6157 39.1311 51.6157 39.4008V40.6086C51.6157 40.8783 51.8364 41.0991 52.1123 41.0991H57.6974C57.9733 41.0991 58.194 40.8783 58.194 40.6086V37.2122Z" fill="#00A040"></path> <path d="M43.5534 54.2496C43.6883 54.2496 43.8109 54.1944 43.9028 54.1085L47.8633 50.1481C47.8878 50.1174 47.9062 50.0745 47.9062 50.0316C47.9062 49.9396 47.8326 49.8661 47.7468 49.8661H43.0936C42.9587 49.8661 42.8483 49.7557 42.8483 49.6208V47.9226C42.8483 47.7878 42.9587 47.6774 43.0936 47.6774H44.5466C44.8224 47.6774 45.0431 47.4567 45.0431 47.1808V45.9792C45.0431 45.7033 44.8224 45.4826 44.5466 45.4826H43.0936C42.9587 45.4826 42.8483 45.3722 42.8483 45.2374V43.5392C42.8483 43.4043 42.9587 43.2939 43.0936 43.2939H44.5466C44.8224 43.2939 45.0431 43.0732 45.0431 42.7973V41.5957C45.0431 41.3198 44.8224 41.0991 44.5466 41.0991H41.1501C40.8804 41.0991 40.6597 41.3198 40.6597 41.5957V51.5643C40.6597 51.8402 40.8804 52.0609 41.1501 52.0609H42.4498C42.5418 52.0609 42.6154 52.1345 42.6154 52.2264C42.6154 52.2693 42.597 52.3122 42.5663 52.3429L40.9417 53.9737C40.911 53.9982 40.8926 54.0411 40.8926 54.084C40.8926 54.176 40.9662 54.2496 41.0582 54.2496H43.5534Z" fill="#00A040"></path> <path d="M56.4956 54.2495C56.2197 54.2495 55.999 54.0288 55.999 53.7591V51.5152C55.999 51.3742 56.0542 51.2516 56.1462 51.1658L57.9118 49.394C57.9425 49.3695 57.9792 49.3511 58.0283 49.3511C58.1203 49.3511 58.1938 49.4185 58.1938 49.5105V53.7591C58.1938 54.0288 57.9731 54.2495 57.6972 54.2495H56.4956Z" fill="#00A040"></path> <path d="M58.0464 46.163C58.1384 46.071 58.1936 45.9484 58.1936 45.8136V43.7843C58.1936 43.5145 57.9729 43.2938 57.697 43.2938H56.4954C56.2195 43.2938 55.9988 43.5145 55.9988 43.7843V44.9062C55.9988 45.0411 55.9436 45.1637 55.8578 45.2557L47.1399 53.9736C47.1092 53.9981 47.0908 54.041 47.0908 54.0839C47.0908 54.1759 47.1644 54.2495 47.2563 54.2495H49.7516C49.8864 54.2495 50.0091 54.1943 50.101 54.1084L58.0464 46.163Z" fill="#00A040"></path> <path d="M75.7276 28.4391C75.7276 28.1694 75.5069 27.9486 75.231 27.9486H72.6867C72.5457 27.9486 72.4354 27.8383 72.4354 27.7034V19.4269C72.4354 19.292 72.5457 19.1817 72.6867 19.1817H79.6145C79.8904 19.1817 80.1111 18.961 80.1111 18.6912V17.4835C80.1111 17.2137 79.8904 16.993 79.6145 16.993H72.6867C72.5457 16.993 72.4354 16.8827 72.4354 16.7478V15.2948C72.4354 15.0189 72.2147 14.7982 71.9449 14.7982H70.7372C70.4674 14.7982 70.2467 15.0189 70.2467 15.2948V16.7478C70.2467 16.8827 70.1363 16.993 70.0015 16.993H63.0676C62.7979 16.993 62.5771 17.2137 62.5771 17.4835V18.6912C62.5771 18.961 62.7979 19.1817 63.0676 19.1817H70.0015C70.1363 19.1817 70.2467 19.292 70.2467 19.4269V27.7034C70.2467 27.8383 70.1241 27.9486 70.0015 27.9486H67.4511C67.1813 27.9486 66.9606 28.1694 66.9606 28.4452V29.6469C66.9606 29.9227 67.1813 30.1435 67.4511 30.1435H70.0015C70.1363 30.1435 70.2467 30.2599 70.2467 30.3887V31.8417C70.2467 32.1114 70.4674 32.3321 70.7372 32.3321H71.9449C72.2147 32.3321 72.4354 32.1114 72.4354 31.8417V30.3887C72.4354 30.2538 72.5396 30.1435 72.6867 30.1435H75.231V30.1373C75.5069 30.1373 75.7276 29.9166 75.7276 29.6469V28.4391Z" fill="#00A040"></path> <path d="M67.9109 24.8097C67.9967 24.7177 68.0519 24.5951 68.0519 24.4602V21.9589C68.0519 21.8669 67.9783 21.7933 67.8925 21.7933C67.8435 21.7933 67.8005 21.8117 67.776 21.8424L62.7182 26.9002C62.6323 26.9861 62.5771 27.1087 62.5771 27.2497V29.7449C62.5771 29.8369 62.6507 29.9104 62.7365 29.9104C62.7856 29.9104 62.8285 29.892 62.853 29.8614L67.9109 24.8097Z" fill="#00A040"></path> <path d="M74.7714 24.8097C74.6856 24.7177 74.6304 24.5951 74.6304 24.4602V21.9589C74.6304 21.8669 74.7039 21.7933 74.7959 21.7933C74.8388 21.7933 74.8817 21.8117 74.9124 21.8424L79.9641 26.9002C80.0561 26.9861 80.1113 27.1087 80.1113 27.2497V29.7449C80.1113 29.8369 80.0377 29.9104 79.9457 29.9104C79.8967 29.9104 79.8599 29.892 79.8292 29.8614L74.7714 24.8097Z" fill="#00A040"></path> <path d="M2.20781 6.65045C2.34881 8.12796 3.43395 8.44063 3.98572 8.44063C4.91146 8.44063 5.76976 7.72946 5.76976 6.74241C5.76976 5.49174 4.69689 5.21586 3.66079 4.87867C2.94349 4.66409 1.38629 4.20429 1.38629 2.51834C1.36176 0.942736 2.67374 0.06604 4.03477 0.06604C5.14443 0.06604 6.41962 0.679114 6.56063 2.36507H5.57358C5.46936 1.78878 5.17508 0.905951 3.99798 0.905951C3.10902 0.905951 2.37334 1.51289 2.37334 2.43864C2.36107 3.51765 3.2439 3.78127 4.58653 4.24107C5.43257 4.566 6.75681 5.03807 6.75681 6.67498C6.75681 8.12796 5.65941 9.28667 3.99798 9.28667C2.50821 9.28667 1.2698 8.34254 1.2085 6.65045H2.20781Z" fill="#00A040"></path> <path d="M14.0218 9.12726H13.1819V7.97468C12.8202 8.81459 11.9435 9.31731 10.7848 9.30505C8.76168 9.2744 8.05664 7.90111 8.05664 6.32551V2.6532H8.93334V6.15385C8.93334 7.55166 9.55867 8.48966 11.0117 8.4774C12.3604 8.46514 13.1329 7.66201 13.1329 6.31325V2.6532H14.0218V9.12726Z" fill="#00A040"></path> <path d="M21.7341 5.87802C21.7341 4.66414 20.8819 3.29085 19.1347 3.29085C18.4112 3.29085 17.7736 3.579 17.3077 4.05106C16.8602 4.517 16.5843 5.16686 16.5843 5.90255C16.5843 6.62597 16.8602 7.27583 17.3322 7.74177C17.7859 8.20157 18.4358 8.47746 19.1592 8.47746C20.6122 8.47746 21.7341 7.36779 21.7341 5.89028V5.87802ZM15.7505 2.65326H16.5965V4.00202C17.1238 3.06401 18.0618 2.47546 19.3063 2.47546C21.4827 2.47546 22.623 4.24112 22.623 5.91481C22.623 7.71724 21.3111 9.30511 19.3063 9.30511C17.8717 9.30511 16.946 8.47746 16.6456 7.80307V9.12731V11.5796H15.7505V2.65326Z" fill="#00A040"></path> <path d="M29.9618 5.87802C29.9618 4.66414 29.1097 3.29085 27.3624 3.29085C26.6451 3.29085 26.0014 3.579 25.5355 4.05106C25.0879 4.517 24.812 5.16686 24.812 5.90255C24.812 6.62597 25.0879 7.27583 25.56 7.74177C26.0136 8.20157 26.6635 8.47746 27.3869 8.47746C28.846 8.47746 29.9618 7.36779 29.9618 5.89028V5.87802ZM23.9844 2.65326H24.8243V4.00202C25.3515 3.06401 26.2957 2.47546 27.5341 2.47546C29.7105 2.47546 30.8508 4.24112 30.8508 5.91481C30.8508 7.71724 29.5388 9.30511 27.5341 9.30511C26.0995 9.30511 25.1737 8.47746 24.8733 7.80307V9.12731V11.5796H23.9844V2.65326Z" fill="#00A040"></path> <path d="M32.6958 5.90255C32.6958 7.36779 33.8116 8.47746 35.2462 8.47746C36.6869 8.47746 37.7966 7.36779 37.7966 5.89028C37.7966 4.41278 36.6869 3.30311 35.2462 3.30311C33.8116 3.30311 32.6958 4.41278 32.6958 5.89028V5.90255ZM31.813 5.87802C31.813 4.07559 33.1618 2.47546 35.2462 2.47546C37.3368 2.47546 38.6855 4.07559 38.6855 5.89028C38.6855 7.70498 37.3368 9.29284 35.2462 9.29284C33.1618 9.29284 31.813 7.70498 31.813 5.89028V5.87802Z" fill="#00A040"></path> <path d="M40.0225 2.65326H40.8624V3.71387C41.3344 2.75135 42.1743 2.49386 42.9346 2.47546V3.35216H42.8487C41.5981 3.35216 40.8992 4.13076 40.8992 5.60214V9.12731H40.0225V2.65326Z" fill="#00A040"></path> <path d="M44.7244 3.3644H43.4492V2.65324H44.7244V0.225464H45.6011V2.65324H47.0234V3.3644H45.6011V9.1273H44.7244V3.3644Z" fill="#00A040"></path> <path d="M53.0502 5.43661C52.9889 4.30242 51.8976 3.19276 50.5611 3.22954C49.1633 3.22954 48.1272 4.25338 48.0475 5.43661H53.0502ZM48.0352 6.14164C48.0781 7.76629 49.4637 8.55102 50.5611 8.53876C51.5604 8.53876 52.3635 8.04217 52.7865 7.20226H53.7123C53.4119 7.90117 52.9521 8.42841 52.4003 8.77786C51.8608 9.12731 51.2232 9.30511 50.5611 9.30511C48.3111 9.30511 47.1401 7.51493 47.1401 5.90255C47.1401 4.00202 48.6115 2.47546 50.5488 2.47546C51.4623 2.47546 52.3022 2.80039 52.9153 3.38894C53.6632 4.10624 54.025 5.10555 53.9269 6.14164H48.0352Z" fill="#00A040"></path> <path d="M55.6741 5.89027C55.6863 7.18998 56.5875 8.47744 58.2735 8.47744C58.9969 8.47744 59.6529 8.18929 60.1127 7.71723C60.5848 7.23903 60.8607 6.57691 60.8361 5.85348C60.8361 5.11779 60.5603 4.49246 60.0882 4.03878C59.6345 3.56672 58.9847 3.29083 58.2612 3.29083C56.7653 3.29083 55.6741 4.42502 55.6741 5.878V5.89027ZM61.6638 9.1273H60.8116V7.79079C60.3518 8.6491 59.4874 9.30509 58.1386 9.30509C56.0726 9.30509 54.7974 7.6927 54.7974 5.878C54.7974 3.95295 56.189 2.47544 58.1264 2.47544C59.5487 2.47544 60.4867 3.29083 60.7748 3.96521V2.59193V0.225464H61.6638V9.1273Z" fill="#00A040"></path> <path d="M72.8524 5.878C72.8524 4.4005 71.7366 3.29083 70.2898 3.29083C68.8 3.29083 67.7271 4.44341 67.7271 5.878C67.7271 7.28807 68.7509 8.47744 70.253 8.47744C71.9757 8.47744 72.8524 7.14094 72.8524 5.89027V5.878ZM66.8872 0.225464H67.7762V2.65324V3.95295C68.3157 3.03947 69.2905 2.48771 70.4124 2.47544C72.2516 2.47544 73.7475 3.85486 73.7475 5.878C73.7475 7.82758 72.3497 9.30509 70.3879 9.30509C69.174 9.30509 68.2237 8.71654 67.7394 7.79079V9.1273H66.8872V0.225464Z" fill="#00A040"></path> <path d="M76.5617 9.00464L74.0542 2.6532H75.0045L77.0399 7.88885L79.1366 2.6532H80.1114L76.4145 11.5796H75.452L76.5617 9.00464Z" fill="#00A040"></path></svg>
