<svg width="137" height="82" viewBox="0 0 137 82" fill="none" xmlns="http://www.w3.org/2000/svg" class="partners__item-icon"><path d="M66.0813 57.7399C81.6668 57.7399 94.3013 45.1054 94.3013 29.5199C94.3013 13.9345 81.6668 1.29993 66.0813 1.29993C50.4959 1.29993 37.8613 13.9345 37.8613 29.5199C37.8613 45.1054 50.4959 57.7399 66.0813 57.7399Z" fill="url(#paint0_radial)"></path> <path d="M66.0814 1.29999C71.6636 1.29999 77.1205 2.95557 81.7617 6.0573C86.4029 9.15904 90.0199 13.5676 92.1552 18.7253C94.2905 23.883 94.8482 29.5581 93.7577 35.0328C92.6672 40.5075 89.9775 45.5358 86.0289 49.4816C82.0802 53.4274 77.05 56.1136 71.5746 57.2002C66.0991 58.2868 60.4244 57.7251 55.2682 55.5861C50.112 53.4471 45.706 49.827 42.6076 45.1836C39.5091 40.5402 37.8574 35.0822 37.8614 29.5C37.8627 25.7954 38.5937 22.1273 40.0126 18.7052C41.4315 15.2832 43.5105 12.174 46.131 9.55543C48.7514 6.93682 51.862 4.85999 55.2851 3.44352C58.7082 2.02704 62.3768 1.29867 66.0814 1.29999ZM66.0814 0.609985C60.3627 0.609987 54.7724 2.30603 50.0178 5.48359C45.2631 8.66115 41.5577 13.1775 39.3701 18.4612C37.1826 23.745 36.6112 29.5589 37.7284 35.1674C38.8455 40.7759 41.6009 45.9272 45.646 49.9695C49.6912 54.0119 54.8443 56.7637 60.4536 57.8769C66.0629 58.9902 71.8764 58.4148 77.1586 56.2236C82.4409 54.0324 86.9546 50.3238 90.1289 45.567C93.3032 40.8101 94.9953 35.2187 94.9914 29.5C94.9782 21.8385 91.9274 14.4949 86.508 9.07922C81.0886 3.66359 73.7429 0.617916 66.0814 0.609985Z" fill="white"></path> <path d="M66.0813 57.74C81.6668 57.74 94.3013 45.1055 94.3013 29.5201C94.3013 13.9346 81.6668 1.30005 66.0813 1.30005C50.4959 1.30005 37.8613 13.9346 37.8613 29.5201C37.8613 45.1055 50.4959 57.74 66.0813 57.74Z" fill="url(#paint1_radial)"></path> <path opacity="0.1" d="M70.9715 4.39999C70.9715 4.39999 70.6215 4.32999 70.1115 4.25999L69.6815 4.19999C67.3993 3.87995 65.0837 3.87995 62.8015 4.19999L62.3715 4.25999C61.8615 4.32999 61.5115 4.39999 61.5015 4.39999C60.8715 4.51999 61.1015 4.61999 61.1015 4.61999C61.4422 4.63488 61.7824 4.58045 62.1015 4.45999L63.1015 4.24999C63.4815 4.18999 63.5215 4.24999 63.5215 4.24999C62.8415 4.37999 62.3115 4.51999 62.3415 4.62999C62.3715 4.73999 62.8215 4.62999 63.3415 4.42999C64.8815 4.04999 64.3415 4.31999 64.3415 4.31999C64.1415 4.40999 64.0115 4.49999 63.9915 4.56999C63.9715 4.63999 64.3915 4.64999 65.2915 4.21999C65.8315 3.97999 65.7615 4.28999 65.7615 4.28999C65.7115 4.43999 65.7615 4.57999 66.0215 4.62999H66.1815H66.3315C66.5515 4.62999 66.6415 4.43999 66.5915 4.28999C66.5915 4.28999 66.5315 3.97999 67.0615 4.21999C67.9615 4.64999 68.4015 4.76999 68.3615 4.56999C68.3215 4.36999 68.2215 4.40999 68.0115 4.31999C68.0115 4.31999 67.4715 4.04999 69.0115 4.42999C69.5715 4.57999 70.0115 4.71999 70.0115 4.62999C70.0115 4.53999 69.5015 4.37999 68.8215 4.24999C68.8215 4.24999 68.8215 4.24999 69.2415 4.24999L70.2415 4.45999C70.5608 4.57965 70.9008 4.63405 71.2415 4.61999C71.2415 4.61999 71.6015 4.49999 70.9715 4.39999Z" fill="white"></path> <g opacity="0.55"><path opacity="0.55" d="M55.0318 10.5C52.8118 10.64 50.2318 14.13 51.5718 15.17C52.9118 16.21 56.1118 13.36 55.9018 11.31C55.9021 11.1984 55.8793 11.0879 55.8349 10.9855C55.7905 10.8831 55.7254 10.791 55.6437 10.715C55.562 10.6389 55.4655 10.5806 55.3602 10.5436C55.2549 10.5066 55.1431 10.4918 55.0318 10.5Z" fill="white"></path> <path opacity="0.55" d="M60.2817 10.5C57.9717 10.62 56.1417 13.6 57.5617 14.93C58.9817 16.26 62.0917 14.57 61.9017 12.11C61.8991 11.6821 61.7272 11.2726 61.4237 10.9709C61.1202 10.6693 60.7096 10.5 60.2817 10.5Z" fill="white"></path> <path opacity="0.55" d="M66.1516 10.5C65.6616 10.5138 65.1865 10.6718 64.786 10.9544C64.3854 11.237 64.0772 11.6316 63.8999 12.0886C63.7227 12.5457 63.6843 13.0448 63.7895 13.5236C63.8948 14.0024 64.139 14.4394 64.4916 14.78C66.0316 16.11 68.8516 15.12 68.6216 12.78C68.5483 12.1683 68.2594 11.6027 67.8067 11.1849C67.354 10.767 66.7672 10.5242 66.1516 10.5Z" fill="white"></path> <path opacity="0.55" d="M72.1414 10.5C70.0414 10.61 70.0314 13.25 71.6514 14.61C73.2714 15.97 75.6514 15.39 75.4714 13.56C75.3281 12.7556 74.9247 12.0206 74.3231 11.4678C73.7215 10.915 72.955 10.5749 72.1414 10.5Z" fill="white"></path> <path opacity="0.55" d="M77.5417 10.5C75.9717 10.61 76.6817 13 78.3217 14.43C79.9617 15.86 81.5417 15.66 81.4017 14.23C81.2817 12.58 78.8717 10.5 77.5417 10.5Z" fill="white"></path> <path opacity="0.55" d="M51.4015 17.58C48.6915 17.75 47.2315 21.9801 48.8215 23.3601C50.4115 24.7401 53.3615 22.1501 53.0715 19.3601C52.9515 18.2401 52.3115 17.55 51.4015 17.55" fill="white"></path> <path opacity="0.55" d="M81.2816 17.5801C78.9416 17.7301 79.1716 21.3201 81.1216 23.0101C82.8216 24.4801 84.6316 23.6801 84.5316 21.5101C84.4416 19.5101 82.8016 17.5801 81.2816 17.5801Z" fill="white"></path> <path opacity="0.55" d="M49.5815 26.37C46.8115 26.55 46.2815 30.95 48.2015 32.68C50.1215 34.41 52.2815 32.35 52.0815 29.5C51.9515 27.74 50.8715 26.41 49.5815 26.41" fill="white"></path> <path opacity="0.55" d="M57.3713 26.37C54.1913 26.55 53.3713 30.58 55.4513 32.48C57.5313 34.38 60.4513 32.72 60.4513 29.82C60.4985 28.9676 60.2116 28.1304 59.6514 27.4862C59.0913 26.842 58.302 26.4416 57.4513 26.37" fill="white"></path> <path opacity="0.55" d="M75.1316 26.36C71.8916 26.54 71.0316 30.58 73.1316 32.48C75.2316 34.38 78.5616 32.48 78.2916 29.48C78.2405 28.6643 77.8894 27.8964 77.306 27.324C76.7226 26.7517 75.9481 26.4154 75.1316 26.38" fill="white"></path> <path opacity="0.55" d="M83.1914 26.37C80.4514 26.55 79.8714 30.95 81.7614 32.68C83.6514 34.41 85.8314 32.36 85.6414 29.46C85.5214 27.7 84.4714 26.37 83.1914 26.37Z" fill="white"></path> <path opacity="0.55" d="M57.5713 35.86C54.7513 36.02 54.3613 39.36 56.3313 41.13C58.3013 42.9 61.0613 41.65 60.8113 39.01C60.7446 38.1815 60.3793 37.4054 59.7834 36.826C59.1874 36.2466 58.4014 35.9033 57.5713 35.86Z" fill="white"></path> <path opacity="0.55" d="M74.9315 35.86C71.8615 36.02 70.6115 39.63 72.3815 41.32C74.1515 43.01 77.5615 41.15 77.5015 38.38C77.5044 38.044 77.4394 37.711 77.3106 37.4006C77.1819 37.0903 76.9918 36.8092 76.7519 36.574C76.5121 36.3387 76.2272 36.1543 75.9144 36.0316C75.6017 35.9089 75.2674 35.8506 74.9315 35.86Z" fill="white"></path> <path opacity="0.55" d="M58.8714 44.16C56.6914 44.28 56.6714 46.49 58.2514 48C59.8314 49.51 61.9814 49.13 61.9314 47.17C61.8699 46.3847 61.5261 45.6481 60.9636 45.0966C60.401 44.5451 59.6578 44.216 58.8714 44.17" fill="white"></path> <path opacity="0.55" d="M66.1614 44.16C65.6694 44.1418 65.1841 44.2778 64.7733 44.5491C64.3625 44.8204 64.0468 45.2133 63.8705 45.673C63.6941 46.1326 63.6659 46.6358 63.7898 47.1123C63.9137 47.5887 64.1835 48.0145 64.5614 48.33C64.9174 48.6315 65.3527 48.8241 65.8152 48.8848C66.2777 48.9456 66.748 48.8719 67.1698 48.6726C67.5916 48.4733 67.9471 48.1568 68.1938 47.7609C68.4406 47.365 68.5682 46.9065 68.5614 46.44C68.5537 46.1292 68.4842 45.823 68.3568 45.5394C68.2295 45.2558 68.0469 45.0004 67.8197 44.7881C67.5926 44.5758 67.3254 44.411 67.0338 44.3031C66.7422 44.1953 66.432 44.1466 66.1214 44.16" fill="white"></path> <path opacity="0.55" d="M73.5814 44.1601C70.7714 44.3001 69.6614 47.4501 70.9714 48.6001C72.2814 49.7501 75.4214 47.7901 75.3614 45.7301C75.3556 45.5074 75.304 45.2883 75.2097 45.0865C75.1154 44.8847 74.9806 44.7045 74.8135 44.5572C74.6465 44.4098 74.4508 44.2985 74.2388 44.2302C74.0268 44.1619 73.803 44.138 73.5814 44.1601Z" fill="white"></path></g> <path d="M58.3311 17.5801C55.2711 17.7401 54.0811 21.6501 55.9511 23.2001C57.8211 24.7501 61.0511 22.7501 60.7811 19.9601C60.7555 19.325 60.4871 18.724 60.0312 18.2811C59.5752 17.8382 58.9667 17.5873 58.3311 17.5801Z" fill="white"></path> <path d="M66.1713 17.5801C65.5448 17.5891 64.9357 17.7877 64.4243 18.1497C63.913 18.5118 63.5233 19.0204 63.3068 19.6083C63.0902 20.1963 63.0569 20.8361 63.2112 21.4433C63.3656 22.0506 63.7003 22.5969 64.1713 23.0101C64.6249 23.3768 65.1735 23.6068 65.753 23.673C66.3325 23.7392 66.9189 23.639 67.4435 23.384C67.9682 23.1291 68.4093 22.7299 68.7153 22.2334C69.0213 21.7368 69.1794 21.1633 69.1713 20.5801C69.1408 19.7838 68.8068 19.0295 68.2378 18.4716C67.6688 17.9138 66.908 17.5948 66.1113 17.5801" fill="white"></path> <path d="M74.1312 17.5801C71.3812 17.7201 70.8612 21.0401 72.7112 22.8101C74.5612 24.5801 77.5012 23.6501 77.5612 21.2101C77.5626 20.281 77.2077 19.3868 76.5696 18.7115C75.9315 18.0362 75.0588 17.6313 74.1312 17.5801Z" fill="white"></path> <path d="M66.1813 26.3701C65.4832 26.4031 64.8113 26.6461 64.2536 27.0673C63.6959 27.4886 63.2784 28.0684 63.0558 28.7309C62.8331 29.3934 62.8157 30.1077 63.0059 30.7802C63.196 31.4528 63.5848 32.0522 64.1213 32.5001C64.6328 32.9131 65.2565 33.163 65.9117 33.2172C66.5668 33.2714 67.2231 33.1274 67.7955 32.8041C68.3679 32.4807 68.8299 31.9928 69.1215 31.4037C69.4132 30.8145 69.5212 30.1513 69.4313 29.5001C69.3631 28.676 68.9942 27.9058 68.3949 27.3361C67.7956 26.7663 67.0078 26.4367 66.1813 26.4101" fill="white"></path> <path d="M66.1812 35.8601C65.5808 35.8611 64.9946 36.0422 64.4982 36.3799C64.0019 36.7177 63.6183 37.1967 63.3971 37.7548C63.1759 38.313 63.1272 38.9246 63.2574 39.5107C63.3877 40.0968 63.6907 40.6304 64.1274 41.0424C64.5642 41.4543 65.1145 41.7258 65.7072 41.8216C66.2998 41.9175 66.9076 41.8333 67.452 41.5799C67.9963 41.3266 68.452 40.9157 68.7603 40.4006C69.0686 39.8854 69.2152 39.2895 69.1812 38.6901C69.1378 37.9243 68.8026 37.2042 68.2446 36.6779C67.6867 36.1515 66.9483 35.8589 66.1812 35.8601Z" fill="white"></path> <g opacity="0.25"><path opacity="0.25" d="M56.8309 5.76001C54.8097 6.5523 52.9003 7.60448 51.1509 8.89001C51.2009 8.89001 51.2209 8.89001 51.4709 8.75001C52.4709 8.20001 53.4709 7.58001 54.4709 7.02001C55.2209 6.60001 56.0009 6.24001 56.7509 5.82001L56.8409 5.77001" fill="white"></path> <path opacity="0.25" d="M57.8711 5.76001C56.4411 5.88001 52.2211 8.40001 52.6911 8.86001C52.8111 8.98001 53.4011 8.86001 54.6911 8.10001C55.8562 7.44224 56.9518 6.6683 57.9611 5.79001C57.9354 5.77997 57.9068 5.77997 57.8811 5.79001" fill="white"></path> <path opacity="0.25" d="M60.0412 5.76001C58.3012 5.87001 55.1412 8.23001 55.9812 8.81001C56.8212 9.39001 60.3312 6.81001 60.2812 5.92001C60.2812 5.81001 60.2012 5.76001 60.0412 5.76001Z" fill="white"></path> <path opacity="0.25" d="M62.9011 5.76006C61.4311 5.84006 59.3211 7.85006 60.2411 8.67006C61.1611 9.49006 63.7011 7.87006 63.5411 6.34006C63.5401 6.25903 63.5223 6.1791 63.489 6.10523C63.4556 6.03137 63.4074 5.96517 63.3474 5.91075C63.2873 5.85633 63.2167 5.81487 63.1399 5.78894C63.0632 5.76302 62.9819 5.75319 62.9011 5.76006Z" fill="white"></path> <path opacity="0.25" d="M66.121 5.76001C65.811 5.77599 65.5119 5.87962 65.2585 6.05886C65.005 6.23811 64.8076 6.4856 64.6893 6.77257C64.5709 7.05954 64.5365 7.37421 64.5899 7.68C64.6433 7.98579 64.7824 8.27014 64.991 8.50001C65.991 9.38001 67.871 8.80001 67.721 7.36001C67.6751 6.95345 67.4912 6.5749 67.2001 6.28741C66.909 5.99993 66.5281 5.82085 66.121 5.78001" fill="white"></path> <path opacity="0.25" d="M69.3913 5.76001C68.2913 5.82001 68.7313 7.31001 69.5913 8.10001C70.8413 9.25001 72.4413 9.10001 72.3813 8.10001C72.3213 7.10001 70.3813 5.76001 69.3813 5.76001" fill="white"></path> <path opacity="0.25" d="M72.3512 5.76001C71.4812 5.83001 73.4112 7.48001 73.4312 7.50001C75.0212 8.84001 76.6412 9.26001 76.6512 8.58001C76.6512 7.58001 73.3912 5.76001 72.3512 5.76001Z" fill="white"></path> <path opacity="0.25" d="M74.3813 5.76V5.81C75.5297 6.69576 76.7357 7.50421 77.9913 8.23C79.5113 9.09 79.6613 8.89 79.6713 8.8C79.7313 8.13 75.3314 5.73 74.4314 5.75" fill="white"></path> <path opacity="0.25" d="M75.3413 5.76001C75.3413 5.76001 75.3413 5.76001 75.7513 5.98001C76.1613 6.20001 76.8313 6.52001 77.7513 6.98001C78.6713 7.44001 79.7513 8.15001 80.7513 8.71001C80.8429 8.77533 80.9441 8.82594 81.0513 8.86001C80.8813 8.50001 76.2813 5.97001 75.3413 5.76001Z" fill="white"></path> <path opacity="0.25" d="M49.1909 10.5C48.5009 10.7 44.9309 14.79 44.9409 15.37C45.4409 15.22 49.1409 10.75 49.1809 10.5" fill="white"></path> <path opacity="0.25" d="M51.0811 10.5C49.5111 10.64 46.2911 14.43 47.0211 15.26C47.2311 15.5 48.0211 15.5 49.4711 14.01C50.3819 13.1573 51.0482 12.0767 51.4011 10.88C51.4011 10.62 51.3111 10.5 51.0811 10.5Z" fill="white"></path> <path opacity="0.25" d="M81.2809 10.5C80.2809 10.62 82.4109 13.62 83.8709 14.78C84.8009 15.52 85.4509 15.59 85.4109 14.93C85.2809 13.5 82.2809 10.5 81.2809 10.5Z" fill="white"></path> <path opacity="0.25" d="M82.9912 10.5C84.246 12.255 85.6621 13.8888 87.2212 15.38C87.2212 14.8 83.6312 10.71 82.9712 10.51" fill="white"></path> <path opacity="0.25" d="M43.6609 17.5801C42.9009 17.8401 41.0809 23.4901 41.3209 23.7301C41.6609 23.6101 42.4709 21.6301 42.7509 20.8801C43.4609 18.9601 43.8309 17.5701 43.6309 17.5601" fill="white"></path> <path opacity="0.25" d="M46.1611 17.58C44.1011 17.78 42.5711 22.69 43.6911 23.58C44.8111 24.47 47.1911 21.01 46.9511 18.58C46.8911 17.9 46.6011 17.51 46.1611 17.51" fill="white"></path> <path opacity="0.25" d="M86.2112 17.58C84.6712 17.76 86.0812 22.36 87.6412 23.49C88.6412 24.19 89.1912 23.41 88.9412 21.8C88.6412 19.8 87.1812 17.57 86.2112 17.58Z" fill="white"></path> <path opacity="0.25" d="M88.5312 17.58C88.1412 17.78 90.3012 23.58 90.8412 23.75C91.2812 23.52 89.1512 17.8 88.5312 17.58Z" fill="white"></path> <path opacity="0.25" d="M40.8811 26.37C40.3411 26.59 40.3911 33.03 40.8811 33.26C41.4211 33.03 41.3711 26.59 40.8811 26.37Z" fill="white"></path> <path opacity="0.25" d="M43.6914 26.37C41.7514 26.57 41.6914 31.72 43.1114 32.99C44.2614 33.99 45.4914 32.05 45.3514 29.46C45.2614 27.7 44.5414 26.37 43.6914 26.37Z" fill="white"></path> <path opacity="0.25" d="M88.7112 26.37C86.8212 26.59 86.8712 32.14 88.2212 33.11C89.5712 34.08 90.5412 31.11 90.0712 28.46C89.8412 27.19 89.3112 26.37 88.7112 26.37Z" fill="white"></path> <path opacity="0.25" d="M91.2813 26.37C90.7813 26.59 90.7313 33.03 91.2213 33.26C91.7313 33.03 91.7813 26.59 91.2813 26.37Z" fill="white"></path> <path opacity="0.25" d="M41.4513 35.86C40.8813 36.13 43.3813 41.74 43.8013 41.97C44.0013 42.08 43.8613 41.46 43.7013 40.97C43.1913 39.22 41.8813 36.06 41.4513 35.91" fill="white"></path> <path opacity="0.25" d="M44.201 35.86C42.511 36.04 43.751 40.26 45.511 41.64C46.561 42.45 47.261 41.8 47.081 40.19C46.841 38.12 45.331 35.85 44.201 35.86Z" fill="white"></path> <path opacity="0.25" d="M49.9513 35.86C47.6313 36.02 47.7913 39.36 49.6813 41.13C51.5713 42.9 53.3213 41.95 53.1613 39.62C53.0313 37.69 51.4713 35.86 49.9513 35.86Z" fill="white"></path> <path opacity="0.25" d="M82.8012 35.86C80.0712 36.04 78.6112 40.26 80.2112 41.63C81.8112 43 84.7512 40.18 84.4412 37.52C84.4386 37.084 84.2656 36.6662 83.9592 36.356C83.6527 36.0458 83.2371 35.8678 82.8012 35.86Z" fill="white"></path> <path opacity="0.25" d="M88.2013 35.86C86.3113 36.07 84.7113 40.96 85.7113 41.86C86.7113 42.76 88.9313 39.3 88.9013 37.03C88.9013 36.31 88.6213 35.87 88.2013 35.87" fill="white"></path> <path opacity="0.25" d="M90.7413 35.86C90.2113 36.06 87.9613 41.79 88.3413 41.99C88.9613 41.76 91.1813 36.09 90.7413 35.86Z" fill="white"></path> <path opacity="0.25" d="M45.1909 44.16C45.1909 44.73 48.8209 48.77 49.5109 48.97C48.2621 47.2108 46.8234 45.5944 45.2209 44.15" fill="white"></path> <path opacity="0.25" d="M47.5212 44.1601C46.4312 44.2801 47.8112 46.5501 49.5212 48.0001C50.5212 48.8601 51.6512 49.3701 51.6012 48.6001C51.5212 47.3401 48.7612 44.1501 47.4812 44.1601" fill="white"></path> <path opacity="0.25" d="M52.4113 44.16C50.7413 44.27 51.2813 46.35 52.9113 47.81C54.3613 49.12 56.0913 49.5 56.0613 48C56.0613 46.31 53.9813 44.16 52.4113 44.16Z" fill="white"></path> <path opacity="0.25" d="M80.2812 44.16C77.7312 44.32 75.8612 48 76.8312 48.81C77.9912 49.81 81.5012 46.69 81.2512 44.92C81.219 44.6868 81.0956 44.476 80.9082 44.3335C80.7208 44.1911 80.4846 44.1287 80.2512 44.16" fill="white"></path> <path opacity="0.25" d="M84.841 44.16C83.191 44.33 80.241 48.49 80.841 48.93C81.441 49.37 85.281 45.99 85.171 44.5C85.1741 44.4563 85.1677 44.4125 85.1521 44.3715C85.1365 44.3306 85.1121 44.2936 85.0806 44.2631C85.0492 44.2326 85.0114 44.2093 84.97 44.195C84.9286 44.1806 84.8846 44.1755 84.841 44.18" fill="white"></path> <path opacity="0.25" d="M87.0009 44.16C85.439 45.6466 83.9978 47.255 82.6909 48.97C83.2309 48.97 86.9909 44.8 87.0209 44.17" fill="white"></path> <path opacity="0.25" d="M51.4712 50.55C51.6012 50.94 56.2012 53.39 57.2012 53.6C57.2012 53.6 57.2012 53.6 56.7912 53.39C56.3812 53.18 55.7112 52.87 54.7912 52.39C53.8712 51.91 52.7912 51.2401 51.7912 50.7001C51.6942 50.6405 51.59 50.5935 51.4812 50.5601" fill="white"></path> <path opacity="0.25" d="M53.1113 50.55C52.6813 50.6 53.2613 51.1101 53.5313 51.3301C55.0213 52.5301 58.0513 53.76 58.2713 53.57C58.2713 53.24 53.9113 50.57 53.1113 50.57" fill="white"></path> <path opacity="0.25" d="M56.531 50.55C55.641 50.61 56.211 51.4 56.811 51.91C58.031 52.96 60.511 53.99 60.501 53.45C60.491 52.91 57.961 50.54 56.501 50.55" fill="white"></path> <path opacity="0.25" d="M61.051 50.55C59.831 50.62 59.961 51.65 60.901 52.55C61.841 53.45 63.661 54.22 63.631 52.94C63.5347 52.3105 63.2265 51.7326 62.7575 51.3017C62.2884 50.8708 61.6865 50.6128 61.051 50.57" fill="white"></path> <path opacity="0.25" d="M66.141 50.5501C65.8192 50.5281 65.499 50.6125 65.23 50.7905C64.9609 50.9684 64.7578 51.2299 64.652 51.5347C64.5463 51.8395 64.5437 52.1706 64.6447 52.477C64.7458 52.7833 64.9447 53.048 65.211 53.2301C66.381 54.2301 67.821 52.9201 67.681 51.7601C67.6179 51.4044 67.4259 51.0844 67.1419 50.8612C66.8578 50.6381 66.5016 50.5273 66.141 50.5501Z" fill="white"></path> <path opacity="0.25" d="M71.2813 50.55C69.2813 50.65 68.1613 52.8501 68.7813 53.4501C69.4013 54.0501 72.2813 52.32 72.2813 51.19C72.2813 50.8 71.9013 50.55 71.3613 50.55" fill="white"></path> <path opacity="0.25" d="M75.991 50.55C74.331 50.65 71.581 53.17 71.911 53.55C72.241 53.93 76.371 52.05 76.411 50.87C76.411 50.67 76.271 50.5601 75.991 50.5601" fill="white"></path> <path opacity="0.25" d="M79.201 50.55C78.201 50.65 74.071 53.4 74.001 53.55C75.1821 53.306 76.31 52.8522 77.331 52.21C78.671 51.46 79.451 50.74 79.331 50.57C79.2923 50.5555 79.2496 50.5555 79.211 50.57" fill="white"></path> <path opacity="0.25" d="M80.711 50.55C80.6021 50.5835 80.498 50.6305 80.401 50.69C79.281 51.28 78.281 51.95 77.111 52.5C76.411 52.87 75.661 53.1501 74.981 53.5601C77.0177 52.8164 78.9477 51.8078 80.721 50.5601" fill="white"></path></g> <path opacity="0.1" d="M61.5014 54.63L62.3714 54.78L62.8014 54.84C65.0844 55.1467 67.3983 55.1467 69.6814 54.84L70.1114 54.78L70.9714 54.63C71.6014 54.51 71.3714 54.41 71.3714 54.41C71.0307 54.3959 70.6906 54.4503 70.3714 54.57C70.0314 54.64 69.7014 54.72 69.3714 54.78C69.0414 54.84 68.9514 54.78 68.9514 54.78C69.6314 54.65 70.1614 54.51 70.1414 54.4C70.1214 54.29 69.6614 54.4 69.1414 54.6C67.6014 54.98 68.1414 54.71 68.1414 54.71C68.3514 54.63 68.4814 54.54 68.4914 54.46C68.5014 54.38 68.0914 54.39 67.1914 54.81C66.6614 55.05 66.7214 54.74 66.7214 54.74C66.7214 54.74 66.7214 54.45 66.4614 54.4H66.0814C65.8614 54.4 65.7714 54.6 65.8214 54.74C65.8714 54.88 65.8914 55.05 65.3514 54.81C64.4514 54.39 64.0214 54.27 64.0514 54.46C64.0814 54.65 64.2014 54.63 64.4014 54.71C64.4014 54.71 64.9414 54.98 63.4014 54.6C62.8514 54.45 62.4014 54.31 62.4014 54.4C62.4014 54.49 62.9014 54.65 63.5814 54.78C63.5814 54.78 63.5814 54.78 63.1614 54.78L62.1614 54.57C61.8423 54.4495 61.5021 54.3951 61.1614 54.41C61.1614 54.41 60.8714 54.5 61.5014 54.63Z" fill="white"></path> <path d="M12.1597 63.7704H7.36084V77.08H5.40234V63.7704H0.61377V62.1503H12.1597V63.7704Z" fill="#831DBF"></path> <path d="M17.502 75.7367C18.1787 75.7367 18.77 75.5316 19.2759 75.1215C19.7817 74.7113 20.062 74.1986 20.1167 73.5834H21.9111C21.877 74.2191 21.6582 74.8241 21.2549 75.3983C20.8516 75.9725 20.3115 76.4305 19.6348 76.7723C18.9648 77.1141 18.2539 77.285 17.502 77.285C15.9912 77.285 14.7881 76.7826 13.8926 75.7777C13.0039 74.766 12.5596 73.3851 12.5596 71.6351V71.3173C12.5596 70.2372 12.7578 69.2767 13.1543 68.4359C13.5508 67.5951 14.1182 66.9423 14.8564 66.4774C15.6016 66.0126 16.48 65.7802 17.4917 65.7802C18.7358 65.7802 19.7681 66.1527 20.5884 66.8978C21.4155 67.6429 21.8564 68.6102 21.9111 69.7997H20.1167C20.062 69.0819 19.7886 68.494 19.2964 68.036C18.811 67.5712 18.2095 67.3387 17.4917 67.3387C16.5278 67.3387 15.7793 67.6874 15.2461 68.3846C14.7197 69.0751 14.4565 70.0765 14.4565 71.389V71.7479C14.4565 73.0262 14.7197 74.0106 15.2461 74.701C15.7725 75.3915 16.5244 75.7367 17.502 75.7367Z" fill="#831DBF"></path> <path d="M28.6479 77.285C27.144 77.285 25.9204 76.7928 24.9771 75.8085C24.0337 74.8173 23.562 73.4945 23.562 71.8402V71.4916C23.562 70.391 23.7705 69.41 24.1875 68.5487C24.6113 67.6805 25.1992 67.0038 25.9512 66.5184C26.71 66.0262 27.5303 65.7802 28.4121 65.7802C29.8545 65.7802 30.9756 66.2552 31.7754 67.2054C32.5752 68.1556 32.9751 69.516 32.9751 71.2865V72.076H25.459C25.4863 73.1698 25.8042 74.0551 26.4126 74.7318C27.0278 75.4017 27.8071 75.7367 28.7505 75.7367C29.4204 75.7367 29.9878 75.6 30.4526 75.3265C30.9175 75.0531 31.3242 74.6908 31.6729 74.2396L32.8315 75.142C31.9019 76.5707 30.5073 77.285 28.6479 77.285ZM28.4121 67.3387C27.6465 67.3387 27.0039 67.619 26.4844 68.1796C25.9648 68.7333 25.6436 69.5126 25.5205 70.5175H31.0781V70.3739C31.0234 69.41 30.7637 68.6649 30.2988 68.1385C29.834 67.6053 29.2051 67.3387 28.4121 67.3387Z" fill="#831DBF"></path> <path d="M37.2407 77.08H35.3438V61.33H37.2407V77.08Z" fill="#831DBF"></path> <path d="M42.3472 77.08H40.4502V61.33H42.3472V77.08Z" fill="#831DBF"></path> <path d="M59.1431 73.1835H52.8882L51.4834 77.08H49.4531L55.1543 62.1503H56.877L62.5884 77.08H60.5684L59.1431 73.1835ZM53.4829 71.5634H58.5586L56.0156 64.5804L53.4829 71.5634Z" fill="#831DBF"></path> <path d="M68.751 75.7367C69.4277 75.7367 70.019 75.5316 70.5249 75.1215C71.0308 74.7113 71.311 74.1986 71.3657 73.5834H73.1602C73.126 74.2191 72.9072 74.8241 72.5039 75.3983C72.1006 75.9725 71.5605 76.4305 70.8838 76.7723C70.2139 77.1141 69.5029 77.285 68.751 77.285C67.2402 77.285 66.0371 76.7826 65.1416 75.7777C64.2529 74.766 63.8086 73.3851 63.8086 71.6351V71.3173C63.8086 70.2372 64.0068 69.2767 64.4033 68.4359C64.7998 67.5951 65.3672 66.9423 66.1055 66.4774C66.8506 66.0126 67.729 65.7802 68.7407 65.7802C69.9849 65.7802 71.0171 66.1527 71.8374 66.8978C72.6646 67.6429 73.1055 68.6102 73.1602 69.7997H71.3657C71.311 69.0819 71.0376 68.494 70.5454 68.036C70.0601 67.5712 69.4585 67.3387 68.7407 67.3387C67.7769 67.3387 67.0283 67.6874 66.4951 68.3846C65.9688 69.0751 65.7056 70.0765 65.7056 71.389V71.7479C65.7056 73.0262 65.9688 74.0106 66.4951 74.701C67.0215 75.3915 67.7734 75.7367 68.751 75.7367Z" fill="#831DBF"></path> <path d="M82.1426 77.08C82.0332 76.8612 81.9443 76.4716 81.876 75.911C80.9941 76.827 79.9414 77.285 78.7178 77.285C77.624 77.285 76.7251 76.9774 76.021 76.3622C75.3237 75.7401 74.9751 74.954 74.9751 74.0038C74.9751 72.8485 75.4126 71.953 76.2876 71.3173C77.1694 70.6747 78.4067 70.3534 79.9995 70.3534H81.8452V69.4818C81.8452 68.8187 81.647 68.2924 81.2505 67.9027C80.854 67.5062 80.2695 67.308 79.4971 67.308C78.8203 67.308 78.2529 67.4789 77.7949 67.8207C77.3369 68.1625 77.1079 68.576 77.1079 69.0614H75.2007C75.2007 68.5077 75.3955 67.9745 75.7852 67.4618C76.1816 66.9423 76.7148 66.5321 77.3848 66.2313C78.0615 65.9305 78.8032 65.7802 79.6099 65.7802C80.8882 65.7802 81.8896 66.1014 82.6143 66.744C83.3389 67.3798 83.7148 68.2582 83.7422 69.3793V74.4857C83.7422 75.5043 83.8721 76.3143 84.1318 76.9159V77.08H82.1426ZM78.9946 75.6342C79.5894 75.6342 80.1533 75.4803 80.6865 75.1727C81.2197 74.8651 81.606 74.4652 81.8452 73.973V71.6967H80.3584C78.0342 71.6967 76.8721 72.3768 76.8721 73.7372C76.8721 74.3319 77.0703 74.7968 77.4668 75.1317C77.8633 75.4667 78.3726 75.6342 78.9946 75.6342Z" fill="#831DBF"></path> <path d="M86.2544 71.4403C86.2544 69.7382 86.6577 68.371 87.4644 67.3387C88.271 66.2997 89.3271 65.7802 90.6328 65.7802C91.9316 65.7802 92.9604 66.2245 93.7192 67.1132V61.33H95.6162V77.08H93.873L93.7808 75.8905C93.022 76.8202 91.9658 77.285 90.6123 77.285C89.3271 77.285 88.2778 76.7587 87.4644 75.7059C86.6577 74.6532 86.2544 73.2792 86.2544 71.5839V71.4403ZM88.1514 71.6556C88.1514 72.9135 88.4111 73.8978 88.9307 74.6088C89.4502 75.3197 90.168 75.6752 91.084 75.6752C92.2871 75.6752 93.1655 75.1351 93.7192 74.0551V68.9589C93.1519 67.913 92.2803 67.39 91.1045 67.39C90.1748 67.39 89.4502 67.7489 88.9307 68.4667C88.4111 69.1844 88.1514 70.2474 88.1514 71.6556Z" fill="#831DBF"></path> <path d="M103.173 77.285C101.669 77.285 100.446 76.7928 99.5024 75.8085C98.5591 74.8173 98.0874 73.4945 98.0874 71.8402V71.4916C98.0874 70.391 98.2959 69.41 98.7129 68.5487C99.1367 67.6805 99.7246 67.0038 100.477 66.5184C101.235 66.0262 102.056 65.7802 102.938 65.7802C104.38 65.7802 105.501 66.2552 106.301 67.2054C107.101 68.1556 107.5 69.516 107.5 71.2865V72.076H99.9844C100.012 73.1698 100.33 74.0551 100.938 74.7318C101.553 75.4017 102.333 75.7367 103.276 75.7367C103.946 75.7367 104.513 75.6 104.978 75.3265C105.443 75.0531 105.85 74.6908 106.198 74.2396L107.357 75.142C106.427 76.5707 105.033 77.285 103.173 77.285ZM102.938 67.3387C102.172 67.3387 101.529 67.619 101.01 68.1796C100.49 68.7333 100.169 69.5126 100.046 70.5175H105.604V70.3739C105.549 69.41 105.289 68.6649 104.824 68.1385C104.359 67.6053 103.73 67.3387 102.938 67.3387Z" fill="#831DBF"></path> <path d="M111.489 65.9852L111.541 67.2157C112.354 66.2587 113.451 65.7802 114.832 65.7802C116.384 65.7802 117.44 66.3749 118 67.5643C118.37 67.0311 118.848 66.6005 119.436 66.2723C120.031 65.9442 120.731 65.7802 121.538 65.7802C123.972 65.7802 125.209 67.0687 125.25 69.6459V77.08H123.353V69.7587C123.353 68.9657 123.172 68.3744 122.81 67.9847C122.447 67.5883 121.839 67.39 120.984 67.39C120.28 67.39 119.696 67.6019 119.231 68.0258C118.766 68.4427 118.496 69.0067 118.421 69.7177V77.08H116.514V69.8099C116.514 68.1967 115.724 67.39 114.145 67.39C112.901 67.39 112.05 67.9198 111.592 68.9794V77.08H109.695V65.9852H111.489Z" fill="#831DBF"></path> <path d="M131.751 74.3011L134.335 65.9852H136.365L131.905 78.7924C131.214 80.6381 130.117 81.5609 128.613 81.5609L128.254 81.5302L127.547 81.3969V79.8588L128.06 79.8998C128.702 79.8998 129.201 79.7699 129.557 79.5101C129.919 79.2504 130.216 78.7753 130.449 78.0848L130.869 76.9569L126.911 65.9852H128.982L131.751 74.3011Z" fill="#831DBF"></path> <defs><radialGradient id="paint0_radial" cx="0" cy="0" r="1" gradientUnits="userSpaceOnUse" gradientTransform="translate(74.3313 20.3299) scale(20.13)"><stop stop-color="white"></stop> <stop offset="0.06" stop-color="#E9D7F4"></stop> <stop offset="0.14" stop-color="#D1ACE7"></stop> <stop offset="0.22" stop-color="#BC85DD"></stop> <stop offset="0.31" stop-color="#AA65D3"></stop> <stop offset="0.4" stop-color="#9C4BCC"></stop> <stop offset="0.51" stop-color="#9136C6"></stop> <stop offset="0.62" stop-color="#8928C2"></stop> <stop offset="0.76" stop-color="#8420C0"></stop> <stop offset="1" stop-color="#831DBF"></stop></radialGradient> <radialGradient id="paint1_radial" cx="0" cy="0" r="1" gradientUnits="userSpaceOnUse" gradientTransform="translate(74.3313 20.33) scale(20.13)"><stop stop-color="white"></stop> <stop offset="0.02" stop-color="white" stop-opacity="0.93"></stop> <stop offset="0.09" stop-color="white" stop-opacity="0.74"></stop> <stop offset="0.17" stop-color="white" stop-opacity="0.56"></stop> <stop offset="0.25" stop-color="white" stop-opacity="0.41"></stop> <stop offset="0.33" stop-color="white" stop-opacity="0.28"></stop> <stop offset="0.43" stop-color="white" stop-opacity="0.18"></stop> <stop offset="0.53" stop-color="white" stop-opacity="0.1"></stop> <stop offset="0.64" stop-color="white" stop-opacity="0.04"></stop> <stop offset="0.77" stop-color="white" stop-opacity="0.01"></stop> <stop offset="1" stop-color="white" stop-opacity="0"></stop></radialGradient></defs></svg>
