<svg width="43" height="85" viewBox="0 0 43 85" fill="none" xmlns="http://www.w3.org/2000/svg" class="partners__item-icon"><path fill-rule="evenodd" clip-rule="evenodd" d="M35.2518 69.0624C34.4117 68.3634 33.1519 67.9439 31.3324 67.9439C29.9323 67.9439 28.8128 68.084 27.973 68.2237V81.6447H29.6525V76.1925C30.0726 76.3322 30.4923 76.3322 31.0523 76.3322C32.7321 76.3322 34.2718 75.7729 35.1115 74.7945C35.8114 74.0955 36.2315 73.1167 36.2315 71.8584C36.5113 70.7402 36.0916 69.7614 35.2514 69.0624H35.2518ZM8.79619 80.2467C8.09633 80.2467 7.39646 80.2467 6.97641 80.107V69.4819C7.39646 69.3422 8.09633 69.2021 9.07599 69.2021C12.8555 69.2021 14.5354 71.1594 14.5354 74.3749C14.5354 78.1497 12.4358 80.3864 8.79619 80.2467ZM34.5516 12.8618C34.8317 13.9803 34.4117 15.0985 34.6918 16.3567C33.992 15.0985 32.7321 14.5396 31.7521 13.5608C31.1922 13.0015 30.9124 12.1628 30.9124 11.4638C31.4723 12.722 32.8721 13.0015 33.7118 14.12C33.992 14.3998 33.992 14.6793 34.2718 14.9588C33.8517 13.9803 33.5719 12.8618 33.432 11.6035L32.5919 10.3452C33.432 10.625 34.2718 11.7432 34.5516 12.8618ZM21.534 9.92604C21.534 9.78631 21.8138 9.92604 21.8138 9.92604L22.6539 9.64623C22.9337 9.64623 23.3538 9.64623 23.4937 9.92604C23.2139 10.2055 23.0736 10.2055 22.7938 10.2055C22.3737 10.2055 21.954 10.3452 21.534 9.92604ZM21.3941 12.5823C21.6739 12.4426 21.8138 12.5823 22.0939 12.5823C23.2139 12.8618 24.1935 13.1416 25.1732 13.8406C25.0333 13.7008 24.8934 13.5608 24.8934 13.421C24.8934 13.1416 24.6136 13.1416 24.6136 13.0015H24.7535C25.0333 13.2813 25.0333 13.2813 25.1732 13.5608C25.3135 13.5608 25.4534 13.5608 25.4534 13.7008C25.4534 13.8406 25.4534 13.9803 25.7332 14.12C25.7332 14.3998 26.1532 14.6793 26.1532 14.9588C26.1532 15.0988 26.2931 14.9588 26.2931 14.9588L26.5733 15.3783V15.6581C26.7132 15.6581 26.8531 15.518 26.8531 15.518C27.1329 15.6581 26.8531 15.7978 26.8531 15.9376H27.1329C27.1329 16.0773 26.993 16.217 26.993 16.217C26.993 16.3567 27.1329 16.3567 27.2728 16.3567C27.413 16.3567 27.413 16.4968 27.413 16.6366C27.6929 16.916 27.2728 17.1958 27.413 17.4753C27.5529 17.7551 27.413 17.7551 27.2728 18.0346C27.2728 18.3144 26.993 18.3144 26.993 18.5938H26.7132C26.5729 18.7335 26.8531 18.8733 26.7132 19.013H27.2728C27.1329 18.7335 27.2728 18.4541 27.413 18.1743C27.5529 17.8948 27.5529 17.7547 27.6929 17.615C27.6929 17.615 27.8328 17.4753 27.8328 17.615C27.8328 17.8948 27.8328 18.0346 27.6929 18.1743C27.973 18.4541 27.8328 18.7335 27.973 19.013H29.6525V18.8733C29.5126 17.8948 29.3727 16.7763 28.9527 15.9376C28.8128 15.9376 28.6729 16.0773 28.6729 15.9376C28.6729 15.9376 28.5326 15.9376 28.6729 15.7978C28.3927 15.518 28.3927 15.3783 28.1129 15.0985C27.8328 15.0985 27.6929 14.819 27.413 14.819C27.1329 14.819 27.2728 14.3995 26.993 14.5396C26.8531 14.5396 26.7132 14.2598 26.7132 14.2598C26.7132 13.9803 26.7132 13.7008 26.433 13.421C26.1532 13.2813 26.1532 13.7008 26.013 13.5608C25.8731 13.5608 26.013 13.2813 25.8731 13.2813C25.8731 13.1412 25.7332 13.1412 25.7332 13.0015C26.013 12.722 25.4534 12.722 25.4534 12.3025C25.4534 12.023 25.1732 12.023 25.0333 11.7432C24.1935 11.4638 23.3538 11.0442 22.3737 10.9045C22.0939 10.9045 21.9537 10.9045 21.6739 10.7648V10.9045C21.3937 11.6035 21.3937 12.023 21.3937 12.5823H21.3941ZM12.1556 19.013V18.7335C12.2955 16.916 12.8555 15.3783 13.8355 13.9803C14.1153 13.7008 14.2552 13.2813 14.6753 13.1416L13.5553 12.023C12.0157 13.8406 10.8958 15.9376 10.7559 18.1743C10.7559 18.4541 10.7559 18.8733 10.6156 19.1531C11.0357 18.8733 11.7355 18.8733 12.1556 19.013ZM21.3941 10.2055C21.534 10.0658 21.534 10.0658 21.6739 10.2055V10.4853H21.8138C23.0736 10.625 24.3334 10.9045 25.3135 11.6035C25.5933 11.4638 25.8731 11.324 26.0133 11.6035C26.2931 11.4638 26.2931 11.8833 26.5733 11.8833C26.7132 11.8833 26.993 12.3028 26.993 12.5823C26.993 12.722 27.2731 12.8618 27.2731 12.8618C27.5529 12.5823 27.8331 12.1628 28.1129 11.8833L28.3927 11.7436C26.7132 10.2055 24.6136 9.22705 22.514 8.94723C22.2338 8.94723 21.6739 8.94723 21.3941 8.80751V10.2055ZM19.5743 24.0461C19.7142 23.9063 19.8545 23.7663 19.9944 23.7663C19.4344 23.9063 19.1542 23.4868 18.5946 23.3471C18.3145 23.2073 18.0347 23.0676 17.8948 22.7878C17.6146 23.2073 17.1949 23.6265 16.7748 23.9063C17.0546 23.9063 17.0546 24.1858 17.1949 24.1858C18.0347 24.8848 19.1542 25.1646 19.9944 25.4441L19.7142 25.3043C19.4344 25.0245 19.2945 24.7451 19.1542 24.4656C19.5743 24.3255 19.5743 24.1858 19.5743 24.0461ZM15.7948 19.5723V19.8521C15.7948 20.1315 15.515 19.8521 15.515 19.9918V20.2713C15.3751 20.5511 15.7948 20.6908 15.7948 21.1104C15.9351 21.3898 15.7948 21.5295 16.075 21.8093C16.075 22.0888 16.075 22.6481 16.3548 22.9279V23.2073C16.3548 23.4868 16.075 23.4868 16.075 23.4868C16.075 23.4868 16.2149 23.4868 16.2149 23.6265C16.6349 23.0676 17.0546 22.6481 17.7545 22.0888L17.4747 21.8093C17.1945 21.2501 16.7748 20.5511 16.6346 19.8521L16.4947 19.7124C16.4947 19.9918 16.3548 19.9918 16.3548 20.2716C16.2149 20.2716 16.075 20.1315 16.075 20.1315C16.075 20.1315 15.9351 19.9918 16.075 19.8521H16.2149V19.5723C16.2149 19.4325 16.075 19.2928 16.2149 19.2928C16.3548 19.2928 16.4947 19.4325 16.4947 19.5723C16.6349 19.5723 16.7748 19.5723 16.7748 19.4325C16.7748 19.2928 16.9147 19.1531 16.7748 19.1531C16.9147 18.8733 16.7748 18.7335 16.7748 18.4541C16.6349 18.314 16.4947 18.4541 16.3548 18.4541C15.9351 18.5938 16.4947 18.8733 16.3548 19.2928C16.075 19.7124 15.9351 19.4325 15.7948 19.5723ZM14.9551 12.8618C16.6346 11.324 18.4544 10.4853 20.6942 10.3452V8.66778C18.4544 8.80751 16.4947 9.5065 14.6753 10.7648C14.3951 11.0446 14.1153 11.324 13.6952 11.6035C14.2552 11.8833 14.6753 12.3028 14.9551 12.8618ZM20.6942 15.2386C19.7142 15.3783 19.0143 15.7978 18.3145 16.4968H18.4544C18.5946 16.6366 18.7345 16.6366 18.8744 16.7763C18.8744 16.916 18.7345 16.916 18.7345 17.0561H18.8744C19.0143 17.0561 19.0143 17.0561 19.0143 16.916C19.1542 16.7763 19.1542 17.0561 19.2945 17.0561H19.5743C19.7142 16.916 19.8545 17.0561 19.8545 16.916C20.1343 16.6366 19.9944 16.4968 20.1343 16.3567C20.2742 16.3567 20.1343 16.4968 20.1343 16.6366C20.4141 16.7763 20.4141 16.4968 20.6942 16.6366V15.2386ZM16.3548 12.3025C16.075 12.5823 15.6549 12.8618 15.3751 13.1416C15.7948 13.421 16.2149 13.8406 16.4947 14.12V14.2598C17.3348 13.421 18.5946 12.8618 19.7142 12.5823C19.9944 12.5823 20.2742 12.4426 20.5543 12.5823L20.554 11.0446C19.0143 11.0446 17.7545 11.6035 16.3548 12.3028V12.3025ZM14.9551 18.314C14.9551 18.5938 14.9551 18.8733 14.8152 19.1531C15.095 19.013 15.2349 19.1531 15.515 19.1531C15.3751 19.1531 15.515 18.8733 15.3751 18.8733C15.3751 18.7335 15.3751 18.5938 15.515 18.4541C15.515 18.1743 15.7948 18.1743 15.7948 17.8948C15.7948 17.615 16.075 17.7547 16.2149 17.615C16.3548 17.615 16.2149 17.4753 16.2149 17.3356C16.3548 17.1958 16.4947 17.1958 16.6349 17.0557L16.9147 16.7763C17.1949 16.7763 17.1949 16.3567 17.6146 16.3567C17.1949 16.0773 16.7748 15.518 16.3548 15.2386C15.7948 16.0773 15.2349 17.0557 14.9551 18.314ZM15.2349 20.5511C15.2349 20.411 15.095 20.411 15.095 20.2713C15.2349 19.9918 15.095 19.7124 15.3751 19.7124C15.095 19.7124 15.095 19.8521 14.8152 19.7124L14.9551 19.8521C14.9551 20.1315 15.095 20.5511 15.095 20.9703C15.095 20.6908 15.095 20.5511 15.2349 20.5511ZM25.7332 26.2828C26.1532 26.0033 26.5729 25.7235 26.8531 25.4441H26.5729C26.2931 25.4441 26.2931 25.1646 26.2931 25.1646L25.5933 24.4656V24.3255C25.5933 24.4656 25.4534 24.6053 25.3135 24.6053C25.3135 24.7451 25.3135 24.8848 25.4534 24.8848C25.7332 25.0245 26.013 25.1646 26.013 25.3043C25.8731 25.5838 25.4534 25.7235 25.7332 26.1431C25.8731 26.1431 25.5933 26.1431 25.7332 26.2828ZM21.8138 17.1958C21.954 17.3356 22.0939 17.1958 22.0939 17.0561C22.2338 17.0561 22.3737 17.1958 22.3737 17.3356H22.6536C22.6536 16.916 23.3538 17.0557 23.4937 16.4965L23.3538 16.4968C23.3538 16.4968 23.2139 16.4968 23.2139 16.3567L23.4937 16.0773C22.9337 15.7978 22.5137 15.518 21.954 15.3783C21.6739 15.3783 21.534 15.3783 21.2538 15.2386C21.3941 15.518 21.2538 16.0773 21.3941 16.3567L21.6739 16.4968C21.8138 16.217 21.954 16.217 22.0939 16.0773H22.3737V16.4968C22.3737 17.0561 21.954 17.0561 21.8138 17.1958ZM27.6929 20.9703C27.413 21.8093 27.1329 22.508 26.7132 23.0676C26.433 23.3471 26.433 23.6265 26.1532 23.7663L26.7132 24.1858V24.0461C26.7132 24.0461 26.7132 23.9063 26.8531 23.9063C27.1329 23.9063 27.1329 24.1858 27.1329 24.1858C27.1329 24.4656 27.2728 24.4656 27.2728 24.7451C28.6729 23.2073 29.3727 21.3898 29.5126 19.4325L29.6525 19.2928H27.973C27.973 19.5723 27.973 19.9918 27.8328 20.2713L28.1129 20.5511V20.8305C27.8328 21.1104 27.8328 21.1104 27.6929 20.9703ZM26.2931 16.0773C26.013 15.7978 25.8731 15.3783 25.4534 15.0985C24.8934 15.6577 24.3334 16.217 23.9134 16.7763L24.0536 16.916C24.0536 16.7763 24.1935 16.6366 24.1935 16.6366C24.3334 16.3567 24.4733 16.6366 24.7535 16.6366H25.5933C25.8731 16.7763 25.8731 16.916 26.013 17.0561V17.3356C26.013 17.7551 26.2931 17.1958 26.433 17.3356C26.5729 17.3356 26.7132 17.3356 26.7132 17.4753C26.7132 17.7551 26.993 17.615 26.993 17.7551C26.993 17.8948 26.8531 17.8948 26.8531 17.8948C26.8531 18.1743 26.5729 18.1743 26.7132 18.3144C26.993 18.3144 26.993 18.0346 27.1329 17.8948C26.993 17.615 26.993 17.3356 26.8531 17.0561C26.5729 17.0561 26.5729 16.7763 26.433 16.7763C26.013 16.4968 26.433 16.3567 26.2931 16.0773ZM21.3941 27.6808C21.8138 27.5411 22.2338 27.5411 22.7938 27.4013C22.6536 27.4013 22.5137 27.4013 22.5137 27.2616C22.2338 27.2616 22.2338 26.9818 22.0939 26.7023C22.0939 26.5626 22.0939 26.4225 22.2338 26.2828C22.0939 26.0033 21.8138 26.2828 21.534 26.1431C21.534 26.1431 21.3941 26.0033 21.2538 26.0033L21.3941 26.1431V27.6808ZM21.8138 23.3471C21.954 23.3471 21.8138 23.6265 21.954 23.6265C22.2338 23.4868 22.3737 23.9063 22.5137 23.6265C22.5137 23.3471 22.7938 23.3471 22.9337 23.3471C23.2139 23.2073 23.4937 23.0676 23.4937 22.6481C23.2139 22.6481 23.2139 22.7878 23.2139 22.9275C23.0736 23.0676 22.9337 22.6481 22.9337 22.7878V22.9275C22.6539 23.2073 22.6539 22.7878 22.5137 22.9275V23.0676C22.3737 22.7878 22.2338 22.9275 22.0939 22.7878H21.8138C21.8138 22.9275 21.534 22.7878 21.534 22.9275C21.3941 22.9275 21.3941 23.2073 21.2538 23.2073C20.974 23.2073 20.974 23.4868 20.8341 23.3471V23.4868H21.1139C21.2538 23.2073 21.534 23.4868 21.8138 23.3471ZM23.3538 21.2501C23.3538 21.3898 23.3538 21.5295 23.4937 21.5295C23.7735 21.5295 23.6336 21.8093 23.7735 21.8093C23.9134 21.8093 23.7735 21.6693 23.7735 21.5295C23.7735 21.2501 23.6336 21.2501 23.3538 21.2501C23.4937 21.2501 23.4937 21.2501 23.3538 21.2501C23.4937 21.11 23.4937 21.11 23.3538 21.2501ZM23.2139 13.421C22.6536 13.1416 22.0939 13.1416 21.3941 13.1416V14.819H21.534C22.3737 14.9588 23.3538 15.2386 24.0536 15.7978V15.9376C24.3334 15.6577 24.6136 15.2386 24.8934 14.9588L25.1732 14.819H25.0333C24.4733 14.12 23.7735 13.7008 23.2139 13.421ZM22.7938 22.3683C22.9337 22.2285 23.2139 22.2285 23.2139 22.0888C23.0736 21.9491 23.0736 22.0888 22.7938 22.3683C22.6536 22.2285 22.6536 22.3683 22.7938 22.3683ZM26.2931 19.4325L26.5729 19.7124C26.8531 19.8521 26.5729 19.9918 26.8531 20.1315C27.1329 20.2713 27.1329 20.4114 27.1329 20.6908V20.5511C27.2728 20.2713 27.1329 19.8521 27.2728 19.7124C26.993 19.5723 26.5729 19.5723 26.2931 19.4325ZM24.0536 23.4868C24.3334 23.4868 24.3334 23.7663 24.6136 23.7663C24.8934 23.6265 25.1732 23.7663 25.3135 23.6265C25.3135 23.3471 25.4534 23.3471 25.5933 23.0676C25.7332 23.2073 25.7332 23.3471 25.7332 23.4868C25.8731 23.2073 26.0133 23.2073 26.1532 22.9275C26.433 22.3683 26.8531 21.8093 26.993 21.2501C26.8531 21.2501 26.7132 21.2501 26.5733 21.3898C26.433 21.3898 26.2931 21.5295 26.0133 21.3898H25.8731C25.8731 21.5295 25.7332 21.6693 25.5933 21.5295C25.4534 21.5295 25.4534 21.3898 25.4534 21.2501V21.5295C25.3135 21.6693 25.3135 21.8093 25.1732 21.8093C25.0333 21.9491 24.8934 21.9491 24.7535 22.0888C24.7535 22.3683 24.4733 22.3683 24.3334 22.3683H24.6136C24.8934 22.3683 24.8934 22.0888 24.8934 22.0888C25.0333 22.0888 25.1732 21.9491 25.1732 22.0888C25.3135 22.2285 25.3135 22.3683 25.3135 22.6481C25.1732 22.7878 25.3135 22.9275 25.1732 23.2073C25.1732 23.4868 24.8934 23.4868 24.8934 23.6265C24.7535 23.7666 24.6136 23.7666 24.6136 23.7666C24.1935 23.4868 23.7735 23.4868 23.2139 23.4868C23.2139 23.4868 23.0736 23.4868 23.2139 23.6265C23.6336 23.3471 23.7735 23.3471 24.0536 23.4868ZM18.4544 22.3683C19.0143 22.7878 19.7142 23.2073 20.554 23.2073V22.7878C20.554 22.6481 20.8341 22.6481 20.8341 22.6481C20.8341 22.6481 20.974 22.5083 20.8341 22.5083C20.6942 22.5083 20.6942 22.2285 20.6942 22.2285C20.6942 22.2285 20.8341 22.2285 20.8341 22.0888C20.6942 21.9491 20.8341 21.8093 20.8341 21.8093L20.974 21.6693C20.6942 21.8093 20.2742 21.6693 19.9944 21.3898L19.7142 21.11L18.4544 22.3683ZM17.8944 20.5511C17.7545 20.5511 17.7545 20.5511 17.8944 20.5511H17.6146C17.6146 20.2713 17.3348 20.411 17.1945 20.2713L17.6146 21.11C17.7545 21.3898 17.8944 21.5295 18.0347 21.8093C18.1746 21.5295 18.3145 21.5295 18.4544 21.2501V20.9703C18.4544 20.8305 18.4544 20.6908 18.3145 20.6908C18.1746 20.6908 18.3145 20.9703 18.3145 20.9703H18.1746C18.0347 20.9703 17.8944 20.8305 17.8944 20.6908C18.0347 20.6908 17.8944 20.6908 17.8944 20.5511ZM34.1319 26.4225C33.2918 26.8421 32.5922 27.2616 32.0319 27.9606C33.1519 26.1431 32.5922 23.6265 33.2918 21.6693L33.5719 20.9703C33.432 22.2285 33.992 23.2073 33.8517 24.4656C33.8517 25.3043 33.5719 25.8633 33.1519 26.5626C33.7118 25.8633 33.992 25.0245 34.6918 24.4656C35.6715 23.6265 36.6515 22.508 36.7914 21.2501C37.2111 23.3471 35.9513 25.3043 34.1319 26.4225ZM28.9527 33.4128C27.2728 33.9721 25.5933 33.4128 24.1935 32.434C23.6336 32.1546 23.2139 31.5953 22.5137 31.5953H21.8138C23.0736 32.1546 24.3334 32.9933 25.3135 34.1118C25.0333 34.3913 24.8934 34.5314 24.6136 34.6711C23.6336 33.5526 22.5137 32.5741 21.1139 31.8751C20.8341 31.8751 20.6942 32.1546 20.4141 32.1546C19.4344 32.8536 18.3145 33.6923 17.6146 34.8108L16.9147 34.1118C18.0347 32.9933 19.1542 32.1546 20.4141 31.5953C19.1542 31.1761 18.3145 32.2943 17.3348 32.8536C16.2149 33.6923 14.6753 33.9721 13.2755 33.4128C12.4354 33.133 11.7355 32.7138 11.3158 32.0149C12.4358 32.8536 13.9754 32.8536 15.2352 32.2943C16.9147 31.5953 18.5946 30.7566 20.5543 31.1761C20.8341 31.1761 21.1139 31.4556 21.3941 31.1761C22.9337 30.8963 24.4737 31.036 25.8731 31.735L27.2728 32.2943C28.5326 32.7138 29.9323 32.5741 31.1922 31.8751C30.3524 32.7138 29.7924 33.2731 28.9527 33.4128ZM6.4168 25.5838C7.25656 27.6808 9.77621 27.8209 11.1759 29.0791C11.3158 29.3586 11.7355 29.638 12.0157 29.638C11.7355 29.3586 11.1759 28.939 11.0357 28.5199C10.1959 27.2616 10.4757 25.4441 9.77586 24.0461C10.3358 24.8848 10.8958 25.5838 11.3158 26.5626C11.8754 27.9606 12.1556 29.4983 13.4154 30.4771C12.0157 30.0576 10.3358 30.1973 9.07599 29.3586C7.81617 28.5199 6.5567 27.2616 6.41644 25.5838H6.4168ZM5.29688 21.3898C5.43678 23.2073 7.39646 24.1858 8.37613 25.8632C8.65629 26.1431 8.79619 26.4225 9.2159 26.7023C9.2159 26.4225 8.93609 26.4225 8.93609 26.1431C8.65629 25.4441 8.51639 24.7451 8.65629 24.0461C8.79619 23.2073 9.07599 22.2285 8.93609 21.2501C9.77621 22.9275 9.49605 25.1646 9.91611 26.9818C10.056 27.4013 10.1959 27.8209 10.4757 28.1003C8.79619 26.9818 6.5567 26.0033 5.85684 23.7666C5.29688 23.0676 5.29688 22.2285 5.29688 21.3898ZM5.43678 18.0346L5.85684 16.7763C5.57668 18.4541 6.6966 19.8521 7.11631 21.2501L7.53637 22.9275C6.97641 21.3898 7.81652 19.8521 8.65629 18.4541C8.93609 18.1743 8.93609 17.7547 9.07599 17.3356C9.21625 18.0346 8.93609 18.8733 8.79619 19.5723C8.51639 20.411 8.23623 21.5295 7.95643 22.3683C7.67627 22.9275 7.81652 23.6265 7.95643 24.1858C7.39647 23.0673 6.13664 22.0888 5.85684 20.8305C5.43678 20.1315 5.15697 19.013 5.43678 18.0346ZM6.13664 16.0773C6.13664 14.6793 6.6966 13.7008 7.39646 12.722C6.5567 13.9803 7.25656 15.6577 7.11631 17.0557L6.97641 18.5938C6.97641 18.314 6.97641 18.314 7.11631 18.0346C7.39647 16.7763 8.37613 15.9376 9.2159 15.0985C9.49605 14.819 9.49605 14.6793 9.63596 14.3995C9.49605 14.9588 9.35615 15.6577 9.07599 16.217C8.37613 17.615 6.97641 18.7335 6.8365 20.2713C6.97641 18.8733 5.85684 17.615 6.13664 16.0773ZM8.23623 11.7436C8.51639 11.1843 9.07599 10.9045 9.77586 10.7648C8.65629 11.6035 8.79619 12.8618 8.37613 14.12C8.23623 14.3998 8.09633 14.9588 7.95643 15.2386C8.23623 14.819 8.51639 14.3998 8.79619 13.8406C9.63596 13.0018 10.7559 12.5823 11.1759 11.4638C11.1759 13.0018 9.91611 14.12 8.65629 14.9588C8.09633 15.3783 7.67627 15.7978 7.39646 16.4968V15.3783C7.53637 14.12 7.39646 12.5823 8.23623 11.7432V11.7436ZM31.6122 10.2055C32.452 11.0446 32.7321 11.8833 33.012 12.8618L33.1519 13.1416C32.0319 12.3025 30.9124 11.0446 30.0726 9.92604L29.2325 8.94723C29.9323 9.22705 30.9124 9.5065 31.6122 10.2055ZM16.075 9.22705C17.6146 8.38832 19.4344 8.10851 21.1139 7.96878C25.3135 7.96878 29.3727 10.4853 31.1922 14.2598C32.3121 16.4968 32.7321 19.5723 32.0319 22.0888C31.1922 25.1646 28.6729 28.1003 25.7332 29.3586C22.3737 30.8963 17.7545 30.6169 14.8152 28.5199C10.7559 25.8632 9.07599 20.9703 10.3358 16.217C11.0357 13.421 13.2755 10.4853 16.075 9.22705ZM12.8555 9.22705C12.0157 9.92604 11.4557 10.9045 10.7559 11.7436C10.1959 12.3028 9.49605 12.8618 8.79619 13.421C9.2159 12.5823 9.2159 11.7436 9.77621 11.1843C10.4757 9.92604 11.7355 9.64659 12.8555 9.22705ZM31.3324 74.9342C30.7725 74.9342 30.2125 74.9342 29.7924 74.7945V69.6217C30.0726 69.6217 30.6326 69.4819 31.4723 69.4819C33.432 69.4819 34.6918 70.3207 34.6918 72.1382C34.6918 73.9554 33.432 74.9342 31.3324 74.9342ZM14.3951 69.6217C13.2755 68.5031 11.4557 67.9442 8.93609 67.9442C7.53637 67.9442 6.27654 68.084 5.15697 68.2237V81.6447C5.99674 81.7844 7.11631 81.7844 8.37613 81.7844C11.0357 81.7844 13.1353 81.0854 14.3951 79.8272C15.6549 78.5689 16.3548 76.7517 16.3548 74.6547C16.3548 72.2779 15.6549 70.7402 14.3951 69.6217ZM0.117676 43.1992H20.4141V63.4704H0.117676V43.1992H0.117676ZM0.117676 0H42.1105V41.9409H0.117676V0H0.117676ZM36.0916 21.8093C35.5316 22.6481 34.6918 23.3471 34.2718 24.3255C34.2718 23.6265 34.4117 22.7878 34.1319 22.2285C33.7118 20.8305 33.2918 19.5723 33.1519 17.8948V17.3356C33.432 18.8733 34.9716 19.9918 34.8317 21.6693C34.8317 22.0888 34.6915 22.5083 34.5516 22.7878V22.6481C34.8317 21.8093 34.8317 20.9703 35.2514 20.1315C35.7806 19.0746 36.3097 18.0176 36.1298 16.7243C36.0646 17.2344 35.9155 17.7279 35.6715 18.1743C35.3917 18.8733 35.2518 19.5723 35.1115 20.2713C35.1115 20.1315 35.1115 19.9918 34.9716 19.8521C34.6918 18.314 33.1519 17.1958 32.5922 15.9376C32.3121 15.518 32.3121 15.0985 32.1722 14.3995C32.7322 15.518 34.2718 16.0773 34.8317 17.4753C35.1115 17.7547 34.9716 18.1743 35.1115 18.5938C34.8317 17.1958 34.9716 15.9376 35.1115 14.6793C35.1115 13.9803 34.9716 13.2813 34.6918 12.722C34.8317 12.5823 34.9716 12.8618 35.2518 13.1416C35.9205 14.0956 36.263 15.3755 36.1461 16.5807C37.2016 18.244 36.9172 20.2971 36.0916 21.8093ZM26.2931 10.9045C26.433 10.9045 26.5729 11.0446 26.5729 11.1843C26.5729 11.324 26.7132 11.4638 26.5729 11.4638C26.2931 11.6035 26.2931 11.1843 26.013 11.1843V11.0446C26.1532 10.7648 26.1532 11.0446 26.2931 10.9045ZM27.413 13.1416C27.5529 13.1416 27.5529 13.421 27.6929 13.421C28.1129 13.7008 28.2528 14.12 28.5326 14.2598C28.8128 14.6793 29.2328 15.0988 29.2328 15.518C29.6525 16.6366 30.0726 17.615 30.0726 19.0134L31.7521 19.013C31.6122 18.8733 31.7521 18.7335 31.6122 18.4541C31.3324 15.9376 30.3524 13.8406 28.6729 12.023C28.3927 12.4426 27.973 12.8618 27.413 13.1416ZM27.413 25.7235C27.2728 26.0033 26.8531 26.2828 26.5729 26.5626C26.2931 26.8421 25.7332 26.9818 25.4534 27.5411C25.1732 27.8209 25.1732 27.9606 24.8934 28.1003C24.7535 28.3798 24.6136 28.3798 24.3334 28.5199C23.9134 28.939 23.4937 28.2401 23.2135 28.2401L22.3737 28.3798C22.0939 28.3798 21.8138 28.5199 21.534 28.3798V30.0576H21.6739C24.3334 29.9179 26.7132 28.939 28.6729 27.1215L27.413 26.0033V25.7235ZM14.9551 13.5608L14.3951 14.3998C13.4154 15.7978 12.8555 17.3356 12.8555 19.013H14.535V18.8733C14.6753 17.3356 15.2349 15.7978 16.3548 14.6793C15.7948 14.2598 15.3751 13.9803 14.9551 13.5608ZM30.0726 19.5723C29.9323 21.5295 29.2328 23.0676 28.2528 24.6053C27.973 24.8848 27.973 25.1646 27.5529 25.3043C27.973 25.5838 28.3927 26.1431 28.8128 26.5626C30.4923 24.6053 31.4723 22.3686 31.4723 19.7124V19.5723H30.0726ZM20.6942 13.1416C19.2945 13.2813 18.0347 13.8406 16.9147 14.6793C17.3348 14.9588 17.7545 15.518 18.0347 15.7978C18.0347 15.7978 18.0347 15.6577 18.1746 15.6577C18.7345 15.3783 19.2945 14.9588 19.8545 14.819C20.1343 14.819 20.4141 14.6793 20.6942 14.6793V13.1416ZM20.8341 17.7547C20.554 18.0346 20.4141 18.0346 20.1343 18.1743C19.9944 18.314 20.1343 18.4541 19.8545 18.4541C19.8545 18.5938 19.5743 18.7335 19.5743 18.7335C19.4344 19.013 19.5743 19.1531 19.4344 19.4325C19.1542 19.7124 19.1542 19.1531 19.0143 19.1531H18.5946C18.4544 19.2928 18.3145 19.4325 18.4544 19.4325C18.4544 19.5723 18.1746 19.4325 18.1746 19.7124C18.4544 19.7124 18.4544 19.7124 18.7345 19.5723H19.0143C19.0143 19.5723 19.1542 19.5723 19.1542 19.7124C19.2945 19.7124 19.2945 19.4325 19.2945 19.4325C19.2945 19.2928 19.4344 19.2928 19.5743 19.2928C19.7142 19.2928 19.5743 19.4325 19.5743 19.4325C19.8545 19.5723 19.5743 19.7124 19.4344 19.8521C19.4344 19.9918 19.4344 20.1315 19.1542 20.1315V19.9918C19.1542 20.1315 19.1542 20.2713 19.2945 20.2713C19.4344 20.1315 19.4344 19.9918 19.5743 19.9918C19.7142 19.8521 19.5743 19.7124 19.7142 19.5723C19.9944 19.5723 20.2742 19.4325 20.5543 19.7124V19.9918C20.5543 20.1315 20.4141 20.2713 20.2742 20.2713V20.5511C20.1343 20.8305 19.8545 20.8305 19.5743 20.8305C19.8545 21.1104 20.4141 21.1104 20.8341 21.1104C21.1139 21.1104 20.974 20.8305 21.1139 20.6908C21.2542 20.4114 21.534 20.5511 21.8141 20.4114C21.954 20.1315 22.0939 20.1315 22.0939 19.8521C21.8141 19.7124 21.8141 19.5723 21.8141 19.4325C21.6739 19.2928 21.6739 19.1531 21.534 19.1531V19.013C21.534 18.8733 21.6739 18.8733 21.6739 18.7335C21.534 18.5938 21.534 18.4541 21.534 18.4541C21.2542 18.4541 21.2542 18.1743 21.1139 18.1743C21.1139 18.0346 20.8341 18.0346 20.8341 17.8948C20.5543 18.0346 20.5543 17.615 20.2742 17.615V17.3356C20.4141 17.1958 20.5543 17.3356 20.5543 17.3356H20.4141C20.2742 17.1958 20.1343 17.3356 19.9944 17.3356C20.8341 17.615 20.6942 17.615 20.8341 17.7547ZM14.535 25.4441C14.2552 25.3043 14.2552 25.1646 13.9754 24.8848C13.6952 24.8848 13.6952 24.6053 13.5553 24.6053V24.3255V24.4656C13.2752 24.6053 13.2752 24.3255 13.1353 24.1858C12.8555 24.0461 12.9954 23.6265 12.7156 23.7663C12.5757 23.7663 12.5757 23.6265 12.4354 23.6265C12.1556 23.6265 12.1556 23.3471 12.1556 23.3471V23.4868C11.8754 23.4868 11.8754 23.2073 11.7355 23.2073H11.5956C11.4557 23.0676 11.3158 22.9275 11.3158 22.6481C11.0357 22.3683 11.1759 22.0888 11.3158 21.8093C11.3158 21.8093 11.4557 21.6693 11.4557 21.5295C11.4557 21.3898 11.7355 21.3898 11.7355 21.3898C11.7355 21.3898 11.8758 21.3898 11.8758 21.5295C12.0157 21.5295 12.1556 21.5295 12.1556 21.3898C12.2955 21.2501 12.4358 21.2501 12.4358 21.2501C12.5757 21.3898 12.5757 21.5295 12.7156 21.5295L12.5757 21.3898C12.4358 20.8305 12.2955 20.2713 12.2955 19.7124V19.2928H10.3358C10.4757 21.11 10.8958 22.6481 11.7355 24.1858C12.0157 25.0245 12.7156 25.5838 13.2752 26.2828L14.3951 25.1646L14.535 25.4441ZM12.7156 19.7124L12.8555 20.6908C12.8555 20.9703 13.1353 21.5295 13.1353 21.8093C13.1353 21.6696 13.1353 21.5295 13.4154 21.5295C13.4154 21.3898 13.5553 21.2501 13.4154 21.2501C13.4154 20.9703 13.5553 20.6908 13.6952 20.4114C13.9754 20.4114 13.9754 20.1315 14.2552 19.9918C14.3951 19.9918 14.5354 20.2713 14.5354 20.2713C14.2552 19.9918 14.2552 19.7124 14.3951 19.4325H12.5757L12.7156 19.7124ZM20.6942 28.3798C18.4544 28.2401 16.4947 27.5411 14.9551 25.8632L13.8355 26.9818C15.515 28.5199 17.6146 29.4983 19.8545 29.638C20.1343 29.638 20.6942 29.638 20.974 29.7778L20.8341 29.638L20.6942 28.3798ZM19.0143 20.6908C19.0143 20.8305 18.8744 20.9703 18.7345 20.9703C18.8744 20.8305 19.0143 20.6908 19.1542 20.6908H19.0143ZM20.6942 26.1431C19.2945 26.1431 18.1746 25.5838 17.0546 24.7451C17.0546 24.8848 17.3348 25.0245 17.1945 25.0245C17.0546 25.1646 16.9147 25.1646 16.7748 25.1646C16.4947 25.1646 16.2149 25.4441 15.9351 25.4441C15.6549 25.5838 15.6549 25.1646 15.3751 25.1646C16.9147 26.5626 18.7345 27.2616 20.8341 27.4013L20.974 27.5411V25.8636L20.6942 26.1431ZM31.7521 29.7778C30.9124 30.0576 29.7924 30.0576 28.8128 30.4771C30.3524 29.0791 30.3524 26.9818 31.3324 25.4441C31.6122 25.0245 31.892 24.6053 32.3121 24.0461C31.6122 25.3043 32.0319 26.9818 31.1922 28.2401C30.9124 28.7993 30.4923 29.2189 30.0726 29.638C30.2125 29.638 30.3524 29.4983 30.4923 29.3586C31.7521 28.2401 33.1519 27.8209 34.5516 26.8421C35.1115 26.4225 35.5316 26.0033 35.8114 25.3043C35.6715 27.4013 33.5719 29.2189 31.7521 29.7778ZM30.7725 31.735C28.8128 32.4344 26.993 31.5953 25.1732 31.3159H24.8934C25.7332 31.036 26.5729 30.8963 27.2728 30.1973C28.2528 29.2189 29.2328 28.2401 30.3524 27.5411C29.5126 28.6596 29.5126 30.1973 28.1129 30.8963C27.8328 31.1761 27.2728 31.1761 26.993 31.3159C27.5529 31.3159 27.8328 31.036 28.5326 31.036C30.3524 30.7566 32.452 31.036 33.7118 29.4983C33.012 30.4771 31.7521 31.4556 30.7725 31.735ZM8.79619 29.638C10.3358 31.3159 12.7156 30.7566 14.6753 31.1761C14.9551 31.1761 15.2352 31.3159 15.515 31.3159C15.2352 31.1761 14.9551 31.1761 14.6753 31.036C13.1353 30.4771 12.8555 28.939 12.0157 27.6808C13.1353 28.3798 13.9754 29.3586 14.9551 30.337C15.6549 30.8963 16.4947 31.1761 17.4747 31.4556C17.1949 31.5953 16.9147 31.4556 16.6349 31.5953C14.9551 32.0148 13.2755 32.5741 11.4557 32.0149C10.4757 31.4556 9.35615 30.6169 8.79619 29.638ZM21.6739 64.7287H41.9703V85H21.6739V64.7287ZM0.117676 64.7287H20.4141V85H0.117676V64.7287ZM21.6739 43.1992H41.9703V63.4704H21.6739V43.1992ZM28.3927 60.1152V54.3831C28.3927 52.1464 28.3927 50.4686 28.2528 48.7911C28.9527 50.3289 29.7924 51.8669 30.7725 53.2649L35.1115 60.1152H36.9313V46.6941H35.3917V52.4258C35.3917 54.5228 35.3917 56.2006 35.6715 58.0182C35.1115 56.6202 34.2718 55.2222 33.2918 53.5444L28.9527 46.6941H26.993V60.2549L28.3927 60.1152ZM5.29688 46.4143V54.3831C5.29688 58.5774 7.39646 60.1152 10.1959 60.1152C13.1353 60.1152 15.2349 58.4374 15.2349 54.2434V46.2746H13.5553V54.3831C13.5553 57.3192 12.1556 58.7172 10.1959 58.7172C8.37613 58.7172 6.97641 57.4589 6.97641 54.3831V46.4143H5.29688Z" fill="#0156B3"></path></svg>
